<svg id="Livello_1" data-name="Livello 1" xmlns="http://www.w3.org/2000/svg" viewBox="0 0 70 70"><defs><style>.cls-1{fill:#fff;}</style></defs><title>adobeillustratoricon</title><path class="cls-1" d="M415.85,292.44l-.82-2.69c-.28-.9-.53-1.75-.75-2.59s-.42-1.58-.62-2.28h-.05a37,37,0,0,1-.95,3.76c-.42,1.41-.84,2.87-1.29,4.32s-.81,2.87-1.23,4.09h7.1c-.16-.61-.39-1.34-.64-2.1S416.1,293.32,415.85,292.44ZM443,260.53H397.77a12.67,12.67,0,0,0-12.39,12.94V317.6a12.67,12.67,0,0,0,12.39,12.93H443a12.67,12.67,0,0,0,12.4-12.93V273.47A12.68,12.68,0,0,0,443,260.53Zm-14.27,51.74H422s-.4-1.87-.46-2.09l-2.39-7H408.3l-2.22,6.95c-.06.28-.56,2.18-.56,2.18h-6.09c-.33,0-.43-.19-.33-.57l9.8-29.45c.09-.31.18-.66.3-1.05a11.61,11.61,0,0,0,.18-2.06.32.32,0,0,1,.25-.35h7.88c.24,0,.37.1.4.26L429,311.76C429.11,312.1,429,312.27,428.71,312.27Zm9.17-2.21c.14.34,0,.49-.24-.83h-5.72c-.29,1.32-.44,1.13.12.83V286.63c-.56-.31-.44-.43-.18-1.75h5.78c.26,1.32.38,1.47.24,1.75Zm-.47-27.48a3.39,3.39,0,0,1-2.66,1.07,3.55,3.55,0,0,1-2.6-1.07,4.06,4.06,0,0,1-1-2.8,3.61,3.61,0,0,1,3.65-3.77,3.4,3.4,0,0,1,2.65,1.06,4.35,4.35,0,0,1,0,5.51Z" transform="translate(-385.38 -260.53)"/></svg>