<svg id="Livello_1" data-name="Livello 1" xmlns="http://www.w3.org/2000/svg" viewBox="0 0 842.29 651.51"><defs><style>.cls-1{font-size:41.65px;letter-spacing:-0.03em;}.cls-1,.cls-5,.cls-8{fill:#fff;}.cls-1,.cls-6,.cls-8{font-family:NotoSans-Bold, Noto Sans;}.cls-1,.cls-16,.cls-17,.cls-6,.cls-8{font-weight:700;}.cls-2{letter-spacing:0em;}.cls-3{letter-spacing:-0.01em;}.cls-17,.cls-4,.cls-6{fill:#33a9d9;}.cls-6,.cls-8{font-size:30px;}.cls-16,.cls-7{fill:#2c4e9d;}.cls-9{letter-spacing:-0.01em;}.cls-10,.cls-11,.cls-12,.cls-16,.cls-17{font-family:PlayfairDisplaySC-BoldItalic, Playfair Display SC;font-style:italic;}.cls-11{letter-spacing:-0.03em;}.cls-12{letter-spacing:-0.02em;}.cls-13{letter-spacing:-0.03em;}.cls-14{fill:#ca9e67;}.cls-15{fill:#d08283;}.cls-16,.cls-17{font-size:40px;}.cls-18{fill:none;stroke:#2c4e9d;stroke-miterlimit:10;stroke-width:10px;}</style></defs><title>fts slide1.1</title><text x="-278.97" y="-45.35"/><text class="cls-1" transform="translate(215.88 583.8)">T<tspan class="cls-2" x="22.7" y="0">ema: </tspan><tspan class="cls-3" x="137.67" y="0">V</tspan><tspan class="cls-2" x="164.33" y="0">olontariato</tspan></text><text x="-278.97" y="-45.35"/><rect class="cls-4" x="0.16" y="6.89" width="841.89" height="595.28"/><rect class="cls-5" x="285.45" y="6.89" width="268.82" height="318.76" rx="29.64"/><rect class="cls-5" x="153.61" y="325.64" width="548.89" height="47.14" rx="12"/><text class="cls-6" transform="translate(158.34 357.7)"><tspan xml:space="preserve">A little piece of food   </tspan><tspan class="cls-7" x="323.44" y="0">For a big smile</tspan></text><text class="cls-8" transform="translate(54.96 460.39)">Una p<tspan class="cls-9" x="87.29" y="0">r</tspan><tspan x="100.62" y="0">esentazione g</tspan><tspan class="cls-9" x="308.42" y="0">r</tspan><tspan x="321.75" y="0">afica di: </tspan><tspan class="cls-10" x="447.63" y="0">Cri</tspan><tspan class="cls-11" x="500.85" y="0">s</tspan><tspan class="cls-10" x="518.16" y="0">ti</tspan><tspan class="cls-12" x="549.96" y="0">a</tspan><tspan class="cls-10" x="568.77" y="0">n pozzi</tspan></text><text class="cls-8" transform="translate(279.67 516.76)"><tspan class="cls-13">T</tspan><tspan x="16.35" y="0">ema: </tspan><tspan class="cls-9" x="99.16" y="0">V</tspan><tspan x="118.36" y="0">olontariato</tspan></text><path class="cls-14" d="M740.69,178.84c-9.58-9.06-29.27-7.94-48.83,1.46-1.18.57-2.35,1.17-3.53,1.79l0,0c.93.79,1.92,1.7,3,2.74a43.11,43.11,0,0,0,14.73,9.59.8.8,0,0,1-.29,1.54c-6.58,0-17.16-.34-15-3s-7.8-2.9-13.65-2.75a.78.78,0,0,1-.76-.52c-.44.32-.89.63-1.33,1h0l-.73.55c-.72.56-1.42,1.13-2.12,1.7a40.11,40.11,0,0,1,6.05,5.28,43.07,43.07,0,0,0,15.31,10.2.64.64,0,0,1-.24,1.24c-6.46-.07-18.09-.59-15.81-3.36,2.5-3-10.28-3.11-15.47-3a.67.67,0,0,1-.46-.19c-.31.35-.64.69-.94,1h0c-.65.77-1.28,1.54-1.88,2.32a32.67,32.67,0,0,1,9.46,7,42.93,42.93,0,0,0,14.28,9.33.9.9,0,0,1-.32,1.74c-6.6,0-16.58-.34-14.52-3,2.41-3.08-10.16-2.85-15.42-2.63a.91.91,0,0,1-.89-.6c-5.25,11.18-5,21.62,1.86,28.14,12.5,11.83,42.23,6.3,66.4-12.35S753.19,190.66,740.69,178.84Z" transform="translate(-278.97 -45.35)"/><path class="cls-15" d="M717.21,247.78a3.5,3.5,0,0,0-2.72-.13,11.8,11.8,0,0,0-3.16,1.73,126.84,126.84,0,0,0-11.77,9.23c-5.29,4.7-12.8,7.38-23.63,8.46l-2.75.27c-7.36.7-14.32,1.37-21.34,4a44.07,44.07,0,0,0-25.68,26.23c-4.08,11.7-3,23.43-1.57,32.51,4.19-6.22,11.73-9.68,17.93-12,18.39-6.93,37.63-10.33,56.25-13.6,2-.36,4-.7,6-1.05,7.89-1.36,16.05-2.76,23.89-4.68A68.4,68.4,0,0,0,757.83,283a65.2,65.2,0,0,0,17.6-26.08c.42-1.18.73-2.39.19-3.21a2.64,2.64,0,0,0-2.52-.88A8.08,8.08,0,0,0,770,254c-4.27,2.45-7.24,6.37-10.12,10.16-1,1.34-2.08,2.73-3.18,4-9.49,11.29-24.15,16.29-32,18.27a133,133,0,0,1-20.23,3.76c-7.45.65-14,.13-19.56-1.57-2.82-.86-4.24-2.23-4.1-3.94s2-3.31,3.59-4.4c3.07-2.1,6.33-4,9.49-5.88,3.43-2,7-4.1,10.25-6.41,5.19-3.66,11.8-9.53,13.76-16.7.45-1.63.32-2.76-.37-3.38A2.2,2.2,0,0,0,717.21,247.78Z" transform="translate(-278.97 -45.35)"/><path class="cls-15" d="M690.34,284.37c-.63-.79.9-1.51,2.08-2.33s2.56-1.75,3.91-2.61a105.81,105.81,0,0,0,21.92-19.13c2.81-3.16,4.84-6.73,7.43-10.08a8.58,8.58,0,0,1,2.6-2.53,2.88,2.88,0,0,1,3.36.28c1.14,1.16.71,3.13.11,4.66-3.1,7.83-8.82,14.35-15.4,19.4s-14.12,8.56-21.62,12a8.18,8.18,0,0,1-2.5.6A4.4,4.4,0,0,1,690.34,284.37Z" transform="translate(-278.97 -45.35)"/><path class="cls-15" d="M699.64,283.93a97.88,97.88,0,0,0,14-5.62A54.74,54.74,0,0,0,727,267.5a58.28,58.28,0,0,0,7.74-11.29c2.16-4.22,4.38-8.67,8.1-11.51,1.38-1,3.22-2,4.73-1.12A3.54,3.54,0,0,1,749.1,247a9.76,9.76,0,0,1-1.27,3.7A80.54,80.54,0,0,1,731,272.9a50.61,50.61,0,0,1-15,10,30.84,30.84,0,0,1-16.29,1.93A.47.47,0,0,1,699.64,283.93Z" transform="translate(-278.97 -45.35)"/><path class="cls-15" d="M726.26,281.65c3-2.63,6.07-5.1,9-7.73a52.49,52.49,0,0,0,7-7.33c2.43-3.2,5.28-6.22,7.51-9.62,1.48-2.26,3.26-4.4,4.89-6.54a43.75,43.75,0,0,1,4.44-5.24,7.57,7.57,0,0,1,3.29-2.05,3.29,3.29,0,0,1,3.49,1.12,4.41,4.41,0,0,1,.46,3.28c-.61,3.45-3.11,5.84-5.27,8.56-1.71,2.15-5.73,7.06-7.43,9.21-2.88,3.61-6.39,6.17-9.48,8.63-4.75,3.8-9.4,6.76-16.23,8.32a7.32,7.32,0,0,1-1.41.13.91.91,0,0,1-.33,0,.37.37,0,0,1-.23-.24C725.93,281.93,726.13,281.77,726.26,281.65Z" transform="translate(-278.97 -45.35)"/><text class="cls-16" transform="matrix(0.29, -0.96, 0.96, 0.29, 319.46, 170.99)">F</text><text class="cls-16" transform="translate(325.28 149.76) rotate(-58.45)">o</text><text class="cls-16" transform="matrix(0.74, -0.67, 0.67, 0.74, 340.47, 124.52)">o</text><text class="cls-16" transform="translate(362.17 104.61) rotate(-25.57)">d</text><text class="cls-17" transform="translate(388.61 91.99) rotate(-10.24)">T</text><text class="cls-17" transform="matrix(1, 0.09, -0.09, 1, 413.75, 86.96)">o</text><text class="cls-16" transform="translate(443.15 89.87) rotate(19.64)">S</text><text class="cls-16" transform="translate(464.16 96.38) rotate(34.99)">m</text><text class="cls-16" transform="translate(491.23 116.57) rotate(48.6)">i</text><text class="cls-16" transform="translate(501.16 127.05) rotate(59.24)">l</text><text class="cls-16" transform="translate(513.1 146.69) rotate(72.41)">e</text><path class="cls-7" d="M712.46,619.18a1.49,1.49,0,0,0-1.11-.38,5.19,5.19,0,0,0-1.52.33,56,56,0,0,0-6,2.4c-2.76,1.31-6.19,1.52-10.8.66l-1.17-.22a35.12,35.12,0,0,0-9.31-.94,19,19,0,0,0-13.78,7.76c-3.1,4.35-4.09,9.33-4.57,13.26,2.48-2.07,6-2.59,8.86-2.81,8.45-.65,16.82.27,24.92,1.15l2.62.3c3.43.39,7,.8,10.46.94a29.46,29.46,0,0,0,13.94-3A27.88,27.88,0,0,0,735.44,630c.32-.43.6-.9.47-1.3A1.12,1.12,0,0,0,735,628a3.36,3.36,0,0,0-1.43.11,15.42,15.42,0,0,0-5.41,3c-.59.43-1.19.88-1.8,1.29-5.29,3.52-12,3.83-15.46,3.69a56.85,56.85,0,0,1-8.83-.88,22.25,22.25,0,0,1-7.9-3c-1.07-.69-1.49-1.43-1.23-2.12s1.23-1.13,2-1.39c1.52-.5,3.11-.9,4.64-1.29s3.37-.85,5-1.42c2.59-.88,6-2.52,7.71-5.25.38-.62.46-1.1.25-1.44A.39.39,0,0,0,712.46,619.18Z" transform="translate(-278.97 -45.35)"/><path class="cls-7" d="M696.93,631.08c-.17-.4.55-.51,1.14-.71s1.27-.42,1.93-.61a45.61,45.61,0,0,0,11.38-5.28c1.54-1,2.81-2.2,4.29-3.27a3.78,3.78,0,0,1,1.38-.74,1.25,1.25,0,0,1,1.36.53c.33.61-.09,1.38-.52,1.94a20.17,20.17,0,0,1-8.71,6.17,46.84,46.84,0,0,1-10.39,2.35,3.76,3.76,0,0,1-1.1-.06C697.57,631.39,697,631.2,696.93,631.08Z" transform="translate(-278.97 -45.35)"/><path class="cls-7" d="M700.83,632a41.23,41.23,0,0,0,6.47-.64,23.65,23.65,0,0,0,6.83-2.86,25.32,25.32,0,0,0,4.56-3.74,13.91,13.91,0,0,1,4.74-3.79,2,2,0,0,1,2.09.11,1.52,1.52,0,0,1,.23,1.58,4.12,4.12,0,0,1-1,1.38,34.67,34.67,0,0,1-9.65,7.17,21.81,21.81,0,0,1-7.41,2.34,13.38,13.38,0,0,1-7-1.16A.21.21,0,0,1,700.83,632Z" transform="translate(-278.97 -45.35)"/><path class="cls-7" d="M712.12,634.28c1.54-.73,3.13-1.37,4.67-2.1a22.82,22.82,0,0,0,3.76-2.2c1.4-1,2.94-1.93,4.27-3.08.89-.75,1.88-1.42,2.82-2.11a17.57,17.57,0,0,1,2.47-1.63,3.29,3.29,0,0,1,1.6-.46,1.43,1.43,0,0,1,1.31.89,1.9,1.9,0,0,1-.2,1.41c-.67,1.36-2,2-3.22,2.91-1,.68-3.22,2.23-4.18,2.91a23.61,23.61,0,0,1-5,2.43,16.46,16.46,0,0,1-7.72,1.49,2.55,2.55,0,0,1-.6-.12.29.29,0,0,1-.13,0,.17.17,0,0,1-.07-.13C712,634.36,712.05,634.32,712.12,634.28Z" transform="translate(-278.97 -45.35)"/><path class="cls-7" d="M687.7,79.12a1.57,1.57,0,0,0,1.11.38,5.21,5.21,0,0,0,1.52-.34,53.23,53.23,0,0,0,6-2.4c2.76-1.3,6.19-1.51,10.8-.65l1.17.22a35.11,35.11,0,0,0,9.31.93,19,19,0,0,0,13.79-7.76c3.09-4.34,4.08-9.32,4.56-13.26-2.48,2.07-6,2.59-8.86,2.81-8.45.65-16.82-.26-24.92-1.15l-2.62-.3c-3.43-.39-7-.79-10.45-.94a29.48,29.48,0,0,0-14,3,28.14,28.14,0,0,0-10.42,8.67,1.66,1.66,0,0,0-.47,1.31,1.17,1.17,0,0,0,.94.67,3.52,3.52,0,0,0,1.43-.11,15.55,15.55,0,0,0,5.42-3c.58-.44,1.18-.88,1.8-1.29,5.28-3.53,11.95-3.83,15.46-3.7a56.8,56.8,0,0,1,8.82.89,22.06,22.06,0,0,1,7.9,3c1.07.7,1.49,1.44,1.23,2.13s-1.23,1.12-2,1.38c-1.52.51-3.1.91-4.64,1.29s-3.37.86-5,1.42c-2.59.89-6,2.52-7.71,5.25-.38.62-.46,1.11-.25,1.44A.76.76,0,0,0,687.7,79.12Z" transform="translate(-278.97 -45.35)"/><path class="cls-7" d="M703.23,67.21c.17.41-.55.52-1.14.72s-1.27.41-1.93.61a45.57,45.57,0,0,0-11.38,5.27c-1.54,1-2.81,2.2-4.29,3.28a3.75,3.75,0,0,1-1.38.73,1.25,1.25,0,0,1-1.36-.52c-.33-.62.09-1.38.52-1.94A20.19,20.19,0,0,1,691,69.18a47.38,47.38,0,0,1,10.39-2.34,3.5,3.5,0,0,1,1.11,0C702.59,66.91,703.18,67.1,703.23,67.21Z" transform="translate(-278.97 -45.35)"/><path class="cls-7" d="M699.33,66.28a42.57,42.57,0,0,0-6.47.63A23.5,23.5,0,0,0,686,69.78a24.57,24.57,0,0,0-4.56,3.74c-1.41,1.48-2.86,3-4.74,3.78a2,2,0,0,1-2.1-.1,1.53,1.53,0,0,1-.23-1.59,4.23,4.23,0,0,1,1-1.37A34.7,34.7,0,0,1,685,67.06a21.64,21.64,0,0,1,7.41-2.33,13.19,13.19,0,0,1,7,1.16A.21.21,0,0,1,699.33,66.28Z" transform="translate(-278.97 -45.35)"/><path class="cls-7" d="M688,64c-1.54.73-3.13,1.38-4.67,2.11a22.08,22.08,0,0,0-3.76,2.19c-1.4,1-2.94,1.94-4.27,3.08-.89.76-1.88,1.43-2.81,2.12a21.07,21.07,0,0,1-2.47,1.63,3.24,3.24,0,0,1-1.61.45,1.41,1.41,0,0,1-1.31-.88,1.85,1.85,0,0,1,.21-1.41c.66-1.36,2-2,3.21-2.91,1-.69,3.22-2.24,4.18-2.92a24.11,24.11,0,0,1,5-2.43,16.46,16.46,0,0,1,7.72-1.48,2.9,2.9,0,0,1,.6.11.35.35,0,0,1,.14.06.16.16,0,0,1,.06.13C688.21,63.93,688.11,64,688,64Z" transform="translate(-278.97 -45.35)"/><line class="cls-18" x1="0.16" y1="11.95" x2="368.66" y2="11.95"/><line class="cls-18" y1="597.28" x2="368.5" y2="597.28"/><line class="cls-18" x1="473.55" y1="597.32" x2="842.05" y2="597.32"/><line class="cls-18" x1="473.55" y1="11.89" x2="842.05" y2="11.89"/><line class="cls-18" x1="5.19" y1="602.41" x2="5.19" y2="7.13"/><line class="cls-18" x1="837.29" y1="602.17" x2="837.29" y2="6.89"/></svg>