<svg id="Livello_1" data-name="Livello 1" xmlns="http://www.w3.org/2000/svg" viewBox="0 0 842.29 595.52"><defs><style>.cls-1,.cls-3{fill:#fff;}.cls-2,.cls-6,.cls-8{fill:#33a9d9;}.cls-3{font-size:60px;font-family:PlayfairDisplaySC-BoldItalic, Playfair Display SC;font-style:italic;}.cls-3,.cls-6,.cls-8{font-weight:700;}.cls-4{letter-spacing:-0.03em;}.cls-5{letter-spacing:0em;}.cls-6{font-size:30px;}.cls-6,.cls-8{font-family:NotoSans-Bold, Noto Sans;}.cls-7{letter-spacing:-0.01em;}.cls-8{font-size:15px;}.cls-9{letter-spacing:0em;}.cls-10{letter-spacing:0em;}.cls-11{letter-spacing:-0.01em;}.cls-12{letter-spacing:0em;}.cls-13{letter-spacing:-0.02em;}.cls-14{fill:#2c4e9d;}.cls-15{fill:none;stroke:#2c4e9d;stroke-miterlimit:10;stroke-width:10px;}</style></defs><title>fts-slide4</title><rect class="cls-1" x="5.19" y="0.77" width="832.1" height="593.62"/><rect class="cls-2" x="5.19" y="69.28" width="260.12" height="61.56" rx="21.44"/><text class="cls-3" transform="translate(30 120.23)">G<tspan class="cls-4" x="44.34" y="0">O</tspan><tspan class="cls-5" x="89.16" y="0">ALS</tspan></text><text class="cls-6" transform="translate(41.9 221.1)">Azze<tspan class="cls-7" x="67.69" y="0">r</tspan><tspan x="81.02" y="0">a</tspan><tspan class="cls-7" x="99.14" y="0">r</tspan><tspan x="112.47" y="0">e gli sp</tspan><tspan class="cls-7" x="216.97" y="0">r</tspan><tspan x="230.3" y="0">echi</tspan></text><text class="cls-6" transform="translate(38.42 350.13)">Regala<tspan class="cls-7" x="101.91" y="0">r</tspan><tspan x="115.24" y="0">e un sorriso</tspan></text><path class="cls-2" d="M490,546.66A2.87,2.87,0,0,0,488,546a9.24,9.24,0,0,0-2.81.62A99.72,99.72,0,0,0,474.05,551c-5.11,2.42-11.47,2.81-20,1.21l-2.16-.41c-5.81-1.1-11.3-2.15-17.27-1.73A35.22,35.22,0,0,0,409,564.49c-5.74,8.06-7.57,17.29-8.47,24.59,4.6-3.83,11.17-4.8,16.44-5.21,15.67-1.2,31.19.5,46.21,2.14l4.87.55c6.36.72,12.93,1.47,19.38,1.75a54.69,54.69,0,0,0,25.86-5.53,52.15,52.15,0,0,0,19.33-16.08,3,3,0,0,0,.87-2.42,2.13,2.13,0,0,0-1.74-1.24,6.37,6.37,0,0,0-2.66.2c-3.83.93-7,3.27-10,5.53-1.08.8-2.2,1.63-3.34,2.39-9.81,6.54-22.17,7.1-28.67,6.85a105.24,105.24,0,0,1-16.37-1.64A41.13,41.13,0,0,1,456,570.8c-2-1.29-2.76-2.66-2.27-3.94s2.27-2.09,3.74-2.58c2.82-.92,5.76-1.67,8.6-2.39,3.07-.78,6.26-1.58,9.29-2.62,4.8-1.65,11.18-4.68,14.3-9.74.71-1.15.86-2,.46-2.68Z" transform="translate(-286.2 -46.16)"/><path class="cls-2" d="M461.22,568.74c-.32-.75,1-1,2.11-1.33s2.36-.77,3.58-1.13A84.08,84.08,0,0,0,488,556.5c2.86-1.79,5.22-4.07,7.95-6.07a6.87,6.87,0,0,1,2.57-1.36,2.29,2.29,0,0,1,2.51,1c.62,1.14-.15,2.56-1,3.59a37.4,37.4,0,0,1-16.15,11.45c-6.18,2.41-12.76,3.41-19.28,4.36a6.48,6.48,0,0,1-2-.11C462.4,569.3,461.31,569,461.22,568.74Z" transform="translate(-286.2 -46.16)"/><path class="cls-2" d="M468.45,570.48a77.93,77.93,0,0,0,12-1.19A43.67,43.67,0,0,0,493.11,564a46.23,46.23,0,0,0,8.45-6.93c2.6-2.76,5.31-5.67,8.79-7,1.29-.5,2.92-.79,3.89.19a2.87,2.87,0,0,1,.43,2.94,7.94,7.94,0,0,1-1.8,2.55A64.17,64.17,0,0,1,495,569a40.15,40.15,0,0,1-13.73,4.33,24.61,24.61,0,0,1-12.93-2.16A.38.38,0,0,1,468.45,570.48Z" transform="translate(-286.2 -46.16)"/><path class="cls-2" d="M489.38,574.68c2.87-1.36,5.81-2.56,8.67-3.91a41.68,41.68,0,0,0,7-4.07c2.58-1.92,5.45-3.59,7.92-5.71,1.64-1.4,3.48-2.64,5.21-3.92a35.23,35.23,0,0,1,4.58-3,6.12,6.12,0,0,1,3-.84,2.66,2.66,0,0,1,2.43,1.64,3.52,3.52,0,0,1-.38,2.62c-1.24,2.52-3.7,3.79-6,5.39-1.79,1.27-6,4.14-7.76,5.41a44,44,0,0,1-9.2,4.5,30.49,30.49,0,0,1-14.32,2.76,6.2,6.2,0,0,1-1.11-.21.91.91,0,0,1-.25-.11.26.26,0,0,1-.11-.23C489.07,574.82,489.26,574.74,489.38,574.68Z" transform="translate(-286.2 -46.16)"/><path class="cls-2" d="M486.05,412.79a2.85,2.85,0,0,0-2.06-.7,9.3,9.3,0,0,0-2.82.62,103.34,103.34,0,0,0-11.09,4.45c-5.11,2.42-11.47,2.81-20,1.21l-2.16-.41c-5.81-1.1-11.3-2.15-17.26-1.73a35.19,35.19,0,0,0-25.57,14.39c-5.75,8.07-7.58,17.3-8.47,24.6,4.6-3.84,11.16-4.81,16.43-5.21,15.67-1.21,31.2.49,46.21,2.13l4.87.55c6.36.72,12.94,1.48,19.38,1.75a54.54,54.54,0,0,0,25.86-5.53,51.89,51.89,0,0,0,19.33-16.08,3,3,0,0,0,.87-2.42,2.11,2.11,0,0,0-1.74-1.24,6.55,6.55,0,0,0-2.66.2c-3.82.93-7,3.27-10,5.53-1.08.8-2.2,1.63-3.34,2.39-9.8,6.54-22.17,7.1-28.67,6.86a106.22,106.22,0,0,1-16.36-1.64,41.3,41.3,0,0,1-14.66-5.58c-2-1.29-2.76-2.66-2.27-3.94s2.27-2.09,3.74-2.57c2.82-.93,5.76-1.68,8.6-2.39,3.08-.78,6.26-1.59,9.29-2.63,4.81-1.65,11.19-4.68,14.3-9.74.71-1.15.87-2.05.47-2.67A1.3,1.3,0,0,0,486.05,412.79Z" transform="translate(-286.2 -46.16)"/><path class="cls-2" d="M457.25,434.87c-.31-.75,1-1,2.11-1.33s2.36-.77,3.59-1.13a84.38,84.38,0,0,0,21.1-9.77c2.86-1.8,5.21-4.08,7.95-6.08a7,7,0,0,1,2.56-1.36,2.3,2.3,0,0,1,2.52,1c.61,1.14-.16,2.56-1,3.6A37.27,37.27,0,0,1,480,431.21c-6.18,2.41-12.75,3.41-19.27,4.36a6.84,6.84,0,0,1-2.05-.1C458.43,435.43,457.34,435.09,457.25,434.87Z" transform="translate(-286.2 -46.16)"/><path class="cls-2" d="M464.49,436.61a76.71,76.71,0,0,0,12-1.19,43.65,43.65,0,0,0,12.66-5.3,46.43,46.43,0,0,0,8.46-6.94c2.6-2.76,5.3-5.67,8.79-7,1.29-.5,2.91-.79,3.88.19a2.87,2.87,0,0,1,.43,2.94,7.69,7.69,0,0,1-1.8,2.55A64.12,64.12,0,0,1,491,435.15a40.21,40.21,0,0,1-13.74,4.33,24.72,24.72,0,0,1-12.93-2.15A.38.38,0,0,1,464.49,436.61Z" transform="translate(-286.2 -46.16)"/><path class="cls-2" d="M485.42,440.81c2.86-1.36,5.8-2.55,8.66-3.91a41,41,0,0,0,7-4.07c2.58-1.91,5.45-3.59,7.92-5.71,1.64-1.4,3.48-2.64,5.21-3.92a35.16,35.16,0,0,1,4.58-3,6.09,6.09,0,0,1,3-.85,2.63,2.63,0,0,1,2.43,1.65,3.5,3.5,0,0,1-.38,2.61c-1.24,2.52-3.7,3.79-6,5.4-1.79,1.26-6,4.14-7.76,5.4a44.09,44.09,0,0,1-9.2,4.51,30.57,30.57,0,0,1-14.31,2.75,5.18,5.18,0,0,1-1.11-.21.71.71,0,0,1-.25-.11.25.25,0,0,1-.12-.23C485.1,441,485.29,440.87,485.42,440.81Z" transform="translate(-286.2 -46.16)"/><path class="cls-2" d="M491.05,285.87a2.83,2.83,0,0,0-2.06-.7,9.17,9.17,0,0,0-2.81.62,100.68,100.68,0,0,0-11.1,4.45c-5.1,2.42-11.47,2.81-20,1.21l-2.17-.41c-5.81-1.1-11.29-2.15-17.26-1.73a35.21,35.21,0,0,0-25.57,14.39c-5.74,8.06-7.57,17.29-8.47,24.59,4.6-3.83,11.16-4.8,16.44-5.21,15.66-1.2,31.19.5,46.2,2.14l4.87.55c6.36.72,12.94,1.47,19.38,1.75A54.7,54.7,0,0,0,514.35,322a52.23,52.23,0,0,0,19.33-16.08c.58-.81,1.1-1.67.87-2.42a2.14,2.14,0,0,0-1.75-1.24,6.33,6.33,0,0,0-2.65.2c-3.83.93-7,3.27-10,5.53-1.09.8-2.21,1.63-3.34,2.39-9.81,6.54-22.18,7.1-28.67,6.85a105,105,0,0,1-16.37-1.64A41.26,41.26,0,0,1,457.07,310c-2-1.29-2.75-2.66-2.27-3.94s2.27-2.09,3.74-2.58c2.83-.92,5.76-1.67,8.6-2.39,3.08-.78,6.26-1.58,9.3-2.62,4.8-1.65,11.18-4.68,14.29-9.74.71-1.15.87-2.05.47-2.68A1.25,1.25,0,0,0,491.05,285.87Z" transform="translate(-286.2 -46.16)"/><path class="cls-2" d="M462.25,308c-.31-.75,1-1,2.12-1.33s2.36-.77,3.58-1.13a84.24,84.24,0,0,0,21.1-9.78c2.86-1.79,5.22-4.07,7.95-6.07a6.8,6.8,0,0,1,2.57-1.36,2.29,2.29,0,0,1,2.51,1c.61,1.14-.15,2.56-1,3.59A37.29,37.29,0,0,1,485,304.29c-6.18,2.41-12.75,3.41-19.27,4.36a6.54,6.54,0,0,1-2.05-.11C463.43,308.51,462.35,308.17,462.25,308Z" transform="translate(-286.2 -46.16)"/><path class="cls-2" d="M469.49,309.69a78.06,78.06,0,0,0,12-1.19,43.5,43.5,0,0,0,12.65-5.31,46,46,0,0,0,8.46-6.93c2.6-2.76,5.3-5.67,8.79-7,1.29-.5,2.91-.79,3.88.19a2.82,2.82,0,0,1,.43,2.94,7.79,7.79,0,0,1-1.8,2.55A64.12,64.12,0,0,1,496,308.23a40.21,40.21,0,0,1-13.74,4.33,24.68,24.68,0,0,1-12.92-2.15A.38.38,0,0,1,469.49,309.69Z" transform="translate(-286.2 -46.16)"/><path class="cls-2" d="M490.42,313.89c2.86-1.36,5.8-2.56,8.66-3.91a40.9,40.9,0,0,0,7-4.07c2.59-1.91,5.45-3.59,7.92-5.71,1.64-1.4,3.48-2.64,5.22-3.92a34.57,34.57,0,0,1,4.58-3,6.12,6.12,0,0,1,3-.84,2.66,2.66,0,0,1,2.43,1.64,3.53,3.53,0,0,1-.39,2.62c-1.24,2.52-3.69,3.79-6,5.39-1.78,1.27-6,4.14-7.76,5.41a43.71,43.71,0,0,1-9.19,4.5,30.49,30.49,0,0,1-14.32,2.76,5.88,5.88,0,0,1-1.11-.21.71.71,0,0,1-.25-.11.27.27,0,0,1-.12-.23C490.11,314,490.3,314,490.42,313.89Z" transform="translate(-286.2 -46.16)"/><text class="cls-6" transform="translate(38.42 481.11)">senza scopo di luc<tspan class="cls-7" x="267.39" y="0">r</tspan><tspan x="280.72" y="0">o</tspan></text><text class="cls-8" transform="translate(384.82 189.84)">Ci <tspan class="cls-7" x="18.03" y="0">r</tspan><tspan x="24.7" y="0">endiamo conto di quanto sia importate e</tspan><tspan x="0" y="18">faticoso il lavo</tspan><tspan class="cls-7" x="108.11" y="18">r</tspan><tspan x="114.77" y="18">o dei comme</tspan><tspan class="cls-7" x="210.1" y="18">r</tspan><tspan class="cls-9" x="216.77" y="18">cianti alimentari, pe</tspan><tspan class="cls-7" x="368.19" y="18">r</tspan><tspan x="374.85" y="18">ciò, </tspan><tspan x="0" y="36">vogliamo da</tspan><tspan class="cls-10" x="91.99" y="36">r</tspan><tspan x="98.73" y="36">gli la possibilità di elimina</tspan><tspan class="cls-7" x="293.98" y="36">r</tspan><tspan x="300.64" y="36">e gli sp</tspan><tspan class="cls-7" x="352.9" y="36">r</tspan><tspan x="359.56" y="36">echi </tspan><tspan x="0" y="54">dalle lo</tspan><tspan class="cls-7" x="54.33" y="54">r</tspan><tspan x="61" y="54">o attività.</tspan></text><text class="cls-8" transform="translate(384.82 318.76)">Stiamo ce<tspan class="cls-11" x="72.9" y="0">r</tspan><tspan x="79.56" y="0">cando di aiuta</tspan><tspan class="cls-7" x="185.9" y="0">r</tspan><tspan x="192.57" y="0">e le persone bisognose,</tspan><tspan x="0" y="18">che hanno difficoltà a far arriva</tspan><tspan class="cls-11" x="236.84" y="18">r</tspan><tspan class="cls-12" x="243.51" y="18">e il cibo in tavola.</tspan><tspan x="0" y="36">E abbiamo bisogno del vost</tspan><tspan class="cls-11" x="203.86" y="36">r</tspan><tspan x="210.52" y="36">o aiuto, donando il cibo </tspan><tspan x="0" y="54">che non si riesce a vende</tspan><tspan class="cls-7" x="185.9" y="54">r</tspan><tspan x="192.57" y="54">e, possiamo </tspan><tspan class="cls-11" x="284.92" y="54">r</tspan><tspan class="cls-12" x="291.58" y="54">ende</tspan><tspan class="cls-11" x="328.66" y="54">r</tspan><tspan class="cls-12" x="335.32" y="54">e felici</tspan><tspan x="0" y="72">molte persone.</tspan></text><text class="cls-8" transform="translate(384.82 467.85)"><tspan class="cls-13">T</tspan><tspan x="8.32" y="0">utto questo completamente g</tspan><tspan class="cls-7" x="232.19" y="0">r</tspan><tspan class="cls-9" x="238.86" y="0">atuito!</tspan><tspan x="0" y="18">nessuna spesa, nessun pagamento.</tspan><tspan x="0" y="36">Solo per il bene del p</tspan><tspan class="cls-7" x="154.72" y="36">r</tspan><tspan x="161.38" y="36">ossimo e cont</tspan><tspan class="cls-7" x="264.2" y="36">r</tspan><tspan x="270.86" y="36">o gli </tspan><tspan x="0" y="54">sp</tspan><tspan class="cls-7" x="16.95" y="54">r</tspan><tspan x="23.61" y="54">echi di cibo.</tspan></text><path class="cls-14" d="M719.69,613.1a1.49,1.49,0,0,0-1.11-.38,5.19,5.19,0,0,0-1.52.33,56,56,0,0,0-6,2.41c-2.76,1.3-6.19,1.51-10.8.65l-1.17-.22a35.54,35.54,0,0,0-9.31-.94A19,19,0,0,0,676,622.71c-3.1,4.35-4.09,9.33-4.57,13.27,2.48-2.07,6-2.6,8.86-2.81,8.45-.66,16.82.26,24.92,1.15l2.62.29c3.43.39,7,.8,10.46.95a29.46,29.46,0,0,0,13.94-3,28.06,28.06,0,0,0,10.42-8.67c.32-.44.6-.9.47-1.31a1.15,1.15,0,0,0-.94-.67,3.53,3.53,0,0,0-1.43.11,15.42,15.42,0,0,0-5.41,3c-.59.43-1.19.88-1.8,1.29-5.29,3.53-12,3.83-15.46,3.7a58.17,58.17,0,0,1-8.83-.89,22.44,22.44,0,0,1-7.9-3c-1.07-.7-1.49-1.44-1.23-2.13s1.23-1.13,2-1.39c1.52-.5,3.11-.9,4.64-1.29s3.37-.85,5-1.41c2.59-.89,6-2.52,7.71-5.25.38-.62.46-1.11.25-1.45Z" transform="translate(-286.2 -46.16)"/><path class="cls-14" d="M704.16,625c-.17-.4.55-.51,1.14-.71s1.27-.42,1.93-.61a45.57,45.57,0,0,0,11.38-5.27c1.54-1,2.81-2.2,4.29-3.28a3.61,3.61,0,0,1,1.38-.73,1.25,1.25,0,0,1,1.36.52c.33.62-.09,1.38-.52,1.94a20.09,20.09,0,0,1-8.71,6.17A46.84,46.84,0,0,1,706,625.38a3.18,3.18,0,0,1-1.1-.06C704.8,625.31,704.21,625.12,704.16,625Z" transform="translate(-286.2 -46.16)"/><path class="cls-14" d="M708.06,625.94a41.23,41.23,0,0,0,6.47-.64,23.65,23.65,0,0,0,6.83-2.86,24.9,24.9,0,0,0,4.56-3.74,13.76,13.76,0,0,1,4.74-3.78,2,2,0,0,1,2.09.1,1.52,1.52,0,0,1,.23,1.58,4.12,4.12,0,0,1-1,1.38,34.9,34.9,0,0,1-9.65,7.18,22,22,0,0,1-7.41,2.33,13.28,13.28,0,0,1-7-1.16A.21.21,0,0,1,708.06,625.94Z" transform="translate(-286.2 -46.16)"/><path class="cls-14" d="M719.35,628.21c1.54-.73,3.13-1.38,4.67-2.11a22.08,22.08,0,0,0,3.76-2.19c1.4-1,2.94-1.94,4.27-3.08.89-.76,1.88-1.43,2.82-2.12a17.57,17.57,0,0,1,2.47-1.63,3.17,3.17,0,0,1,1.6-.45,1.41,1.41,0,0,1,1.31.88,1.9,1.9,0,0,1-.2,1.41c-.67,1.36-2,2.05-3.22,2.91-1,.68-3.22,2.23-4.18,2.92a24,24,0,0,1-5,2.42,16.46,16.46,0,0,1-7.72,1.49,3.16,3.16,0,0,1-.6-.11.52.52,0,0,1-.13-.06.17.17,0,0,1-.07-.13C719.18,628.29,719.28,628.24,719.35,628.21Z" transform="translate(-286.2 -46.16)"/><path class="cls-14" d="M694.93,73a1.52,1.52,0,0,0,1.11.38,4.9,4.9,0,0,0,1.52-.34,53.23,53.23,0,0,0,6-2.4c2.76-1.3,6.19-1.51,10.8-.65l1.17.22a35.54,35.54,0,0,0,9.31.94,19,19,0,0,0,13.79-7.76c3.09-4.35,4.08-9.33,4.56-13.27-2.48,2.07-6,2.6-8.86,2.81-8.45.66-16.82-.26-24.92-1.15l-2.62-.29c-3.43-.39-7-.8-10.45-1a29.48,29.48,0,0,0-14,3A28.14,28.14,0,0,0,672,62.23a1.66,1.66,0,0,0-.47,1.31,1.17,1.17,0,0,0,.94.67,3.52,3.52,0,0,0,1.43-.11,15.55,15.55,0,0,0,5.42-3c.58-.43,1.18-.88,1.8-1.29,5.29-3.53,11.95-3.83,15.46-3.7a58,58,0,0,1,8.82.89,22.24,22.24,0,0,1,7.9,3c1.07.7,1.49,1.44,1.23,2.13s-1.23,1.13-2,1.39c-1.52.5-3.1.9-4.64,1.29s-3.37.85-5,1.41c-2.59.89-6,2.52-7.71,5.25-.38.62-.46,1.11-.25,1.45Z" transform="translate(-286.2 -46.16)"/><path class="cls-14" d="M710.46,61.14c.17.4-.55.51-1.14.71s-1.27.42-1.93.61A45.57,45.57,0,0,0,696,67.73c-1.54,1-2.81,2.2-4.29,3.28a3.61,3.61,0,0,1-1.38.73,1.23,1.23,0,0,1-1.35-.52c-.34-.62.08-1.38.51-1.94a20.09,20.09,0,0,1,8.71-6.17,46.84,46.84,0,0,1,10.39-2.35,3.5,3.5,0,0,1,1.11.05C709.82,60.83,710.41,61,710.46,61.14Z" transform="translate(-286.2 -46.16)"/><path class="cls-14" d="M706.56,60.2a41.35,41.35,0,0,0-6.47.64,23.47,23.47,0,0,0-6.82,2.86,24.57,24.57,0,0,0-4.56,3.74c-1.41,1.49-2.86,3.06-4.74,3.78a2,2,0,0,1-2.1-.1,1.52,1.52,0,0,1-.23-1.58,4.27,4.27,0,0,1,1-1.38A34.9,34.9,0,0,1,692.26,61a21.86,21.86,0,0,1,7.41-2.33,13.28,13.28,0,0,1,7,1.16A.21.21,0,0,1,706.56,60.2Z" transform="translate(-286.2 -46.16)"/><path class="cls-14" d="M695.27,57.93c-1.54.73-3.13,1.38-4.67,2.11a22.08,22.08,0,0,0-3.76,2.19c-1.4,1-2.94,1.94-4.27,3.08-.89.76-1.88,1.43-2.81,2.12a18.81,18.81,0,0,1-2.47,1.63,3.24,3.24,0,0,1-1.61.45,1.41,1.41,0,0,1-1.31-.88,1.86,1.86,0,0,1,.21-1.41c.67-1.36,2-2,3.21-2.91,1-.68,3.22-2.23,4.18-2.92a24.63,24.63,0,0,1,5-2.43,16.59,16.59,0,0,1,7.72-1.48,2.9,2.9,0,0,1,.6.11.59.59,0,0,1,.14.06.16.16,0,0,1,.06.13C695.44,57.85,695.34,57.9,695.27,57.93Z" transform="translate(-286.2 -46.16)"/><line class="cls-15" x1="0.16" y1="5.06" x2="368.66" y2="5.06"/><line class="cls-15" y1="590.39" x2="368.5" y2="590.39"/><line class="cls-15" x1="473.55" y1="590.43" x2="842.05" y2="590.43"/><line class="cls-15" x1="473.55" y1="5" x2="842.05" y2="5"/><line class="cls-15" x1="5.19" y1="595.52" x2="5.19" y2="0.24"/><line class="cls-15" x1="837.29" y1="595.28" x2="837.29"/></svg>