<svg id="Livello_1" data-name="Livello 1" xmlns="http://www.w3.org/2000/svg" viewBox="0 0 842.29 595.52"><defs><style>.cls-1,.cls-4{fill:#fff;}.cls-2,.cls-5,.cls-8{fill:#33a9d9;}.cls-10,.cls-3{fill:none;stroke-miterlimit:10;}.cls-3{stroke:#1d1d1b;}.cls-4{font-size:60px;font-family:PlayfairDisplaySC-BoldItalic, Playfair Display SC;font-style:italic;}.cls-4,.cls-5,.cls-8{font-weight:700;}.cls-5{font-size:15px;}.cls-5,.cls-8{font-family:NotoSans-Bold, Noto Sans;}.cls-6{letter-spacing:0em;}.cls-7{letter-spacing:-0.01em;}.cls-8{font-size:30px;}.cls-9{fill:#2c4e9d;}.cls-10{stroke:#2c4e9d;stroke-width:10px;}</style></defs><title>fts-slide6</title><rect class="cls-1" x="5.19" y="0.66" width="832.1" height="593.92"/><rect class="cls-2" x="6.13" y="66.2" width="316.32" height="61.56" rx="21.44"/><path class="cls-3" d="M1115.73,500.21a2.84,2.84,0,0,0-2.08-.71,9.62,9.62,0,0,0-2.83.63,101.81,101.81,0,0,0-11.16,4.5c-5.13,2.44-11.54,2.83-20.15,1.24l-2.18-.41c-5.84-1.11-11.37-2.15-17.37-1.73a35.43,35.43,0,0,0-25.71,14.52c-5.78,8.12-7.6,17.41-8.5,24.76,4.63-3.87,11.23-4.85,16.54-5.27,15.76-1.23,31.39.46,46.5,2.1l4.9.54c6.4.73,13,1.47,19.5,1.74a55,55,0,0,0,26-5.59,52.36,52.36,0,0,0,19.43-16.21,3.07,3.07,0,0,0,.88-2.43,2.15,2.15,0,0,0-1.76-1.25,6.59,6.59,0,0,0-2.67.2c-3.85.94-7,3.3-10.1,5.58-1.09.81-2.21,1.65-3.36,2.41-9.86,6.59-22.3,7.17-28.84,6.93a106.39,106.39,0,0,1-16.47-1.63,41.48,41.48,0,0,1-14.76-5.59c-2-1.3-2.78-2.67-2.29-4s2.29-2.11,3.76-2.6c2.85-.94,5.8-1.69,8.66-2.41,3.09-.79,6.29-1.61,9.34-2.66,4.84-1.66,11.25-4.72,14.38-9.81.71-1.16.87-2.07.47-2.7Z" transform="translate(-369.78 -57.37)"/><path class="cls-3" d="M1086.77,522.46c-.31-.76,1-1,2.13-1.34s2.37-.78,3.6-1.14a85.34,85.34,0,0,0,21.23-9.86c2.87-1.82,5.24-4.11,8-6.13a6.93,6.93,0,0,1,2.58-1.37,2.32,2.32,0,0,1,2.53,1c.62,1.15-.15,2.58-1,3.62-4.15,5.36-10,9.11-16.24,11.54s-12.83,3.45-19.39,4.41a6.92,6.92,0,0,1-2.06-.1C1088,523,1086.87,522.68,1086.77,522.46Z" transform="translate(-369.78 -57.37)"/><path class="cls-3" d="M1094.06,524.2a77.75,77.75,0,0,0,12.07-1.21,43.9,43.9,0,0,0,12.73-5.35,47.38,47.38,0,0,0,8.5-7c2.61-2.78,5.33-5.71,8.84-7.08,1.3-.5,2.93-.79,3.91.19a2.88,2.88,0,0,1,.43,3,7.75,7.75,0,0,1-1.81,2.57,64.44,64.44,0,0,1-18,13.41,40.66,40.66,0,0,1-13.81,4.38,24.78,24.78,0,0,1-13-2.16A.38.38,0,0,1,1094.06,524.2Z" transform="translate(-369.78 -57.37)"/><path class="cls-3" d="M1115.13,528.4c2.87-1.36,5.83-2.57,8.71-3.94a42.49,42.49,0,0,0,7-4.1c2.6-1.93,5.48-3.63,8-5.76,1.65-1.41,3.5-2.66,5.24-4a35.7,35.7,0,0,1,4.61-3,6,6,0,0,1,3-.85,2.65,2.65,0,0,1,2.45,1.65,3.55,3.55,0,0,1-.38,2.63c-1.25,2.54-3.72,3.82-6,5.44-1.8,1.27-6,4.17-7.8,5.44a44.4,44.4,0,0,1-9.25,4.55,30.85,30.85,0,0,1-14.41,2.79,5.88,5.88,0,0,1-1.11-.21,1.19,1.19,0,0,1-.26-.11.27.27,0,0,1-.11-.24C1114.81,528.55,1115,528.46,1115.13,528.4Z" transform="translate(-369.78 -57.37)"/><path class="cls-3" d="M1127.17,325.34a2.87,2.87,0,0,0-2.08-.76,9.75,9.75,0,0,0-2.86.57,102.13,102.13,0,0,0-11.35,4.27c-5.24,2.34-11.7,2.59-20.34.78l-2.19-.46c-5.87-1.26-11.41-2.44-17.47-2.15a35.71,35.71,0,0,0-26.26,14c-6,8.05-8.07,17.37-9.14,24.76,4.75-3.79,11.43-4.63,16.79-4.92,15.92-.88,31.63,1.19,46.82,3.19l4.93.67c6.43.88,13.08,1.78,19.62,2.21a55.41,55.41,0,0,0,26.35-5,52.89,52.89,0,0,0,20-15.88c.61-.81,1.15-1.67.93-2.44a2.14,2.14,0,0,0-1.74-1.29,6.41,6.41,0,0,0-2.7.14c-3.9.85-7.15,3.16-10.3,5.39-1.12.78-2.27,1.6-3.44,2.34-10.1,6.42-22.65,6.71-29.24,6.32a107.59,107.59,0,0,1-16.56-2,41.84,41.84,0,0,1-14.74-6c-2-1.36-2.74-2.76-2.22-4.05s2.35-2.07,3.85-2.53c2.89-.88,5.88-1.57,8.78-2.23,3.14-.72,6.38-1.47,9.48-2.46,4.91-1.56,11.45-4.49,14.72-9.55.75-1.16.93-2.07.54-2.71A1.3,1.3,0,0,0,1127.17,325.34Z" transform="translate(-369.78 -57.37)"/><text class="cls-4" transform="translate(41.55 117.99)">IL LOGO</text><text class="cls-5" transform="translate(135.62 256.3)">Partendo dall’idea di po<tspan class="cls-6" x="178.56" y="0">r</tspan><tspan x="185.3" y="0">ge</tspan><tspan class="cls-7" x="203.66" y="0">r</tspan><tspan x="210.32" y="0">e il cibo al p</tspan><tspan class="cls-7" x="298.13" y="0">r</tspan><tspan x="304.79" y="0">ossimo, abbiamo ideato, </tspan><tspan x="0" y="18">un disegno vettoriale che </tspan><tspan class="cls-7" x="194.36" y="18">r</tspan><tspan x="201.02" y="18">app</tspan><tspan class="cls-7" x="229.06" y="18">r</tspan><tspan x="235.73" y="18">esentasse una mano,</tspan><tspan x="0" y="36">simbolo che rico</tspan><tspan class="cls-7" x="122.02" y="36">r</tspan><tspan x="128.69" y="36" xml:space="preserve">da subito il DONO.  </tspan></text><text class="cls-8" transform="translate(339.28 179)">La mano</text><text class="cls-5" transform="translate(135.62 349.01)">Ci siamo ispi<tspan class="cls-7" x="93.14" y="0">r</tspan><tspan x="99.81" y="0">ati ai classici disegni di una mano stilizzata, </tspan><tspan x="0" y="18">ma abbiamo voluto </tspan><tspan class="cls-7" x="149.23" y="18">r</tspan><tspan x="155.9" y="18">enderla nost</tspan><tspan class="cls-7" x="250.43" y="18">r</tspan><tspan x="257.09" y="18">a, personale, pertanto abbiamo </tspan><tspan x="0" y="36">cominciato a c</tspan><tspan class="cls-7" x="107.88" y="36">r</tspan><tspan x="114.54" y="36">ea</tspan><tspan class="cls-7" x="132.47" y="36">r</tspan><tspan x="139.13" y="36" xml:space="preserve">e  qualche b</tspan><tspan class="cls-6" x="228.6" y="36">o</tspan><tspan x="237.81" y="36">zzetto di</tspan><tspan class="cls-7" x="301.58" y="36">r</tspan><tspan x="308.25" y="36">ettamente su Adobe Illust</tspan><tspan class="cls-7" x="503.32" y="36">r</tspan><tspan x="509.99" y="36">ator </tspan><tspan x="0" y="54">che più rico</tspan><tspan class="cls-7" x="86.54" y="54">r</tspan><tspan x="93.21" y="54">dasse una mano che po</tspan><tspan class="cls-6" x="268.04" y="54">r</tspan><tspan x="274.78" y="54" xml:space="preserve">ge qualcosa.  </tspan></text><text class="cls-5" transform="translate(135.62 476.42)">Per da<tspan class="cls-6" x="47.54" y="0">r</tspan><tspan x="54.28" y="0">gli più dinamicità abbiamo ce</tspan><tspan class="cls-7" x="274.87" y="0">r</tspan><tspan x="281.54" y="0">cato di </tspan><tspan class="cls-7" x="335.97" y="0">r</tspan><tspan x="342.63" y="0">app</tspan><tspan class="cls-7" x="370.68" y="0">r</tspan><tspan x="377.34" y="0">esenta</tspan><tspan class="cls-7" x="427.95" y="0">r</tspan><tspan x="434.62" y="0">e le dita</tspan><tspan x="0" y="18">seguendo la stessa logica g</tspan><tspan class="cls-7" x="203.39" y="18">r</tspan><tspan x="210.06" y="18">afica. Ciò ci ha portato a questa </tspan><tspan class="cls-7" x="0" y="36">r</tspan><tspan x="6.67" y="36">app</tspan><tspan class="cls-7" x="34.71" y="36">r</tspan><tspan x="41.37" y="36">esentazione.</tspan></text><text x="-369.78" y="-57.37"/><path class="cls-9" d="M803.26,624.31a1.49,1.49,0,0,0-1.11-.38,5.19,5.19,0,0,0-1.51.33,53.41,53.41,0,0,0-6,2.41c-2.75,1.3-6.18,1.51-10.79.65l-1.17-.22a35.54,35.54,0,0,0-9.31-.94,19,19,0,0,0-13.79,7.76c-3.1,4.35-4.08,9.33-4.57,13.27,2.48-2.07,6-2.6,8.87-2.82,8.44-.65,16.82.27,24.91,1.16l2.63.29c3.43.39,7,.8,10.45.95a29.48,29.48,0,0,0,14-3,28.07,28.07,0,0,0,10.42-8.68,1.63,1.63,0,0,0,.47-1.3,1.17,1.17,0,0,0-.94-.67,3.52,3.52,0,0,0-1.43.11,15.46,15.46,0,0,0-5.42,3c-.58.43-1.19.88-1.8,1.29-5.29,3.53-12,3.83-15.46,3.7a58,58,0,0,1-8.82-.89,22.49,22.49,0,0,1-7.91-3c-1.06-.7-1.48-1.44-1.22-2.13s1.22-1.13,2-1.39c1.53-.5,3.11-.9,4.64-1.29s3.38-.85,5-1.41c2.59-.89,6-2.52,7.71-5.25.39-.62.47-1.11.25-1.45A.35.35,0,0,0,803.26,624.31Z" transform="translate(-369.78 -57.37)"/><path class="cls-9" d="M787.74,636.21c-.17-.4.55-.51,1.14-.71s1.27-.42,1.93-.61a45.57,45.57,0,0,0,11.38-5.27c1.54-1,2.81-2.2,4.28-3.28a3.65,3.65,0,0,1,1.39-.73,1.23,1.23,0,0,1,1.35.52c.33.62-.08,1.38-.52,1.94a20.08,20.08,0,0,1-8.7,6.17,46.79,46.79,0,0,1-10.4,2.35,3.2,3.2,0,0,1-1.1-.06C788.37,636.52,787.79,636.33,787.74,636.21Z" transform="translate(-369.78 -57.37)"/><path class="cls-9" d="M791.64,637.15a41.47,41.47,0,0,0,6.47-.64,23.59,23.59,0,0,0,6.82-2.86,24.9,24.9,0,0,0,4.56-3.74,13.76,13.76,0,0,1,4.74-3.78,2,2,0,0,1,2.1.1,1.54,1.54,0,0,1,.23,1.58,4.43,4.43,0,0,1-1,1.38,35,35,0,0,1-9.66,7.18,22,22,0,0,1-7.4,2.33,13.25,13.25,0,0,1-7-1.16A.21.21,0,0,1,791.64,637.15Z" transform="translate(-369.78 -57.37)"/><path class="cls-9" d="M802.92,639.42c1.55-.73,3.13-1.38,4.68-2.11a22.08,22.08,0,0,0,3.76-2.19c1.39-1,2.94-1.94,4.27-3.08.88-.76,1.88-1.43,2.81-2.12a18.81,18.81,0,0,1,2.47-1.63,3.21,3.21,0,0,1,1.61-.45,1.41,1.41,0,0,1,1.31.88,1.9,1.9,0,0,1-.21,1.41c-.67,1.36-2,2-3.21,2.91L816.22,636a23.37,23.37,0,0,1-5,2.43,16.42,16.42,0,0,1-7.72,1.49,2.93,2.93,0,0,1-.59-.11.59.59,0,0,1-.14-.06.14.14,0,0,1-.06-.13C802.76,639.5,802.86,639.45,802.92,639.42Z" transform="translate(-369.78 -57.37)"/><path class="cls-9" d="M778.51,84.25a1.49,1.49,0,0,0,1.11.38,4.9,4.9,0,0,0,1.52-.34,54,54,0,0,0,6-2.4c2.75-1.3,6.18-1.51,10.8-.65l1.16.22a35.62,35.62,0,0,0,9.31.94,19,19,0,0,0,13.79-7.76c3.1-4.35,4.08-9.33,4.57-13.27-2.48,2.07-6,2.6-8.87,2.81-8.44.65-16.81-.26-24.91-1.15l-2.63-.29c-3.43-.39-7-.8-10.45-1a29.44,29.44,0,0,0-13.94,3,28.18,28.18,0,0,0-10.43,8.67,1.7,1.7,0,0,0-.47,1.31,1.17,1.17,0,0,0,.94.67,3.56,3.56,0,0,0,1.44-.11,15.5,15.5,0,0,0,5.41-3c.58-.43,1.19-.88,1.8-1.29,5.29-3.53,12-3.83,15.46-3.7a58.17,58.17,0,0,1,8.83.89,22.24,22.24,0,0,1,7.9,3c1.06.7,1.49,1.44,1.22,2.13s-1.22,1.13-2,1.39c-1.53.5-3.11.9-4.64,1.29s-3.38.85-5,1.41c-2.59.89-6,2.52-7.71,5.25-.38.62-.47,1.11-.25,1.45Z" transform="translate(-369.78 -57.37)"/><path class="cls-9" d="M794,72.35c.16.4-.56.51-1.14.71s-1.28.42-1.93.61a45.25,45.25,0,0,0-11.38,5.27c-1.55,1-2.82,2.2-4.29,3.28a3.68,3.68,0,0,1-1.38.73,1.25,1.25,0,0,1-1.36-.52c-.33-.62.08-1.38.52-1.94a20,20,0,0,1,8.71-6.17A46.71,46.71,0,0,1,792.18,72a3.44,3.44,0,0,1,1.1,0C793.4,72,794,72.23,794,72.35Z" transform="translate(-369.78 -57.37)"/><path class="cls-9" d="M790.13,71.41a41.22,41.22,0,0,0-6.46.64,23.37,23.37,0,0,0-6.83,2.86,24.9,24.9,0,0,0-4.56,3.74c-1.4,1.48-2.86,3.06-4.74,3.78a2,2,0,0,1-2.09-.1,1.54,1.54,0,0,1-.24-1.58,4.31,4.31,0,0,1,1-1.38,35,35,0,0,1,9.66-7.18,21.79,21.79,0,0,1,7.41-2.33,13.28,13.28,0,0,1,7,1.16A.21.21,0,0,1,790.13,71.41Z" transform="translate(-369.78 -57.37)"/><path class="cls-9" d="M778.85,69.14c-1.55.73-3.13,1.38-4.67,2.11a22.17,22.17,0,0,0-3.77,2.19c-1.39,1-2.94,1.94-4.27,3.08-.88.76-1.87,1.43-2.81,2.12a17.57,17.57,0,0,1-2.47,1.63,3.21,3.21,0,0,1-1.61.45,1.43,1.43,0,0,1-1.31-.88,1.9,1.9,0,0,1,.21-1.41c.67-1.36,2-2.05,3.21-2.91,1-.68,3.22-2.23,4.19-2.92a23.86,23.86,0,0,1,5-2.43,16.56,16.56,0,0,1,7.72-1.48,3.16,3.16,0,0,1,.6.11.75.75,0,0,1,.13.06A.14.14,0,0,1,779,69C779,69.06,778.92,69.11,778.85,69.14Z" transform="translate(-369.78 -57.37)"/><line class="cls-10" x1="0.16" y1="5.06" x2="368.66" y2="5.06"/><line class="cls-10" y1="590.39" x2="368.5" y2="590.39"/><line class="cls-10" x1="473.55" y1="590.43" x2="842.05" y2="590.43"/><line class="cls-10" x1="473.55" y1="5" x2="842.05" y2="5"/><line class="cls-10" x1="5.19" y1="595.52" x2="5.19" y2="0.24"/><line class="cls-10" x1="837.29" y1="595.28" x2="837.29"/></svg>