<svg id="Livello_1" data-name="Livello 1" xmlns="http://www.w3.org/2000/svg" viewBox="0 0 842.29 595.52"><defs><style>.cls-1{fill:#fff;}.cls-2{font-size:30px;}.cls-2,.cls-3{fill:#33a9d9;font-family:NotoSans-Bold, Noto Sans;font-weight:700;}.cls-3{font-size:15px;}.cls-4{letter-spacing:-0.01em;}.cls-5{letter-spacing:-0.01em;}.cls-6{letter-spacing:0em;}.cls-7{letter-spacing:-0.01em;}.cls-8{fill:#2c4e9d;}.cls-9{letter-spacing:0em;}.cls-10{letter-spacing:0em;}.cls-11{fill:none;stroke:#2c4e9d;stroke-miterlimit:10;stroke-width:10px;}</style></defs><title>fts-slide9</title><rect class="cls-1" x="5.19" y="0.24" width="832.1" height="593.12"/><text class="cls-2" transform="translate(346.46 151.23)">Il payoff</text><text class="cls-3" transform="translate(124.69 217.79)"><tspan class="cls-4">V</tspan><tspan x="9.6" y="0">ol</tspan><tspan class="cls-4" x="23.47" y="0">e</tspan><tspan x="32.18" y="0">vamo riassume</tspan><tspan class="cls-4" x="146.5" y="0">r</tspan><tspan x="153.16" y="0">e il concetto fondamentale dell’app, e quindi ci serviva un Payoff</tspan><tspan x="0" y="18">d’effetto, che </tspan><tspan class="cls-5" x="104.74" y="18">r</tspan><tspan class="cls-6" x="111.41" y="18">acchiudesse nel miglior modo possibile le fondamenta della nost</tspan><tspan class="cls-4" x="595.06" y="18">r</tspan><tspan class="cls-6" x="601.73" y="18">a</tspan><tspan x="0" y="36">idea. Abbiamo la necessità di far capi</tspan><tspan class="cls-4" x="277.22" y="36">r</tspan><tspan x="283.89" y="36">e subito la nost</tspan><tspan class="cls-7" x="398.37" y="36">r</tspan><tspan x="405.04" y="36">a missione, quindi ce</tspan><tspan class="cls-4" x="561.37" y="36">r</tspan><tspan x="568.04" y="36">cato di </tspan><tspan class="cls-4" x="0" y="54">r</tspan><tspan x="6.67" y="54">acchiude</tspan><tspan class="cls-4" x="73.8" y="54">r</tspan><tspan x="80.46" y="54">e il significato della nost</tspan><tspan class="cls-7" x="262.67" y="54">r</tspan><tspan x="269.33" y="54">a idea in un unica f</tspan><tspan class="cls-5" x="410.9" y="54">r</tspan><tspan class="cls-6" x="417.56" y="54" xml:space="preserve">ase.  </tspan></text><text class="cls-2" transform="translate(124.69 354.22)"><tspan xml:space="preserve">A little piece of food   </tspan><tspan class="cls-8" x="323.44" y="0">For a big smile</tspan></text><text class="cls-3" transform="translate(124.69 426.42)">Questo ci ha portati ad una f<tspan class="cls-7" x="213.89" y="0">r</tspan><tspan x="220.55" y="0">ase b</tspan><tspan class="cls-4" x="259.32" y="0">re</tspan><tspan class="cls-9" x="274.7" y="0">ve ma d’impatto che sintetizzava al meglio </tspan><tspan x="0" y="18">il nost</tspan><tspan class="cls-7" x="46.16" y="18">r</tspan><tspan x="52.83" y="18">o compito. Pe</tspan><tspan class="cls-7" x="154.06" y="18">r</tspan><tspan x="160.73" y="18">chè basta un piccolo p</tspan><tspan class="cls-10" x="326.18" y="18">e</tspan><tspan x="334.97" y="18">zzo di cibo per un g</tspan><tspan class="cls-4" x="477.89" y="18">r</tspan><tspan x="484.56" y="18">ande sorriso.</tspan></text><path class="cls-8" d="M754.49,619.18a1.49,1.49,0,0,0-1.11-.38,5.19,5.19,0,0,0-1.52.33,56,56,0,0,0-6,2.4c-2.75,1.31-6.19,1.52-10.8.66l-1.17-.22a35.08,35.08,0,0,0-9.3-.94,19,19,0,0,0-13.79,7.76c-3.1,4.35-4.09,9.33-4.57,13.26,2.48-2.07,6-2.59,8.86-2.81,8.45-.65,16.82.27,24.92,1.15l2.63.3c3.43.39,7,.8,10.45.94a29.46,29.46,0,0,0,13.94-3A28,28,0,0,0,777.48,630c.31-.43.59-.9.46-1.3A1.1,1.1,0,0,0,777,628a3.39,3.39,0,0,0-1.44.11,15.5,15.5,0,0,0-5.41,3c-.59.43-1.19.88-1.8,1.29-5.29,3.52-12,3.83-15.46,3.69a56.85,56.85,0,0,1-8.83-.88,22.25,22.25,0,0,1-7.9-3c-1.06-.69-1.49-1.43-1.22-2.12s1.22-1.13,2-1.39c1.52-.5,3.11-.9,4.64-1.29s3.37-.85,5-1.42c2.59-.88,6-2.52,7.71-5.25.38-.62.47-1.1.25-1.44A.39.39,0,0,0,754.49,619.18Z" transform="translate(-321.01 -52.24)"/><path class="cls-8" d="M739,631.08c-.17-.4.55-.51,1.14-.71s1.27-.42,1.93-.61a45.61,45.61,0,0,0,11.38-5.28c1.54-1,2.81-2.2,4.29-3.27a3.86,3.86,0,0,1,1.38-.74,1.25,1.25,0,0,1,1.36.53c.33.61-.08,1.38-.52,1.94a20.17,20.17,0,0,1-8.71,6.17,46.71,46.71,0,0,1-10.39,2.35,3.76,3.76,0,0,1-1.1-.06C739.6,631.39,739,631.2,739,631.08Z" transform="translate(-321.01 -52.24)"/><path class="cls-8" d="M742.86,632a41.23,41.23,0,0,0,6.47-.64,23.65,23.65,0,0,0,6.83-2.86,25.32,25.32,0,0,0,4.56-3.74,13.91,13.91,0,0,1,4.74-3.79,2,2,0,0,1,2.09.11,1.52,1.52,0,0,1,.23,1.58,4.12,4.12,0,0,1-1,1.38,34.52,34.52,0,0,1-9.65,7.17,21.81,21.81,0,0,1-7.41,2.34,13.38,13.38,0,0,1-7-1.16A.21.21,0,0,1,742.86,632Z" transform="translate(-321.01 -52.24)"/><path class="cls-8" d="M754.15,634.28c1.54-.73,3.13-1.37,4.67-2.1a23.33,23.33,0,0,0,3.77-2.2c1.39-1,2.93-1.93,4.27-3.08.88-.75,1.87-1.42,2.81-2.11a17.57,17.57,0,0,1,2.47-1.63,3.32,3.32,0,0,1,1.6-.46,1.46,1.46,0,0,1,1.32.89,2,2,0,0,1-.21,1.41c-.67,1.36-2,2-3.22,2.91-1,.68-3.22,2.23-4.18,2.91a23.37,23.37,0,0,1-5,2.43,16.46,16.46,0,0,1-7.72,1.49,2.55,2.55,0,0,1-.6-.12.29.29,0,0,1-.13,0,.17.17,0,0,1-.07-.13C754,634.36,754.08,634.32,754.15,634.28Z" transform="translate(-321.01 -52.24)"/><path class="cls-8" d="M729.73,79.12a1.58,1.58,0,0,0,1.12.38,5.22,5.22,0,0,0,1.51-.34,53.23,53.23,0,0,0,6-2.4c2.76-1.3,6.19-1.51,10.8-.65l1.17.22a35.11,35.11,0,0,0,9.31.93,19,19,0,0,0,13.79-7.76c3.09-4.34,4.08-9.32,4.56-13.26-2.48,2.07-6,2.59-8.86,2.81-8.45.65-16.82-.26-24.91-1.15l-2.63-.3c-3.43-.39-7-.79-10.45-.94a29.48,29.48,0,0,0-14,3,28.14,28.14,0,0,0-10.42,8.67,1.66,1.66,0,0,0-.47,1.31,1.17,1.17,0,0,0,.94.67,3.52,3.52,0,0,0,1.43-.11,15.46,15.46,0,0,0,5.42-3c.58-.44,1.19-.88,1.8-1.29,5.29-3.53,12-3.83,15.46-3.7a56.8,56.8,0,0,1,8.82.89,22.19,22.19,0,0,1,7.91,3c1.06.7,1.48,1.44,1.22,2.13s-1.22,1.12-2,1.38c-1.52.51-3.1.91-4.63,1.29s-3.38.86-5,1.42c-2.59.89-6,2.52-7.7,5.25-.39.62-.47,1.11-.26,1.44Z" transform="translate(-321.01 -52.24)"/><path class="cls-8" d="M745.26,67.21c.17.41-.55.52-1.14.72s-1.27.41-1.93.61a45.57,45.57,0,0,0-11.38,5.27c-1.54,1-2.81,2.2-4.28,3.28a3.87,3.87,0,0,1-1.39.73,1.23,1.23,0,0,1-1.35-.52c-.33-.62.08-1.38.51-1.94A20.19,20.19,0,0,1,733,69.18a47.38,47.38,0,0,1,10.39-2.34,3.5,3.5,0,0,1,1.11,0A2,2,0,0,1,745.26,67.21Z" transform="translate(-321.01 -52.24)"/><path class="cls-8" d="M741.36,66.28a42.7,42.7,0,0,0-6.47.63,23.5,23.5,0,0,0-6.82,2.87,24.57,24.57,0,0,0-4.56,3.74c-1.41,1.48-2.86,3-4.74,3.78a2,2,0,0,1-2.1-.1,1.56,1.56,0,0,1-.23-1.59,4.23,4.23,0,0,1,1-1.37,34.6,34.6,0,0,1,9.66-7.18,21.52,21.52,0,0,1,7.4-2.33,13.19,13.19,0,0,1,7,1.16A.21.21,0,0,1,741.36,66.28Z" transform="translate(-321.01 -52.24)"/><path class="cls-8" d="M730.07,64c-1.54.73-3.12,1.38-4.67,2.11a22.08,22.08,0,0,0-3.76,2.19c-1.39,1-2.94,1.94-4.27,3.08-.89.76-1.88,1.43-2.81,2.12a21.07,21.07,0,0,1-2.47,1.63,3.21,3.21,0,0,1-1.61.45,1.41,1.41,0,0,1-1.31-.88,1.85,1.85,0,0,1,.21-1.41c.67-1.36,2-2,3.21-2.91,1-.69,3.22-2.24,4.18-2.92a24.11,24.11,0,0,1,5-2.43,16.46,16.46,0,0,1,7.72-1.48,2.9,2.9,0,0,1,.6.11.35.35,0,0,1,.14.06.14.14,0,0,1,.06.13C730.24,63.93,730.14,64,730.07,64Z" transform="translate(-321.01 -52.24)"/><line class="cls-11" x1="0.16" y1="5.06" x2="368.66" y2="5.06"/><line class="cls-11" y1="590.39" x2="368.5" y2="590.39"/><line class="cls-11" x1="473.55" y1="590.43" x2="842.05" y2="590.43"/><line class="cls-11" x1="473.55" y1="5" x2="842.05" y2="5"/><line class="cls-11" x1="5.19" y1="595.52" x2="5.19" y2="0.24"/><line class="cls-11" x1="837.29" y1="595.28" x2="837.29"/></svg>