<svg id="Livello_1" data-name="Livello 1" xmlns="http://www.w3.org/2000/svg" viewBox="0 0 842.29 595.52"><defs><style>.cls-1,.cls-3{fill:#fff;}.cls-12,.cls-13,.cls-2,.cls-4,.cls-7{fill:#33a9d9;}.cls-11,.cls-3{font-size:60px;font-family:PlayfairDisplaySC-BoldItalic, Playfair Display SC;font-style:italic;}.cls-11,.cls-3,.cls-4,.cls-6,.cls-7{font-weight:700;}.cls-4{font-size:30px;}.cls-4,.cls-6,.cls-7{font-family:NotoSans-Bold, Noto Sans;}.cls-5{letter-spacing:-0.01em;}.cls-6,.cls-7{font-size:15px;}.cls-6{fill:#1d1d1b;}.cls-8{letter-spacing:-0.01em;}.cls-9{letter-spacing:0em;}.cls-10{letter-spacing:0em;}.cls-11,.cls-16{fill:#2c4e9d;}.cls-12{letter-spacing:-0.01em;}.cls-13{letter-spacing:0em;}.cls-14{letter-spacing:0em;}.cls-15{letter-spacing:-0.01em;}.cls-17{fill:none;stroke:#2c4e9d;stroke-miterlimit:10;stroke-width:10px;}</style></defs><title>fts-slide3</title><rect class="cls-1" x="5.19" y="1.06" width="832.1" height="592.43"/><rect class="cls-2" x="5.19" y="69.28" width="316.32" height="61.56" rx="21.44"/><text class="cls-3" transform="translate(38.13 120.84)">Naming</text><text class="cls-4" transform="translate(237.26 191.54)">Il nome che ci <tspan class="cls-5" x="214.92" y="0">r</tspan><tspan x="228.25" y="0">app</tspan><tspan class="cls-5" x="284.34" y="0">r</tspan><tspan x="297.67" y="0">esenta</tspan></text><text class="cls-6" transform="translate(290.36 303.36)"> </text><text class="cls-7" transform="translate(274.4 246.25)">Abbiamo ce<tspan class="cls-8" x="87.46" y="0">r</tspan><tspan class="cls-9" x="94.12" y="0">cato un nome che si abbinasse</tspan><tspan x="0" y="18">perfettamente allo scopo della nost</tspan><tspan class="cls-5" x="266.75" y="18">r</tspan><tspan class="cls-10" x="273.41" y="18">a app</tspan><tspan x="0" y="36">e all’obiettivo che vogliamo </tspan><tspan class="cls-5" x="211.3" y="36">r</tspan><tspan x="217.97" y="36">aggiunge</tspan><tspan class="cls-5" x="288.66" y="36">r</tspan><tspan x="295.33" y="36">e</tspan></text><text x="-306.4" y="-49.02"/><text class="cls-11" transform="translate(200.9 400.65)">food<tspan class="cls-12" x="175.62" y="0">t</tspan><tspan class="cls-13" x="215.46" y="0">o</tspan><tspan class="cls-14" x="262.2" y="0">smile</tspan></text><text class="cls-7" transform="translate(316.47 328.69)">per questo abbiamo scelto</text><text x="-306.4" y="-49.02"/><text class="cls-7" transform="translate(133.06 428.07)">“cibo per sorride<tspan class="cls-5" x="125.77" y="0">r</tspan><tspan x="132.44" y="0">e”</tspan></text><text class="cls-7" transform="translate(280.4 453.5)">ed è p<tspan class="cls-5" x="44.5" y="0">r</tspan><tspan x="51.17" y="0">oprio quello che vogliamo, </tspan><tspan class="cls-8" x="253.19" y="0">r</tspan><tspan class="cls-9" x="259.86" y="0">egala</tspan><tspan class="cls-5" x="300.91" y="0">r</tspan><tspan x="307.57" y="0">e</tspan><tspan x="0" y="18">sorrisi con il cibo.</tspan><tspan x="0" y="54">Pe</tspan><tspan class="cls-5" x="18.28" y="54">r</tspan><tspan x="24.95" y="54">chè un </tspan><tspan class="cls-15" x="78.89" y="54">r</tspan><tspan class="cls-10" x="85.55" y="54">egalo inaspettato fa semp</tspan><tspan class="cls-5" x="281.12" y="54">r</tspan><tspan x="287.78" y="54">e </tspan><tspan class="cls-16"><tspan x="0" y="72">SORRIDERE</tspan></tspan></text><path class="cls-16" d="M739.88,616a1.49,1.49,0,0,0-1.11-.38,4.9,4.9,0,0,0-1.52.34,54,54,0,0,0-6,2.4c-2.75,1.3-6.19,1.51-10.8.65l-1.17-.22a35.5,35.5,0,0,0-9.3-.94,19,19,0,0,0-13.79,7.76c-3.1,4.35-4.09,9.33-4.57,13.27,2.48-2.07,6-2.6,8.86-2.81,8.45-.66,16.82.26,24.92,1.15l2.63.29c3.43.39,7,.8,10.45.95a29.46,29.46,0,0,0,13.94-3,28.18,28.18,0,0,0,10.43-8.67c.31-.44.59-.9.46-1.31a1.14,1.14,0,0,0-.93-.67,3.56,3.56,0,0,0-1.44.11,15.5,15.5,0,0,0-5.41,3c-.59.43-1.19.88-1.8,1.29-5.29,3.53-12,3.83-15.46,3.7a58.17,58.17,0,0,1-8.83-.89,22.24,22.24,0,0,1-7.9-3c-1.06-.7-1.49-1.44-1.22-2.13s1.22-1.13,2-1.39c1.52-.5,3.11-.9,4.64-1.29s3.37-.85,5-1.41c2.59-.89,6-2.52,7.71-5.25.38-.62.47-1.11.25-1.45Z" transform="translate(-306.4 -49.02)"/><path class="cls-16" d="M724.35,627.86c-.17-.4.55-.51,1.14-.71s1.27-.42,1.93-.61a45.57,45.57,0,0,0,11.38-5.27c1.54-1,2.81-2.2,4.29-3.28a3.68,3.68,0,0,1,1.38-.73,1.25,1.25,0,0,1,1.36.52c.33.62-.08,1.38-.52,1.94a20.09,20.09,0,0,1-8.71,6.17,46.71,46.71,0,0,1-10.39,2.35,3.43,3.43,0,0,1-1.1,0C725,628.17,724.4,628,724.35,627.86Z" transform="translate(-306.4 -49.02)"/><path class="cls-16" d="M728.25,628.8a41.23,41.23,0,0,0,6.47-.64,23.65,23.65,0,0,0,6.83-2.86,24.9,24.9,0,0,0,4.56-3.74,13.76,13.76,0,0,1,4.74-3.78,2,2,0,0,1,2.09.1,1.52,1.52,0,0,1,.23,1.58,4.12,4.12,0,0,1-1,1.38,34.75,34.75,0,0,1-9.65,7.18,21.79,21.79,0,0,1-7.41,2.33,13.28,13.28,0,0,1-7-1.16A.21.21,0,0,1,728.25,628.8Z" transform="translate(-306.4 -49.02)"/><path class="cls-16" d="M739.54,631.07c1.54-.73,3.13-1.38,4.67-2.11a22.56,22.56,0,0,0,3.77-2.19c1.39-1,2.93-1.94,4.27-3.08.88-.76,1.87-1.43,2.81-2.12a17.57,17.57,0,0,1,2.47-1.63,3.2,3.2,0,0,1,1.6-.45,1.43,1.43,0,0,1,1.32.88,2,2,0,0,1-.21,1.41c-.67,1.36-2,2.05-3.22,2.91-1,.68-3.22,2.23-4.18,2.92a23.86,23.86,0,0,1-5,2.43,16.59,16.59,0,0,1-7.72,1.48,3.16,3.16,0,0,1-.6-.11.52.52,0,0,1-.13-.06.17.17,0,0,1-.07-.13C739.37,631.15,739.47,631.1,739.54,631.07Z" transform="translate(-306.4 -49.02)"/><path class="cls-16" d="M715.12,75.9a1.53,1.53,0,0,0,1.12.38,5.19,5.19,0,0,0,1.51-.33,55.2,55.2,0,0,0,6-2.41c2.76-1.3,6.19-1.51,10.8-.65l1.17.22a35.54,35.54,0,0,0,9.31.94,19,19,0,0,0,13.79-7.76c3.09-4.35,4.08-9.33,4.56-13.27-2.48,2.07-6,2.6-8.86,2.81-8.45.66-16.82-.26-24.91-1.15L727,54.39c-3.43-.39-7-.8-10.45-1a29.48,29.48,0,0,0-14,3,28.14,28.14,0,0,0-10.42,8.67,1.66,1.66,0,0,0-.47,1.31,1.17,1.17,0,0,0,.94.67A3.52,3.52,0,0,0,694,67a15.46,15.46,0,0,0,5.42-3c.58-.43,1.19-.88,1.8-1.29,5.29-3.53,12-3.83,15.46-3.7a58,58,0,0,1,8.82.89,22.57,22.57,0,0,1,7.91,3c1.06.7,1.48,1.44,1.22,2.13s-1.22,1.13-2,1.39c-1.52.5-3.1.9-4.63,1.29s-3.38.85-5,1.41c-2.59.89-6,2.52-7.7,5.25-.39.62-.47,1.11-.26,1.45Z" transform="translate(-306.4 -49.02)"/><path class="cls-16" d="M730.65,64c.17.4-.55.51-1.14.71s-1.27.42-1.93.61a45.57,45.57,0,0,0-11.38,5.27c-1.54,1-2.81,2.2-4.28,3.28a3.72,3.72,0,0,1-1.39.73,1.23,1.23,0,0,1-1.35-.52c-.33-.62.08-1.38.51-1.94A20.09,20.09,0,0,1,718.4,66a46.84,46.84,0,0,1,10.39-2.35,3.25,3.25,0,0,1,1.11.06C730,63.69,730.6,63.88,730.65,64Z" transform="translate(-306.4 -49.02)"/><path class="cls-16" d="M726.75,63.06a41.47,41.47,0,0,0-6.47.64,23.59,23.59,0,0,0-6.82,2.86,24.57,24.57,0,0,0-4.56,3.74c-1.41,1.49-2.86,3.06-4.74,3.78a2,2,0,0,1-2.1-.1,1.54,1.54,0,0,1-.23-1.58,4.27,4.27,0,0,1,1-1.38,34.8,34.8,0,0,1,9.66-7.18,22,22,0,0,1,7.4-2.33,13.28,13.28,0,0,1,7,1.16A.21.21,0,0,1,726.75,63.06Z" transform="translate(-306.4 -49.02)"/><path class="cls-16" d="M715.46,60.79c-1.54.73-3.12,1.38-4.67,2.11A22.08,22.08,0,0,0,707,65.09c-1.39,1-2.94,1.94-4.27,3.08-.88.76-1.88,1.43-2.81,2.12a18.81,18.81,0,0,1-2.47,1.63,3.21,3.21,0,0,1-1.61.45,1.41,1.41,0,0,1-1.31-.88,1.86,1.86,0,0,1,.21-1.41c.67-1.36,2-2,3.21-2.91,1-.68,3.22-2.23,4.19-2.92a23.74,23.74,0,0,1,5-2.42,16.46,16.46,0,0,1,7.72-1.49,2.9,2.9,0,0,1,.6.11.59.59,0,0,1,.14.06.14.14,0,0,1,.06.13C715.63,60.71,715.53,60.76,715.46,60.79Z" transform="translate(-306.4 -49.02)"/><line class="cls-17" x1="0.16" y1="5.06" x2="368.66" y2="5.06"/><line class="cls-17" y1="590.39" x2="368.5" y2="590.39"/><line class="cls-17" x1="473.55" y1="590.43" x2="842.05" y2="590.43"/><line class="cls-17" x1="473.55" y1="5" x2="842.05" y2="5"/><line class="cls-17" x1="5.19" y1="595.52" x2="5.19" y2="0.24"/><line class="cls-17" x1="837.29" y1="595.28" x2="837.29"/></svg>