<svg id="Livello_1" data-name="Livello 1" xmlns="http://www.w3.org/2000/svg" viewBox="0 0 842.29 595.52"><defs><style>.cls-1,.cls-3{fill:#fff;}.cls-2,.cls-6{fill:#33a9d9;}.cls-3{font-size:30px;}.cls-3,.cls-6{font-family:NotoSans-Bold, Noto Sans;font-weight:700;}.cls-4{letter-spacing:-0.01em;}.cls-5,.cls-7,.cls-9{fill:none;stroke-miterlimit:10;}.cls-5{stroke:#33a9d9;}.cls-6{font-size:22.54px;}.cls-7{stroke:#fff;stroke-width:7px;}.cls-8{fill:#2c4e9d;}.cls-9{stroke:#2c4e9d;stroke-width:10px;}</style></defs><title>fts-slide11</title><rect class="cls-1" x="5.19" y="0.18" width="832.1" height="594.38"/><rect class="cls-2" x="195.88" y="355.84" width="216.47" height="42.93" rx="12"/><circle class="cls-2" cx="304.12" cy="305.79" r="41.7"/><path class="cls-1" d="M610.61,334.24a6.63,6.63,0,0,1,0,.89,5.34,5.34,0,0,1-2.07,4L603,343.3l-24.86,18.34c-2.55,1.89-6.49.92-8.74-2.13s-2-7.11.53-9l24.58-18.13,5.88-4.34a5.53,5.53,0,0,1,5.33-.52Z" transform="translate(-294.79 -31.48)"/><path class="cls-1" d="M624.73,339.81a17.62,17.62,0,1,1-2.18-29.72l-16.46,12.14,9,12.22,16.46-12.14A17.62,17.62,0,0,1,624.73,339.81Z" transform="translate(-294.79 -31.48)"/><circle class="cls-2" cx="278.32" cy="325.26" r="2.22"/><rect class="cls-2" x="583.62" y="335.12" width="5.39" height="23.36" rx="2.69" transform="translate(224.12 -362.53) rotate(53.72)"/><text class="cls-3" transform="translate(207.6 384.25)">impostazioni</text><rect class="cls-2" x="645.33" y="160.09" width="157.2" height="74.71" rx="12"/><circle class="cls-2" cx="720.46" cy="103.85" r="41.7"/><path class="cls-1" d="M1011.42,108.3l.93,1.41-19.47,12.74L992,121c-2.32-3.54-1.81-8,1.13-9.92l8.79-5.75C1004.81,103.44,1009.1,104.75,1011.42,108.3Z" transform="translate(-294.79 -31.48)"/><rect class="cls-1" x="1005.16" y="120.29" width="3.95" height="40.68" rx="1.91" transform="translate(-207.41 542.9) rotate(-33.2)"/><rect class="cls-1" x="1021.21" y="109.35" width="3.95" height="41.08" rx="1.91" transform="translate(-198.91 549.94) rotate(-33.2)"/><rect class="cls-1" x="1011.23" y="114.54" width="8.02" height="41.08" rx="3.88" transform="translate(-203.05 546.44) rotate(-33.2)"/><polygon class="cls-1" points="742.16 115.83 740.1 133.93 722.69 128.57 742.16 115.83"/><text class="cls-3" transform="translate(653.73 186.39)">p<tspan class="cls-4" x="18.98" y="0">r</tspan><tspan x="32.31" y="0">enota </tspan><tspan x="0" y="36">annuncio</tspan></text><rect class="cls-2" x="37.5" y="162.45" width="159.31" height="73.35" rx="12"/><circle class="cls-2" cx="117.16" cy="102.76" r="41.7"/><path class="cls-1" d="M394.67,120.63v.93l-12.78,0v-.93c0-2.33,1.58-4.22,3.51-4.21h5.77C393.1,116.41,394.68,118.31,394.67,120.63Z" transform="translate(-294.79 -31.48)"/><rect class="cls-1" x="381.87" y="123.01" width="2.17" height="22.35" rx="1.08" transform="translate(-294.54 -32.17) rotate(0.1)"/><rect class="cls-1" x="392.48" y="122.81" width="2.17" height="22.57" rx="1.08" transform="translate(-294.54 -32.19) rotate(0.1)"/><rect class="cls-1" x="386.14" y="122.8" width="4.41" height="22.57" rx="2.2" transform="translate(-294.54 -32.18) rotate(0.1)"/><polygon class="cls-1" points="99.84 114.77 93.43 122.46 87.06 114.75 99.84 114.77"/><polygon class="cls-1" points="139.45 88.29 139.45 122.46 103.81 122.46 103.81 80.52 130.76 80.52 139.45 88.29"/><polygon class="cls-2" points="139.45 88.29 130.76 88.29 130.76 80.52 139.45 88.29"/><line class="cls-5" x1="107.08" y1="88.62" x2="121.11" y2="88.62"/><line class="cls-5" x1="107.08" y1="91.2" x2="121.11" y2="91.2"/><line class="cls-5" x1="107.16" y1="114.75" x2="124.01" y2="114.75"/><line class="cls-5" x1="107.16" y1="98.88" x2="132.31" y2="98.88"/><line class="cls-5" x1="107.16" y1="102.71" x2="127.15" y2="102.71"/><line class="cls-5" x1="107.16" y1="106.55" x2="132.31" y2="106.55"/><text class="cls-3" transform="translate(45.18 188.07)">aggiungi <tspan x="0" y="36">annuncio</tspan></text><rect class="cls-2" x="503.59" y="359.44" width="150.72" height="38.55" rx="12"/><circle class="cls-2" cx="578.94" cy="306.57" r="41.7"/><path class="cls-1" d="M845.46,339.1c-3.26-2.79-5.22-6.32-5.22-10.16,0-9,10.71-16.31,23.93-16.31s23.92,7.3,23.92,16.31-10.71,16.31-23.92,16.31a31.69,31.69,0,0,1-14.43-3.3c-.18.11-6.36,4.32-3.79,8.41l-2.1-3.32a6.31,6.31,0,0,1-.93-4.32C843.14,341.23,843.79,339.59,845.46,339.1Z" transform="translate(-294.79 -31.48)"/><path class="cls-1" d="M904.14,340.38a10.62,10.62,0,0,1,4.12,8c0,7.12-8.46,12.88-18.89,12.88s-18.89-5.76-18.89-12.88,8.46-12.88,18.89-12.88a25.12,25.12,0,0,1,11.4,2.61c.13-.09,5-3.41,3-6.64l1.66,2.62a4.94,4.94,0,0,1,.74,3.41A3.2,3.2,0,0,1,904.14,340.38Z" transform="translate(-294.79 -31.48)"/><circle class="cls-2" cx="587.97" cy="318.88" r="2.85"/><circle class="cls-2" cx="594.59" cy="318.88" r="2.85"/><circle class="cls-2" cx="601.2" cy="318.88" r="2.85"/><text class="cls-6" transform="translate(563.73 306.52)">?</text><text class="cls-3" transform="translate(514.49 385.66)">live chat</text><rect class="cls-2" x="369.15" y="178.2" width="113.05" height="40.41" rx="12"/><circle class="cls-2" cx="425.68" cy="120.03" r="41.7"/><rect class="cls-1" x="696.56" y="154.57" width="10.27" height="24.63" rx="4.24" transform="translate(91.31 -513.14) rotate(50.67)"/><circle class="cls-7" cx="435.07" cy="112.34" r="17.61"/><text class="cls-3" transform="translate(385.68 205.36)">ce<tspan class="cls-4" x="33.15" y="0">r</tspan><tspan x="46.48" y="0">ca</tspan></text><rect class="cls-2" x="669.23" y="503.92" width="109.39" height="39.93" rx="12"/><circle class="cls-2" cx="723.93" cy="446.9" r="41.7"/><polygon class="cls-1" points="756.28 439.14 747.91 439.14 747.91 474.18 729.09 474.18 729.09 456.01 719.81 456.01 719.81 474.18 700.98 474.18 700.98 439.14 691.57 439.14 723.93 414.44 738.96 425.92 745.89 431.21 756.28 439.14"/><polygon class="cls-1" points="745.89 419.85 745.89 433.8 738.96 428.51 738.96 419.85 745.89 419.85"/><polygon class="cls-2" points="724.86 449.11 722.99 449.11 722.99 443.56 717.44 443.56 717.44 441.69 722.99 441.69 722.99 436.13 724.86 436.13 724.86 441.69 730.41 441.69 730.41 436.13 717.44 436.13 717.44 449.11 730.41 449.11 730.41 443.56 724.86 443.56 724.86 449.11"/><rect class="cls-2" x="730.41" y="441.69" height="1.87"/><text class="cls-3" transform="translate(680.53 530.84)">home</text><rect class="cls-2" x="47.47" y="503.77" width="139.38" height="40.9" rx="12"/><path class="cls-2" d="M410.55,444.05c-24.38-24.38-62.3,13.54-37.91,37.92l37.91,37.92L448.47,482C474,457,436.12,419,410.55,444.05Zm25.74,35.53-25.64,25.64L385,479.58c-16.48-16.49,9.15-42.12,25.64-25.64C427.93,437,453.53,462.69,436.29,479.58Z" transform="translate(-294.79 -31.48)"/><path class="cls-1" d="M436.29,479.58l-25.64,25.64L385,479.58c-16.48-16.49,9.15-42.12,25.64-25.64C427.93,437,453.53,462.69,436.29,479.58Z" transform="translate(-294.79 -31.48)"/><path class="cls-2" d="M418.94,466.73a.88.88,0,0,0-.66-.22,2.84,2.84,0,0,0-.89.19,32.83,32.83,0,0,0-3.55,1.43c-1.63.77-3.66.89-6.39.38l-.69-.13a20.92,20.92,0,0,0-5.52-.55,11.27,11.27,0,0,0-8.17,4.59,16.93,16.93,0,0,0-2.7,7.86,9.3,9.3,0,0,1,5.25-1.67,79.42,79.42,0,0,1,14.76.69l1.55.17c2,.23,4.13.47,6.19.56a17.49,17.49,0,0,0,8.26-1.76,16.7,16.7,0,0,0,6.18-5.14c.18-.26.35-.53.27-.77a.66.66,0,0,0-.55-.4,2.17,2.17,0,0,0-.85.06,9.35,9.35,0,0,0-3.21,1.77c-.34.26-.7.52-1.06.76-3.14,2.09-7.09,2.27-9.16,2.19a34.39,34.39,0,0,1-5.23-.52,13.15,13.15,0,0,1-4.68-1.78c-.63-.41-.88-.85-.72-1.26s.72-.67,1.19-.82c.9-.3,1.84-.54,2.75-.77s2-.5,3-.83a8.71,8.71,0,0,0,4.56-3.11c.23-.37.28-.66.15-.86Z" transform="translate(-294.79 -31.48)"/><path class="cls-2" d="M409.75,473.78c-.1-.24.32-.3.67-.42s.75-.25,1.14-.36a26.49,26.49,0,0,0,6.74-3.13c.92-.57,1.67-1.3,2.54-1.94a2.31,2.31,0,0,1,.82-.43.74.74,0,0,1,.81.31c.19.36-.05.82-.31,1.15a12,12,0,0,1-5.16,3.65,27.54,27.54,0,0,1-6.15,1.39,1.86,1.86,0,0,1-.66,0C410.12,474,409.77,473.85,409.75,473.78Z" transform="translate(-294.79 -31.48)"/><path class="cls-2" d="M412.06,474.34a26,26,0,0,0,3.83-.38,14.06,14.06,0,0,0,4-1.7,14.4,14.4,0,0,0,2.7-2.21,8.27,8.27,0,0,1,2.81-2.24,1.15,1.15,0,0,1,1.24.06.91.91,0,0,1,.14.93,2.5,2.5,0,0,1-.58.82,20.5,20.5,0,0,1-5.72,4.25,12.72,12.72,0,0,1-4.38,1.38,7.81,7.81,0,0,1-4.13-.68A.12.12,0,0,1,412.06,474.34Z" transform="translate(-294.79 -31.48)"/><path class="cls-2" d="M418.74,475.68c.92-.44,1.85-.82,2.77-1.25a13.11,13.11,0,0,0,2.23-1.3c.82-.61,1.74-1.15,2.53-1.82.52-.45,1.11-.85,1.66-1.26a12,12,0,0,1,1.47-1,1.8,1.8,0,0,1,1-.27.82.82,0,0,1,.77.52,1.09,1.09,0,0,1-.12.84,5.17,5.17,0,0,1-1.9,1.72c-.57.41-1.91,1.32-2.48,1.73a14.48,14.48,0,0,1-2.94,1.44,9.86,9.86,0,0,1-4.57.88,2.29,2.29,0,0,1-.36-.07l-.08,0a.08.08,0,0,1,0-.08S418.7,475.7,418.74,475.68Z" transform="translate(-294.79 -31.48)"/><text class="cls-3" transform="translate(54.49 531.17)">p<tspan class="cls-4" x="18.98" y="0">r</tspan><tspan x="32.31" y="0">eferiti</tspan></text><path class="cls-8" d="M728.27,598.41a1.53,1.53,0,0,0-1.11-.38,5.21,5.21,0,0,0-1.52.34,54,54,0,0,0-6,2.4c-2.75,1.3-6.18,1.51-10.8.65l-1.17-.22a35.08,35.08,0,0,0-9.3-.93A19,19,0,0,0,684.6,608c-3.1,4.34-4.09,9.32-4.57,13.26,2.48-2.07,6-2.59,8.86-2.81,8.45-.65,16.82.26,24.92,1.15l2.63.3c3.43.39,7,.79,10.45.94a29.46,29.46,0,0,0,13.94-3,28.18,28.18,0,0,0,10.43-8.67c.31-.44.59-.9.46-1.31a1.14,1.14,0,0,0-.93-.67,3.75,3.75,0,0,0-1.44.11,15.5,15.5,0,0,0-5.41,3c-.59.44-1.19.88-1.8,1.29-5.29,3.53-12,3.83-15.46,3.7a56.92,56.92,0,0,1-8.83-.89,22.06,22.06,0,0,1-7.9-3c-1.06-.7-1.49-1.43-1.22-2.13s1.22-1.12,2-1.38c1.53-.5,3.11-.91,4.64-1.29s3.37-.86,5-1.42c2.59-.89,6-2.52,7.71-5.25.38-.62.47-1.11.25-1.44A.76.76,0,0,0,728.27,598.41Z" transform="translate(-294.79 -31.48)"/><path class="cls-8" d="M712.74,610.32c-.17-.41.55-.52,1.14-.72s1.27-.41,1.93-.61a45.41,45.41,0,0,0,11.38-5.27c1.54-1,2.82-2.2,4.29-3.27a3.71,3.71,0,0,1,1.38-.74,1.25,1.25,0,0,1,1.36.52c.33.62-.08,1.38-.52,1.94a20.19,20.19,0,0,1-8.71,6.18,47.25,47.25,0,0,1-10.39,2.34,3.43,3.43,0,0,1-1.1-.05C713.38,610.62,712.79,610.44,712.74,610.32Z" transform="translate(-294.79 -31.48)"/><path class="cls-8" d="M716.64,611.25a41.22,41.22,0,0,0,6.47-.63,23.67,23.67,0,0,0,6.83-2.87A24.9,24.9,0,0,0,734.5,604a14,14,0,0,1,4.74-3.78,2,2,0,0,1,2.09.1,1.54,1.54,0,0,1,.23,1.59,4.08,4.08,0,0,1-1,1.37,34.37,34.37,0,0,1-9.65,7.18,21.81,21.81,0,0,1-7.41,2.34,13.29,13.29,0,0,1-7-1.17A.21.21,0,0,1,716.64,611.25Z" transform="translate(-294.79 -31.48)"/><path class="cls-8" d="M727.93,613.52c1.54-.73,3.13-1.38,4.67-2.11a22.17,22.17,0,0,0,3.77-2.19c1.39-1,2.93-1.94,4.27-3.08.88-.76,1.87-1.43,2.81-2.12a19.53,19.53,0,0,1,2.47-1.63,3.2,3.2,0,0,1,1.6-.45,1.43,1.43,0,0,1,1.32.88,2,2,0,0,1-.21,1.42c-.67,1.35-2,2-3.22,2.9-1,.69-3.22,2.24-4.18,2.92a23.86,23.86,0,0,1-5,2.43,16.46,16.46,0,0,1-7.72,1.48,3.16,3.16,0,0,1-.6-.11.38.38,0,0,1-.13-.06.15.15,0,0,1-.07-.12C727.76,613.6,727.86,613.55,727.93,613.52Z" transform="translate(-294.79 -31.48)"/><path class="cls-8" d="M703.51,58.35a1.53,1.53,0,0,0,1.12.38,4.89,4.89,0,0,0,1.51-.33,56.21,56.21,0,0,0,6-2.4c2.75-1.31,6.18-1.51,10.79-.66l1.17.23a35.53,35.53,0,0,0,9.31.93,19,19,0,0,0,13.79-7.76c3.1-4.35,4.08-9.33,4.56-13.26-2.48,2.07-6,2.59-8.86,2.81-8.45.65-16.82-.27-24.91-1.15l-2.63-.3c-3.43-.39-7-.8-10.45-.94a29.48,29.48,0,0,0-13.95,3,28,28,0,0,0-10.42,8.67,1.65,1.65,0,0,0-.47,1.3,1.13,1.13,0,0,0,.94.67,3.49,3.49,0,0,0,1.43-.1,15.48,15.48,0,0,0,5.42-3c.58-.43,1.19-.88,1.8-1.29,5.29-3.52,12-3.83,15.46-3.69a56.73,56.73,0,0,1,8.82.88,22.38,22.38,0,0,1,7.91,3c1.06.7,1.48,1.43,1.22,2.12s-1.22,1.13-2,1.39c-1.52.5-3.1.9-4.63,1.29s-3.38.85-5,1.42c-2.6.88-6,2.52-7.71,5.25-.39.62-.47,1.1-.26,1.44Z" transform="translate(-294.79 -31.48)"/><path class="cls-8" d="M719,46.45c.17.41-.55.51-1.14.71s-1.27.42-1.93.61a45.61,45.61,0,0,0-11.38,5.28c-1.54,1-2.81,2.2-4.28,3.27a3.9,3.9,0,0,1-1.39.74,1.24,1.24,0,0,1-1.35-.53c-.33-.61.08-1.38.51-1.94a20.17,20.17,0,0,1,8.71-6.17,46.84,46.84,0,0,1,10.39-2.35,3.84,3.84,0,0,1,1.11.06C718.41,46.15,719,46.33,719,46.45Z" transform="translate(-294.79 -31.48)"/><path class="cls-8" d="M715.14,45.51a41.47,41.47,0,0,0-6.47.64A23.59,23.59,0,0,0,701.85,49a25.39,25.39,0,0,0-4.56,3.74,13.91,13.91,0,0,1-4.74,3.79,2,2,0,0,1-2.1-.11,1.54,1.54,0,0,1-.23-1.58,4.12,4.12,0,0,1,1-1.37,34.55,34.55,0,0,1,9.66-7.18,21.82,21.82,0,0,1,7.4-2.34,13.37,13.37,0,0,1,7,1.16A.21.21,0,0,1,715.14,45.51Z" transform="translate(-294.79 -31.48)"/><path class="cls-8" d="M703.85,43.25c-1.54.73-3.12,1.37-4.67,2.11a22.08,22.08,0,0,0-3.76,2.19c-1.39,1-2.94,1.94-4.27,3.08-.88.75-1.88,1.42-2.81,2.11a18.81,18.81,0,0,1-2.47,1.63,3.32,3.32,0,0,1-1.61.46,1.43,1.43,0,0,1-1.31-.89,1.9,1.9,0,0,1,.21-1.41c.67-1.36,2-2,3.21-2.91l4.19-2.91a23.14,23.14,0,0,1,5-2.43,16.42,16.42,0,0,1,7.72-1.49,2.38,2.38,0,0,1,.59.12A.34.34,0,0,1,704,43a.14.14,0,0,1,.06.13C704,43.17,703.92,43.21,703.85,43.25Z" transform="translate(-294.79 -31.48)"/><line class="cls-9" x1="0.16" y1="5.06" x2="368.66" y2="5.06"/><line class="cls-9" y1="590.39" x2="368.5" y2="590.39"/><line class="cls-9" x1="473.55" y1="590.43" x2="842.05" y2="590.43"/><line class="cls-9" x1="473.55" y1="5" x2="842.05" y2="5"/><line class="cls-9" x1="5.19" y1="595.52" x2="5.19" y2="0.24"/><line class="cls-9" x1="837.29" y1="595.28" x2="837.29"/></svg>