<svg id="Livello_1" data-name="Livello 1" xmlns="http://www.w3.org/2000/svg" viewBox="0 0 63 63"><defs><style>.cls-1{fill:#fff;}</style></defs><title>instagramicon</title><path class="cls-1" d="M420.94,266.14c-8.55,0-9.62,0-13,.19a23.3,23.3,0,0,0-7.65,1.46,15.55,15.55,0,0,0-5.58,3.64A15.3,15.3,0,0,0,391.1,277a23.26,23.26,0,0,0-1.47,7.64c-.15,3.36-.19,4.43-.19,13s0,9.63.19,13a23.2,23.2,0,0,0,1.47,7.64,16.12,16.12,0,0,0,9.21,9.22A23.36,23.36,0,0,0,408,329c3.36.16,4.43.19,13,.19s9.63,0,13-.19a23.62,23.62,0,0,0,7.65-1.46,15.55,15.55,0,0,0,5.58-3.64,15.3,15.3,0,0,0,3.63-5.58,23.2,23.2,0,0,0,1.47-7.64c.15-3.36.18-4.43.18-13s0-9.63-.18-13a23.2,23.2,0,0,0-1.47-7.64,15.39,15.39,0,0,0-3.63-5.58,15.55,15.55,0,0,0-5.58-3.64,23.1,23.1,0,0,0-7.65-1.46C430.57,266.17,429.5,266.14,420.94,266.14Zm0,5.67c8.41,0,9.42,0,12.74.19a17.11,17.11,0,0,1,5.84,1.09,10.35,10.35,0,0,1,6,6,17.44,17.44,0,0,1,1.09,5.85c.15,3.32.18,4.32.18,12.73s0,9.41-.19,12.73a17.83,17.83,0,0,1-1.11,5.85,10.13,10.13,0,0,1-2.36,3.63,9.81,9.81,0,0,1-3.62,2.35,17.6,17.6,0,0,1-5.87,1.08c-3.34.15-4.33.19-12.75.19s-9.42,0-12.76-.2a18,18,0,0,1-5.87-1.1,9.84,9.84,0,0,1-3.62-2.36,9.63,9.63,0,0,1-2.36-3.63,17.92,17.92,0,0,1-1.1-5.86C395,307,395,306,395,297.6s0-9.41.16-12.76a17.92,17.92,0,0,1,1.1-5.86,10.46,10.46,0,0,1,6-6,17.68,17.68,0,0,1,5.83-1.1c3.35-.12,4.33-.16,12.76-.16Zm0,9.66a16.18,16.18,0,1,0,16.18,16.17A16.17,16.17,0,0,0,420.94,281.47Zm0,26.67a10.5,10.5,0,1,1,10.5-10.5A10.5,10.5,0,0,1,420.94,308.14Zm20.6-27.31a3.78,3.78,0,1,1-3.78-3.78A3.79,3.79,0,0,1,441.54,280.83Z" transform="translate(-389.44 -266.14)"/></svg>