<svg id="Livello_1" data-name="Livello 1" xmlns="http://www.w3.org/2000/svg" xmlns:xlink="http://www.w3.org/1999/xlink" viewBox="0 0 831.56 608.55"><defs><style>.cls-1{fill:#fff;}.cls-2,.cls-4{opacity:0.5;}.cls-2{fill:url(#Sfumatura_senza_nome_4);}.cls-3{font-size:72px;font-family:ArimaMadurai-ExtraBold, Arima Madurai;font-weight:800;}.cls-11,.cls-3{fill:#663f91;}.cls-4{fill:url(#Sfumatura_senza_nome_38);}.cls-5,.cls-9{opacity:0.48;}.cls-5{fill:url(#Sfumatura_senza_nome_38-2);}.cls-10,.cls-6,.cls-7{opacity:0.44;}.cls-6{fill:url(#Sfumatura_senza_nome_38-3);}.cls-7{fill:url(#Sfumatura_senza_nome_38-4);}.cls-8{opacity:0.51;fill:url(#Sfumatura_senza_nome_6);}.cls-9{fill:url(#Sfumatura_senza_nome_6-2);}.cls-10{fill:url(#Sfumatura_senza_nome_6-3);}.cls-11{font-size:25px;font-family:ArimaMadurai-Medium, Arima Madurai;font-weight:500;}</style><linearGradient id="Sfumatura_senza_nome_4" x1="310.85" y1="142.96" x2="459.11" y2="142.96" gradientUnits="userSpaceOnUse"><stop offset="0" stop-color="#ba9bc9"/><stop offset="1" stop-color="#474c9b"/></linearGradient><linearGradient id="Sfumatura_senza_nome_38" x1="710.03" y1="383.94" x2="881.11" y2="383.94" xlink:href="#Sfumatura_senza_nome_4"/><linearGradient id="Sfumatura_senza_nome_38-2" x1="653" y1="442.61" x2="852.59" y2="442.61" xlink:href="#Sfumatura_senza_nome_4"/><linearGradient id="Sfumatura_senza_nome_38-3" x1="710.47" y1="391.4" x2="710.56" y2="391.4" xlink:href="#Sfumatura_senza_nome_4"/><linearGradient id="Sfumatura_senza_nome_38-4" x1="760.29" y1="355.45" x2="852.59" y2="355.45" xlink:href="#Sfumatura_senza_nome_4"/><linearGradient id="Sfumatura_senza_nome_6" x1="655.14" y1="384.84" x2="854.47" y2="384.84" gradientUnits="userSpaceOnUse"><stop offset="0" stop-color="#828bc5"/><stop offset="1" stop-color="#6bc4cd"/></linearGradient><linearGradient id="Sfumatura_senza_nome_6-2" x1="627.12" y1="356.91" x2="854.44" y2="356.91" xlink:href="#Sfumatura_senza_nome_6"/><linearGradient id="Sfumatura_senza_nome_6-3" x1="655.29" y1="379.47" x2="771.77" y2="379.47" xlink:href="#Sfumatura_senza_nome_6"/></defs><title>ld-slide1</title><rect class="cls-1" width="831.56" height="608.55"/><path class="cls-2" d="M459.11,142.94a98.86,98.86,0,0,1-148.26,85.61V143.83c0,.3,0,.59,0,.89l0,.46c0,.21,0,.42,0,.63s0,.49.05.74c0,.54.08,1.07.14,1.6,0,.33.07.66.11,1s0,.4.08.59.05.37.07.55,0,.21.05.31c.05.29.09.57.14.86l.06.33.18,1c.08.38.16.76.25,1.14,0,0,0,.1,0,.14l.27,1.07a48.53,48.53,0,0,0,3,8.51,49.39,49.39,0,0,0,43.47,28.75c.47,0,.95,0,1.44,0s1,0,1.43,0,1,0,1.46,0a74.15,74.15,0,0,0,65.53-45.48.08.08,0,0,0,0,0,74.51,74.51,0,0,0,2.95-8.48q.74-2.61,1.28-5.3a72.53,72.53,0,0,0,1.09-7.28c.07-.62.12-1.23.17-1.85.14-1.88.21-3.76.21-5.67,0-.57,0-1.15,0-1.72a2.41,2.41,0,0,0,0-.38c0-.41,0-.83,0-1.25s0-.64-.06-1,0-.66-.05-1l-.06-.77c0-.31,0-.62-.08-.93-.05-.51-.1-1-.17-1.53a.28.28,0,0,0,0-.09c-.06-.58-.13-1.16-.22-1.74a.36.36,0,0,0,0-.11c-.06-.54-.15-1.07-.24-1.59,0-.1,0-.19,0-.27-.09-.58-.2-1.16-.32-1.74s-.23-1.2-.37-1.8-.26-1.19-.41-1.77c-.42-1.78-.92-3.52-1.48-5.24-.18-.57-.38-1.14-.58-1.71s-.4-1.13-.62-1.69-.43-1.12-.66-1.67a74.12,74.12,0,0,0-66.75-46.13A98.83,98.83,0,0,1,459.11,142.94Z" transform="translate(-310.85 -44.13)"/><text class="cls-3" transform="translate(21.09 116.03)">Il mio logo</text><path class="cls-4" d="M881.11,383.93A114.07,114.07,0,0,1,710,482.71V383.93c0,.29,0,.6,0,.89V385c0,.35,0,.69,0,1l0,.52c0,.25,0,.49,0,.73s0,.57,0,.86c0,.62.1,1.24.16,1.85,0,.38.08.75.13,1.12l.09.68.09.63c0,.12,0,.24.06.35,0,.34.1.67.16,1l.06.38c.07.37.14.75.22,1.12s.18.88.28,1.32l0,.15.3,1.24a56.2,56.2,0,0,0,3.48,9.83,57,57,0,0,0,50.16,33.17c.54,0,1.1,0,1.65,0s1.11,0,1.66,0,1.12,0,1.68-.05A85.56,85.56,0,0,0,846,388.4a.09.09,0,0,0,0,0,83.68,83.68,0,0,0,3.4-9.78c.57-2,1.07-4.05,1.48-6.12.55-2.75,1-5.55,1.26-8.39.08-.72.14-1.42.19-2.14q.25-3.24.24-6.54c0-.67,0-1.33,0-2,0-.14,0-.29,0-.43,0-.48,0-1-.06-1.45s0-.74-.06-1.11,0-.76-.07-1.13,0-.59-.07-.89,0-.71-.09-1.06c-.05-.6-.11-1.19-.19-1.77a.41.41,0,0,0,0-.11c-.07-.67-.15-1.34-.26-2a.68.68,0,0,0,0-.14c-.07-.61-.17-1.22-.28-1.83,0-.11,0-.21,0-.31-.11-.67-.23-1.34-.37-2s-.26-1.39-.42-2.08-.31-1.37-.48-2.05q-.74-3.07-1.71-6c-.21-.66-.44-1.32-.67-2s-.46-1.3-.72-1.95-.48-1.29-.76-1.93a85.52,85.52,0,0,0-77-53.23A114,114,0,0,1,881.11,383.93Z" transform="translate(-310.85 -44.13)"/><path class="cls-5" d="M852.59,355.38q0,3.3-.24,6.54c-.05.72-.11,1.42-.19,2.14-.28,2.84-.71,5.64-1.26,8.39-.41,2.07-.91,4.11-1.48,6.12a83.68,83.68,0,0,1-3.4,9.78.09.09,0,0,1,0,0,85.56,85.56,0,0,1-75.62,52.48c-.56,0-1.12,0-1.68.05A57,57,0,0,0,819.21,407a56.32,56.32,0,0,0,3.44-10.32.36.36,0,0,0,0-.1c.2-.88.38-1.76.54-2.65.26-1.5.47-3,.61-4.57,0-.37.07-.75.1-1.13,0-.21,0-.42,0-.63,0-.62.07-1.23.09-1.86,0-.89,0-1.78,0-2.68V383q0-.54,0-1.08c0-.24,0-.49,0-.74s0-.25,0-.38c0-.34,0-.68-.06-1l0-.62c0-.23,0-.46-.07-.69s0-.42-.06-.63h0a4.69,4.69,0,0,0-.06-.54q-.15-1.43-.39-2.82c-.08-.47-.16-.93-.25-1.4-.18-.92-.38-1.84-.6-2.75q-.15-.63-.33-1.26a1.8,1.8,0,0,1,0-.19c-.11-.42-.23-.84-.36-1.25s-.26-.89-.41-1.33-.27-.83-.42-1.24l0-.13c-.14-.42-.29-.83-.45-1.24s-.33-.86-.51-1.29-.33-.81-.51-1.21a.63.63,0,0,1,0-.09c-.17-.41-.36-.81-.55-1.21s-.38-.83-.6-1.24-.4-.82-.62-1.22-.42-.81-.65-1.2c-.66-1.2-1.37-2.37-2.12-3.51-.49-.76-1-1.5-1.54-2.23-.26-.37-.53-.73-.82-1.1a57,57,0,0,0-66.91-18.27c-.42.17-.85.34-1.27.54s-.83.36-1.25.56c-.82.38-1.63.78-2.43,1.21,0,0,0,0-.06,0l-1.17.63c-.4.22-.8.45-1.18.68s-.79.47-1.17.71q-1.74,1.06-3.39,2.28-1.1.78-2.16,1.65c-.35.27-.7.55-1,.86s-.69.58-1,.88c-.68.59-1.35,1.21-2,1.84-.33.31-.66.63-1,1s-.63.64-.94,1v0c-.93,1-1.82,2-2.66,3.06-.59.7-1.14,1.41-1.67,2.14-.27.37-.54.73-.79,1.1-.53.75-1,1.5-1.51,2.27-.25.38-.49.77-.72,1.15l-.68,1.18c-.69,1.22-1.34,2.47-1.95,3.74-.18.38-.36.76-.52,1.14s-.41.92-.6,1.39-.32.76-.46,1.15-.34.86-.49,1.29c-.31.87-.61,1.74-.87,2.62-.12.39-.23.77-.34,1.16s-.16.54-.23.83l-.18.69c-.12.45-.23.9-.33,1.36s-.21.9-.3,1.37c-.27,1.34-.5,2.71-.67,4.1-.12.95-.22,1.9-.29,2.87,0,.33-.05.65-.06,1-.07,1.13-.11,2.27-.11,3.42V558.32a57,57,0,0,1-57,57V383.93a114.15,114.15,0,0,1,62.28-101.64l0,0a113.22,113.22,0,0,1,44.09-12.13c1.8-.12,3.62-.2,5.45-.23.73,0,1.47,0,2.2,0s1.48,0,2.21,0a85.52,85.52,0,0,1,77,53.23c.26.64.52,1.28.76,1.93s.48,1.29.72,1.95.45,1.31.67,2q1,3,1.71,6l.48,2.05c.15.69.29,1.38.42,2.08s.25,1.33.37,2c0,.1,0,.2,0,.31.11.61.2,1.22.28,1.83a.68.68,0,0,1,0,.14c.1.66.19,1.33.26,2a.41.41,0,0,1,0,.11c.07.59.14,1.17.19,1.77,0,.35.07.7.09,1.06s.05.59.07.89.06.75.07,1.13,0,.74.06,1.11,0,1,.06,1.45c0,.14,0,.29,0,.43C852.59,354.05,852.59,354.71,852.59,355.38Z" transform="translate(-310.85 -44.13)"/><path class="cls-6" d="M710.56,391.74s0,0,0,0c0-.22-.06-.44-.08-.66Z" transform="translate(-310.85 -44.13)"/><path class="cls-7" d="M852.59,354.14c0-.25,0-.5,0-.75s0-.29,0-.43c0-.48,0-1-.06-1.45s0-.74-.06-1.11,0-.76-.07-1.13,0-.59-.07-.89,0-.71-.09-1.06c-.05-.6-.12-1.18-.19-1.77a.41.41,0,0,0,0-.11c-.07-.67-.16-1.34-.26-2a.68.68,0,0,0,0-.14c-.08-.61-.17-1.22-.28-1.83,0-.11,0-.21,0-.31-.12-.67-.24-1.34-.37-2s-.27-1.39-.42-2.08l-.48-2.05q-.75-3.07-1.71-6c-.22-.66-.44-1.32-.67-2s-.47-1.3-.72-1.95-.5-1.29-.76-1.93a85.54,85.54,0,0,0-80.54-53.22c-1.83,0-3.65.12-5.45.26a75,75,0,0,1,63.46,107.66h0q0,.32.06.63c0,.23.06.46.07.69l0,.62c0,.33,0,.67.06,1,0,.13,0,.26,0,.38s0,.5,0,.74,0,.72,0,1.08v.08c0,.9,0,1.79,0,2.68,0,.63,0,1.24-.09,1.86,0,.21,0,.42,0,.63,0,.38-.06.76-.1,1.13-.14,1.54-.35,3.07-.61,4.57-.16.89-.34,1.77-.54,2.65a.36.36,0,0,1,0,.1A54.84,54.84,0,0,1,819.21,407a57,57,0,0,1-48.82,33.87q-1.21.06-2.46.09c-.78,0-1.56,0-2.34,0,.92,0,1.85,0,2.78,0A85.56,85.56,0,0,0,846,388.4a.09.09,0,0,0,0,0,81.87,81.87,0,0,0,3.4-9.78c.57-2,1.07-4.05,1.48-6.12a82.71,82.71,0,0,0,1.26-8.39c.08-.72.14-1.42.19-2.14q.25-3.24.24-6.54Z" transform="translate(-310.85 -44.13)"/><path class="cls-8" d="M854.47,499.75v.06H764.34a115,115,0,0,1-3.53-229.55c3.56-.3,7.17-.41,10.81-.38l2.69.06c-48.84,1.7-88.17,39.3-88.8,85.92-.59,45.73,36.23,83.66,83.67,87.79,2.46.23,4.94.35,7.45.39,3.32,0,6.58-.1,9.82-.39h11.87A56.06,56.06,0,0,1,846.52,471a47.18,47.18,0,0,1,2.73,5.17A55.61,55.61,0,0,1,854.47,499.75Z" transform="translate(-310.85 -44.13)"/><path class="cls-9" d="M854.44,214.06v0a55.54,55.54,0,0,1-5.23,23.63,56.12,56.12,0,0,1-50.93,32.49H779.57c-1.75-.15-3.52-.25-5.3-.33l-2.69-.05c-3.64,0-7.24.07-10.81.38a115,115,0,0,0,3.53,229.54h-1A143,143,0,0,1,640,297.52a140.46,140.46,0,0,1,8.22-15.42,143.7,143.7,0,0,1,8.14-11.88,141.14,141.14,0,0,1,29.46-28.85c1.47-1.09,3-2.14,4.48-3.15a143.56,143.56,0,0,1,67.14-23.78c1.89-.17,3.8-.3,5.69-.38Z" transform="translate(-310.85 -44.13)"/><path class="cls-10" d="M709.31,481.07a95.34,95.34,0,0,0,12.48,7.87A114.8,114.8,0,0,1,770.07,270l1.7,0a87.73,87.73,0,0,0-86.25,84.57,94.9,94.9,0,0,0-5.9,89.74A95.12,95.12,0,0,0,709.31,481.07Z" transform="translate(-310.85 -44.13)"/><text class="cls-11" transform="translate(651 535.64)">Cristian Pozzi <tspan x="-9.45" y="30" xml:space="preserve"> UX/UI Designer</tspan></text></svg>