<svg id="Livello_1" data-name="Livello 1" xmlns="http://www.w3.org/2000/svg" xmlns:xlink="http://www.w3.org/1999/xlink" viewBox="0 0 830.84 626.45"><defs><style>.cls-1{fill:#fff;}.cls-2,.cls-6{opacity:0.5;}.cls-2{fill:url(#Sfumatura_senza_nome_4);}.cls-3{font-size:72px;font-family:ArimaMadurai-ExtraBold, Arima Madurai;font-weight:800;}.cls-10,.cls-3,.cls-5,.cls-6,.cls-7,.cls-8,.cls-9{fill:#663f91;}.cls-4{font-size:18px;fill:#828bc4;font-family:ArimaMadurai-Regular, Arima Madurai;}.cls-5{opacity:0.51;}.cls-8{opacity:0.65;}.cls-9{opacity:0.49;}.cls-10{opacity:0.53;}</style><linearGradient id="Sfumatura_senza_nome_4" x1="328.54" y1="175.25" x2="476.8" y2="175.25" gradientUnits="userSpaceOnUse"><stop offset="0" stop-color="#ba9bc9"/><stop offset="1" stop-color="#474c9b"/></linearGradient></defs><title>ld-slide3</title><rect class="cls-1" width="830.84" height="626.45"/><path class="cls-2" d="M476.8,175.23a98.86,98.86,0,0,1-148.26,85.61V175.23c0,.26,0,.52,0,.78v.11c0,.3,0,.6,0,.89l0,.46,0,.63c0,.24,0,.49.05.74,0,.54.09,1.07.14,1.61,0,.32.07.65.11,1s.05.4.08.59.05.37.07.55l.06.31c0,.29.09.57.13.86l.06.33c.06.32.12.65.19,1l.24,1.14,0,.14c.08.36.17.71.26,1.07a49.45,49.45,0,0,0,46.48,37.26c.48,0,1,0,1.44,0s1,0,1.44,0,1,0,1.45,0a74.13,74.13,0,0,0,65.53-45.48s0,0,0,0a74.46,74.46,0,0,0,2.94-8.48c.5-1.74.92-3.51,1.28-5.3a72.53,72.53,0,0,0,1.09-7.28c.07-.61.12-1.23.17-1.85.14-1.87.22-3.76.21-5.67,0-.57,0-1.15,0-1.72,0-.13,0-.25,0-.38,0-.41,0-.83-.05-1.25s0-.64-.05-1,0-.66-.06-1,0-.52-.06-.77,0-.62-.08-.93c-.05-.51-.1-1-.16-1.53a.29.29,0,0,0,0-.09c-.06-.58-.13-1.16-.22-1.74,0,0,0-.07,0-.11-.07-.54-.16-1.07-.25-1.59a2.19,2.19,0,0,0,0-.27c-.09-.58-.2-1.16-.31-1.74s-.23-1.2-.37-1.79-.27-1.2-.41-1.78c-.43-1.78-.92-3.52-1.49-5.24-.18-.57-.38-1.14-.58-1.71s-.4-1.13-.62-1.69-.42-1.12-.66-1.67a74.11,74.11,0,0,0-66.75-46.13A98.84,98.84,0,0,1,476.8,175.23Z" transform="translate(-328.54 -76.42)"/><text class="cls-3" transform="translate(18.93 116.03)">La progettazione</text><text class="cls-4" transform="translate(148.26 170.74)">Volevo delle lettere che non avevano nulla a che fare con i font che <tspan x="0" y="21.6">normalmente trovi sul web. </tspan><tspan x="0" y="64.8">Non intendevo limitarmi a scrivere una lettera ed accostarla ad un’altra, quindi, </tspan><tspan x="0" y="86.4">ho iniziato a giocare con le forme geometrice per rappresentare le mie inizali.</tspan></text><path class="cls-5" d="M489.93,443.07A54.43,54.43,0,0,1,468,486.79h0c-.59.44-1.17.86-1.78,1.26a54.45,54.45,0,0,1-73.83-11.59,53.63,53.63,0,0,1-6.54-10.78,54.51,54.51,0,0,1,82-66.48l.15.11h0A54.46,54.46,0,0,1,489.93,443.07Z" transform="translate(-328.54 -76.42)"/><circle class="cls-5" cx="257.87" cy="366.65" r="22.64"/><circle class="cls-5" cx="198.31" cy="365.67" r="34.08"/><path class="cls-5" d="M486.92,597.93A52.39,52.39,0,0,1,465.79,640l0,0c-.56.42-1.13.82-1.71,1.21a52.46,52.46,0,0,1-71.12-11.16,51.46,51.46,0,0,1-6.29-10.39,52.45,52.45,0,0,1,6.28-54,53,53,0,0,1,10.16-10,52.53,52.53,0,0,1,62.51-.1l.15.1,0,0A52.43,52.43,0,0,1,486.92,597.93Z" transform="translate(-328.54 -76.42)"/><circle class="cls-5" cx="105.88" cy="521.51" r="21.8"/><circle class="cls-5" cx="116.91" cy="520.56" r="32.83"/><path class="cls-5" d="M586.24,555.61h0l-.14-.11a52.74,52.74,0,1,0-1.55,86c.58-.39,1.15-.8,1.72-1.23h0a52.77,52.77,0,0,0,0-84.61ZM565.82,630a33,33,0,0,1-32.53-27.61,2.71,2.71,0,0,1-.06-.38,33.38,33.38,0,0,1-.37-4.27c0-.23,0-.47,0-.71a33,33,0,1,1,33,33Z" transform="translate(-328.54 -76.42)"/><rect class="cls-6" x="1046.33" y="353.92" width="27.82" height="131.26" rx="13.54" transform="translate(312.15 1403.38) rotate(-90)"/><circle class="cls-7" cx="546.84" cy="367.33" r="23.67"/><circle class="cls-8" cx="546.84" cy="366.81" r="47.32"/><circle class="cls-9" cx="546.85" cy="354.93" r="35.75"/><path class="cls-8" d="M882.81,551.72a47.32,47.32,0,1,0,37.88,46.38A47.37,47.37,0,0,0,882.81,551.72ZM873.39,622a35.82,35.82,0,0,1-6.59-.61,23.69,23.69,0,1,1,13.05,0A35.28,35.28,0,0,1,873.39,622Z" transform="translate(-328.54 -76.42)"/><path class="cls-9" d="M909.14,586.21a35.74,35.74,0,0,1-29.29,35.17,23.66,23.66,0,1,0-13.05,0,35.76,35.76,0,1,1,42.34-35.15Z" transform="translate(-328.54 -76.42)"/><rect class="cls-10" x="1044.02" y="394.5" width="32.44" height="142.27" transform="translate(266.07 1449.46) rotate(-90)"/><rect class="cls-6" x="1038.83" y="505.01" width="27.82" height="131.26" rx="13.54" transform="translate(153.56 1546.97) rotate(-90)"/><rect class="cls-10" x="1036.52" y="515.73" width="32.44" height="142.27" transform="translate(137.34 1563.19) rotate(-90)"/><path class="cls-6" d="M1118.37,623.68v-.37H987.11v.37a13.54,13.54,0,0,0,13.54,13.54h104.18A13.54,13.54,0,0,0,1118.37,623.68Z" transform="translate(-328.54 -76.42)"/></svg>