<svg id="Livello_1" data-name="Livello 1" xmlns="http://www.w3.org/2000/svg" xmlns:xlink="http://www.w3.org/1999/xlink" viewBox="0 0 818.46 614.67"><defs><style>.cls-1{fill:#fff;}.cls-10,.cls-2,.cls-4,.cls-7{opacity:0.5;}.cls-2{fill:url(#Sfumatura_senza_nome_4);}.cls-3{font-size:72px;}.cls-15,.cls-3,.cls-4,.cls-6,.cls-9{fill:#663f91;}.cls-3,.cls-6{font-family:ArimaMadurai-ExtraBold, Arima Madurai;font-weight:800;}.cls-5{font-size:18px;font-family:ArimaMadurai-Regular, Arima Madurai;}.cls-10,.cls-12,.cls-5,.cls-8{fill:#828bc4;}.cls-6{font-size:12.47px;}.cls-7{fill:#828bc5;}.cls-8,.cls-9{opacity:0.49;}.cls-11,.cls-13,.cls-14,.cls-15{opacity:0.44;}.cls-11{fill:url(#Sfumatura_senza_nome_6);}.cls-12{opacity:0.48;}.cls-13{fill:url(#Sfumatura_senza_nome_6-2);}.cls-14{fill:url(#Sfumatura_senza_nome_6-3);}</style><linearGradient id="Sfumatura_senza_nome_4" x1="311.45" y1="190.07" x2="459.71" y2="190.07" gradientUnits="userSpaceOnUse"><stop offset="0" stop-color="#ba9bc9"/><stop offset="1" stop-color="#474c9b"/></linearGradient><linearGradient id="Sfumatura_senza_nome_6" x1="551.32" y1="554.33" x2="551.35" y2="554.33" gradientUnits="userSpaceOnUse"><stop offset="0" stop-color="#828bc5"/><stop offset="1" stop-color="#6bc4cd"/></linearGradient><linearGradient id="Sfumatura_senza_nome_6-2" x1="705.46" y1="584.56" x2="705.5" y2="584.56" xlink:href="#Sfumatura_senza_nome_6"/><linearGradient id="Sfumatura_senza_nome_6-3" x1="1124.23" y1="662.08" x2="1124.27" y2="662.08" xlink:href="#Sfumatura_senza_nome_6"/></defs><title>ld-slide5</title><rect class="cls-1" width="818.46" height="614.67"/><path class="cls-2" d="M459.71,190.06a98.84,98.84,0,0,1-148.26,85.6v-85.6c0,.25,0,.52,0,.77v.11c0,.3,0,.6,0,.89l0,.46c0,.21,0,.42,0,.63s0,.5,0,.74c0,.54.09,1.07.14,1.61,0,.33.07.65.11,1s.06.39.08.58,0,.37.07.55l.06.31c0,.29.09.57.14.86a3.26,3.26,0,0,0,.05.33c.06.32.12.65.19,1l.24,1.15,0,.13c.08.36.17.72.26,1.07a49.43,49.43,0,0,0,46.48,37.27l1.44,0,1.44,0c.48,0,1,0,1.45-.05a74.15,74.15,0,0,0,65.54-45.48s0,0,0,0a73.79,73.79,0,0,0,2.94-8.48q.75-2.61,1.28-5.3c.48-2.38.85-4.81,1.1-7.27.06-.62.11-1.24.16-1.86q.22-2.8.21-5.67c0-.57,0-1.14,0-1.72,0-.12,0-.25,0-.37,0-.42,0-.84-.05-1.26s0-.64-.05-1,0-.66-.06-1,0-.51-.06-.77,0-.62-.08-.92c0-.52-.1-1-.16-1.54a.37.37,0,0,0,0-.09c-.06-.58-.13-1.16-.22-1.73,0,0,0-.08,0-.12-.07-.54-.15-1.06-.25-1.59a2.51,2.51,0,0,0,0-.27c-.09-.58-.19-1.16-.31-1.73s-.23-1.21-.37-1.8-.27-1.2-.41-1.78c-.43-1.77-.92-3.52-1.49-5.23-.18-.58-.37-1.15-.58-1.72s-.39-1.12-.62-1.68-.42-1.12-.66-1.68a74.12,74.12,0,0,0-66.75-46.13A98.84,98.84,0,0,1,459.71,190.06Z" transform="translate(-311.45 -91.24)"/><text class="cls-3" transform="translate(13.09 116.03)">La lettera P</text><path class="cls-4" d="M416.57,399.48A46.77,46.77,0,0,1,397.73,437h0c-.5.37-1,.73-1.52,1.08a46.84,46.84,0,0,1-69-58.1,46.08,46.08,0,0,1,5.6-9.24,46.84,46.84,0,0,1,64.81-9l.13.1h0A46.75,46.75,0,0,1,416.57,399.48Z" transform="translate(-311.45 -91.24)"/><circle class="cls-4" cx="188.06" cy="310.02" r="19.44"/><circle class="cls-4" cx="136.58" cy="310.02" r="29.28"/><circle class="cls-4" cx="449.04" cy="308.24" r="23.57"/><circle class="cls-4" cx="449.04" cy="308.4" r="47.1"/><circle class="cls-4" cx="449.06" cy="296.57" r="35.59"/><text class="cls-5" transform="translate(148.26 165.81)">Al fine di essere il più coerente possible ho seguito le stesse logiche grafiche.<tspan x="0" y="21.6">Questo mi ha spinto a sfruttare le stesse forme utilizzate per la C, cercando </tspan><tspan x="0" y="43.2">di ottenere il miglior risultato possibile.</tspan></text><rect class="cls-4" x="571.1" y="388.08" width="81.64" height="24.82" rx="12.41" transform="translate(-100.02 921.18) rotate(-90)"/><rect class="cls-4" x="537.76" y="389.31" width="85.6" height="20.34" transform="translate(-130.38 888.8) rotate(-90)"/><rect class="cls-4" x="604.97" y="389.31" width="85.6" height="20.34" transform="translate(-63.16 956.01) rotate(-90)"/><rect class="cls-4" x="618.65" y="387.15" width="81.64" height="24.82" rx="12.41" transform="translate(-51.54 967.79) rotate(-90)"/><text class="cls-6" transform="translate(35.22 371.7)">step. 1 </text><text class="cls-6" transform="translate(247.92 371.7)">step. 2 </text><text class="cls-6" transform="translate(401.94 371.7)">step. 3 </text><text class="cls-6" transform="translate(586.85 371.7)">step. 4 </text><text class="cls-6" transform="translate(748.76 371.7)">step. 5 </text><text class="cls-6" transform="translate(46.02 577.52)">step. 6 </text><text class="cls-6" transform="translate(207.51 577.52)">step. 7 </text><text class="cls-6" transform="translate(365.88 577.52)"><tspan xml:space="preserve">step. 8  </tspan></text><text class="cls-6" transform="translate(529.39 577.52)">step. 9 </text><text class="cls-6" transform="translate(681.77 577.52)">step. 10 </text><circle class="cls-4" cx="596.87" cy="298.23" r="23.57"/><circle class="cls-4" cx="596.87" cy="298.39" r="47.1"/><circle class="cls-4" cx="596.88" cy="286.56" r="35.59"/><path class="cls-7" d="M884.75,332.71V466.25c0,9-10.43,16.29-23.33,16.29h-.21V316.42h.21C874.32,316.42,884.75,323.72,884.75,332.71Z" transform="translate(-311.45 -91.24)"/><circle class="cls-4" cx="745.89" cy="285.34" r="23.57"/><path class="cls-4" d="M1104.44,376.74a47.11,47.11,0,1,1-70.67-40.8,47.12,47.12,0,0,1,23.57-6.31,47.06,47.06,0,0,1,47.1,47.11Z" transform="translate(-311.45 -91.24)"/><circle class="cls-4" cx="745.9" cy="273.67" r="35.59"/><path class="cls-7" d="M1033.77,335.94V453.36c0,9-10.43,16.29-23.33,16.29h-.21V376.74A47.1,47.1,0,0,1,1033.77,335.94Z" transform="translate(-311.45 -91.24)"/><path class="cls-8" d="M452.06,537.9a35.32,35.32,0,0,1-28.92,34.73,23.37,23.37,0,1,0-29.76-22.48v80.36c0,9.76-10.35,17.67-23.14,17.67H370V543.1c.79-10.13,6.37-19.38,13.55-26.37.08-.09.16-.15.23-.23a46.64,46.64,0,0,1,23.71-12.68h.06a47.16,47.16,0,0,1,18.44,0h0A35.29,35.29,0,0,1,452.06,537.9Z" transform="translate(-311.45 -91.24)"/><path class="cls-9" d="M463.47,549.63a46.71,46.71,0,0,1-70.09,40.45V550.15a23.37,23.37,0,0,0,29.76,22.48,35.31,35.31,0,0,0,2.91-68.79A46.73,46.73,0,0,1,463.47,549.63Z" transform="translate(-311.45 -91.24)"/><path class="cls-8" d="M622,551.23a47.27,47.27,0,0,1-70.88,40.93V551.23c0,.12,0,.25,0,.37v0c0,.15,0,.29,0,.43v.22c0,.1,0,.2,0,.3l0,.35c0,.26,0,.52.06.77l.06.46,0,.29a2,2,0,0,1,0,.26s0,.1,0,.14.05.28.07.42l0,.15c0,.16,0,.31.09.47s.07.36.11.55a.13.13,0,0,1,0,.06c0,.17.09.34.13.51a23.65,23.65,0,0,0,22.22,17.82h1.37c.24,0,.47,0,.7,0a35.42,35.42,0,0,0,31.33-21.74v0a34.59,34.59,0,0,0,1.41-4c.24-.83.44-1.68.61-2.53.23-1.14.41-2.3.53-3.48,0-.3.05-.59.07-.89.07-.89.11-1.79.11-2.71,0-.27,0-.55,0-.82a1.08,1.08,0,0,0,0-.18c0-.2,0-.4,0-.6l0-.46a3.71,3.71,0,0,0,0-.47c0-.12,0-.24,0-.37s0-.29,0-.44,0-.49-.08-.73a.11.11,0,0,0,0-.05c0-.27-.06-.55-.1-.82,0,0,0,0,0-.06,0-.26-.07-.51-.12-.76a.59.59,0,0,0,0-.13c0-.28-.09-.55-.15-.83s-.11-.57-.17-.86-.13-.57-.2-.85c-.2-.84-.44-1.68-.71-2.5-.09-.27-.18-.55-.28-.82s-.19-.54-.29-.8-.21-.54-.32-.8A35.44,35.44,0,0,0,575.67,504,47.25,47.25,0,0,1,622,551.23Z" transform="translate(-311.45 -91.24)"/><path class="cls-10" d="M610.2,539.4c0,.92,0,1.82-.11,2.71,0,.3,0,.59-.07.89-.12,1.18-.3,2.34-.53,3.48-.17.85-.37,1.7-.61,2.53a34.59,34.59,0,0,1-1.41,4v0a35.42,35.42,0,0,1-31.33,21.74c-.23,0-.46,0-.7,0a23.63,23.63,0,0,0,22.35-18.33v0c.08-.36.15-.72.22-1.09.11-.62.2-1.25.26-1.89,0-.16,0-.32,0-.47s0-.18,0-.27c0-.25,0-.51,0-.76s0-.74,0-1.12v0c0-.15,0-.3,0-.44s0-.21,0-.31v-.16c0-.14,0-.28,0-.42l0-.25a2.58,2.58,0,0,0,0-.29,2.28,2.28,0,0,0,0-.26h0l0-.23c0-.39-.1-.78-.16-1.17,0-.19-.07-.38-.11-.57q-.11-.59-.24-1.14c-.05-.18-.09-.35-.14-.52a.31.31,0,0,1,0-.08l-.15-.52c0-.19-.11-.37-.17-.55s-.11-.34-.17-.51l0-.06-.19-.52-.21-.53-.21-.5,0,0c-.07-.17-.15-.33-.23-.5s-.16-.34-.24-.51-.17-.34-.26-.51l-.27-.5c-.27-.49-.57-1-.88-1.45-.2-.31-.42-.62-.64-.92s-.22-.31-.34-.46a23.66,23.66,0,0,0-27.72-7.57l-.52.23-.52.23c-.34.15-.68.32-1,.5h0c-.17.09-.33.17-.49.27s-.33.18-.49.28l-.48.29c-.48.29-.95.61-1.41.94-.3.22-.6.45-.89.69s-.29.23-.43.35l-.43.37c-.28.24-.56.5-.83.76s-.27.26-.39.4l-.39.4h0c-.38.41-.75.84-1.1,1.27s-.47.59-.69.89l-.33.46c-.22.3-.42.62-.62.93l-.3.48c-.1.16-.19.33-.28.49-.29.5-.56,1-.81,1.55-.07.16-.15.32-.21.47s-.17.38-.25.58-.13.31-.19.47l-.21.54c-.12.36-.25.72-.36,1.08,0,.17-.09.32-.14.48s-.07.23-.09.35-.05.19-.08.28-.09.38-.14.57l-.12.56c-.11.56-.21,1.13-.28,1.7-.05.4-.09.79-.12,1.19,0,.14,0,.27,0,.41,0,.46,0,.93,0,1.41v72.25a23.62,23.62,0,0,1-23.62,23.62V551.23a47.29,47.29,0,0,1,25.8-42.11h0a47,47,0,0,1,18.27-5c.74,0,1.5-.08,2.25-.1h1.83a35.44,35.44,0,0,1,31.91,22.06c.11.26.21.53.32.8s.19.53.29.8.19.55.28.82c.27.82.51,1.66.71,2.5.07.29.13.57.2.85s.12.57.17.86.11.55.15.83a.59.59,0,0,1,0,.13c0,.25.08.5.12.76,0,0,0,0,0,.06,0,.27.07.55.1.82a.11.11,0,0,1,0,.05c0,.24.06.49.08.73s0,.3,0,.44l0,.37a3.71,3.71,0,0,1,0,.47l0,.46c0,.2,0,.4,0,.6a1.08,1.08,0,0,1,0,.18C610.19,538.85,610.2,539.13,610.2,539.4Z" transform="translate(-311.45 -91.24)"/><path class="cls-11" d="M551.35,554.47h0a2.4,2.4,0,0,1,0-.28Z" transform="translate(-311.45 -91.24)"/><circle class="cls-4" cx="263.38" cy="460" r="23.63"/><path class="cls-10" d="M783.55,551.23a47.27,47.27,0,0,1-70.88,40.93V551.65c0,.15,0,.29,0,.43v.22c0,.1,0,.2,0,.3s0,.24,0,.35,0,.52.07.77,0,.31.05.46a2.89,2.89,0,0,1,0,.29c0,.08,0,.17,0,.26s0,.1,0,.14,0,.28.07.42l0,.15c0,.16.05.31.08.47l.12.55s0,0,0,.06c0,.17.08.34.13.51a22.86,22.86,0,0,0,1.44,4.07,23.65,23.65,0,0,0,20.78,13.75H737c.24,0,.47,0,.7,0A35.43,35.43,0,0,0,769,553.08v0a34.59,34.59,0,0,0,1.41-4c.24-.83.44-1.68.61-2.53a33.15,33.15,0,0,0,.52-3.48c0-.3.06-.59.08-.89.07-.89.11-1.79.1-2.71,0-.27,0-.55,0-.82v-.18c0-.2,0-.4,0-.6l0-.46,0-.47a2.4,2.4,0,0,0,0-.37l0-.44c0-.24-.05-.49-.08-.73a.43.43,0,0,1,0-.05c0-.27-.06-.55-.11-.82v-.06c0-.26-.08-.51-.12-.76,0,0,0-.09,0-.13,0-.28-.09-.55-.15-.83s-.11-.57-.18-.86-.12-.57-.19-.85c-.21-.84-.44-1.68-.71-2.5-.09-.27-.18-.55-.28-.82s-.19-.54-.3-.8-.2-.54-.31-.8A35.44,35.44,0,0,0,737.21,504,47.26,47.26,0,0,1,783.55,551.23Z" transform="translate(-311.45 -91.24)"/><path class="cls-12" d="M771.73,539.4c0,.92,0,1.82-.1,2.71,0,.3,0,.59-.08.89a33.15,33.15,0,0,1-.52,3.48c-.17.85-.37,1.7-.61,2.53a34.59,34.59,0,0,1-1.41,4v0a35.43,35.43,0,0,1-31.33,21.74c-.23,0-.46,0-.7,0a23.63,23.63,0,0,0,20.92-14.06,23,23,0,0,0,1.43-4.27v0c.08-.36.15-.72.22-1.09.11-.62.19-1.25.25-1.89,0-.16,0-.32,0-.47a2.45,2.45,0,0,0,0-.27c0-.25,0-.51,0-.76s0-.74,0-1.12v0c0-.15,0-.3,0-.44s0-.21,0-.31v-.16c0-.14,0-.28,0-.42l0-.25,0-.29c0-.09,0-.17,0-.26h0l0-.23c0-.39-.1-.78-.16-1.17,0-.19-.07-.38-.11-.57-.07-.39-.15-.77-.25-1.14,0-.18-.08-.35-.13-.52a.31.31,0,0,1,0-.08l-.15-.52c-.05-.19-.11-.37-.17-.55s-.11-.34-.18-.51v-.06l-.19-.52-.21-.53c-.07-.17-.14-.33-.22-.5v0c-.07-.17-.15-.33-.23-.5s-.16-.34-.25-.51-.16-.34-.26-.51l-.26-.5c-.28-.49-.57-1-.88-1.45-.2-.31-.42-.62-.64-.92s-.22-.31-.34-.46a23.66,23.66,0,0,0-27.72-7.57l-.52.23-.52.23c-.34.15-.68.32-1,.5h0c-.17.09-.33.17-.49.27a4.76,4.76,0,0,0-.49.28l-.48.29c-.48.29-1,.61-1.41.94-.3.22-.6.45-.89.69l-.44.35-.42.37c-.28.24-.56.5-.83.76s-.27.26-.39.4a4.89,4.89,0,0,0-.39.4h0c-.38.41-.75.84-1.1,1.27s-.47.59-.69.89l-.33.46c-.22.3-.43.62-.62.93q-.17.24-.3.48c-.1.16-.19.33-.28.49-.29.5-.56,1-.81,1.55-.08.16-.15.32-.22.47s-.17.38-.24.58-.14.31-.2.47l-.2.54q-.2.54-.36,1.08c-.05.17-.09.32-.14.48s-.07.23-.1.35-.05.19-.07.28-.1.38-.14.57l-.12.56c-.11.56-.21,1.13-.28,1.7-.05.4-.09.79-.12,1.19l0,.41c0,.46,0,.93,0,1.41v72.25a23.62,23.62,0,0,1-23.62,23.62V551.23a47.29,47.29,0,0,1,25.8-42.11h0a47,47,0,0,1,18.26-5c.75,0,1.51-.08,2.26-.1h1.83a35.44,35.44,0,0,1,31.91,22.06c.11.26.21.53.31.8l.3.8.28.82c.27.82.5,1.66.71,2.5.07.29.13.57.19.85s.13.57.18.86l.15.83s0,.09,0,.13l.12.76v.06c0,.27.08.55.11.82a.43.43,0,0,0,0,.05c0,.24,0,.49.08.73l0,.44,0,.37,0,.47,0,.46c0,.2,0,.4,0,.6v.18C771.73,538.85,771.73,539.13,771.73,539.4Z" transform="translate(-311.45 -91.24)"/><path class="cls-13" d="M705.5,584.7h0a2.51,2.51,0,0,1,0-.27C705.47,584.51,705.49,584.61,705.5,584.7Z" transform="translate(-311.45 -91.24)"/><circle class="cls-4" cx="424.85" cy="460" r="23.63"/><circle class="cls-4" cx="424.85" cy="448.18" r="35.44"/><path class="cls-14" d="M1124.27,662.24h0c0-.1,0-.21,0-.31C1124.24,662,1124.26,662.13,1124.27,662.24Z" transform="translate(-311.45 -91.24)"/><path class="cls-10" d="M946.4,550.79a48.1,48.1,0,0,1-72.14,41.66V551.22c0,.15,0,.3,0,.44v.22c0,.1,0,.21,0,.31s0,.24,0,.36,0,.52.07.78,0,.32.05.47,0,.19,0,.29,0,.18,0,.26a.61.61,0,0,0,0,.15c0,.15.05.28.07.42l0,.16c0,.16.05.32.09.48s.07.37.12.55a.15.15,0,0,0,0,.07c0,.17.08.35.13.52a23.35,23.35,0,0,0,1.46,4.14,24,24,0,0,0,21.15,14H899l.71,0a36.08,36.08,0,0,0,31.89-22.13v0a38,38,0,0,0,1.43-4.13c.24-.84.45-1.7.62-2.57a34.3,34.3,0,0,0,.53-3.54c0-.31.06-.6.08-.91.07-.91.11-1.83.11-2.76,0-.27,0-.55,0-.83a1.2,1.2,0,0,0,0-.19c0-.2,0-.4,0-.6l0-.47a3.87,3.87,0,0,0,0-.48,2.43,2.43,0,0,0,0-.38l0-.44c0-.25-.05-.5-.08-.75a.43.43,0,0,1,0-.05c0-.28-.06-.56-.11-.84a.13.13,0,0,0,0-.06c0-.26-.07-.51-.11-.77a.69.69,0,0,1,0-.13c0-.28-.1-.57-.16-.84s-.11-.59-.18-.88-.13-.58-.2-.87c-.2-.86-.45-1.71-.72-2.54-.09-.28-.18-.56-.28-.84L932,526q-.15-.4-.33-.81a36.06,36.06,0,0,0-32.48-22.45A48.09,48.09,0,0,1,946.4,550.79Z" transform="translate(-311.45 -91.24)"/><path class="cls-12" d="M934.38,538.75c0,.93,0,1.85-.11,2.76,0,.31,0,.6-.08.91a34.3,34.3,0,0,1-.53,3.54c-.17.87-.38,1.73-.62,2.57a38,38,0,0,1-1.43,4.13v0a36.08,36.08,0,0,1-31.89,22.13l-.71,0a24.06,24.06,0,0,0,22.75-18.65v0c.08-.37.16-.74.22-1.11.12-.64.2-1.28.26-1.93,0-.16,0-.32,0-.48a2.28,2.28,0,0,0,0-.26c0-.26,0-.52,0-.79s0-.75,0-1.13v0c0-.15,0-.3,0-.46s0-.2,0-.31v-.16c0-.14,0-.28,0-.43l0-.26,0-.29a2.6,2.6,0,0,0,0-.26h0a1.79,1.79,0,0,0,0-.23c-.05-.4-.1-.8-.17-1.19,0-.2-.07-.39-.1-.59-.08-.39-.16-.78-.26-1.16a5.18,5.18,0,0,0-.14-.53.19.19,0,0,0,0-.08,5.26,5.26,0,0,0-.15-.53c-.05-.19-.11-.37-.17-.56s-.11-.35-.18-.52l0-.06c-.06-.17-.12-.35-.19-.52l-.21-.54c-.07-.18-.14-.35-.22-.52l0,0c-.07-.17-.15-.34-.23-.51s-.16-.35-.25-.53-.17-.34-.26-.51l-.27-.51q-.42-.75-.9-1.47c-.2-.33-.42-.64-.65-.95-.11-.15-.22-.31-.34-.46a24,24,0,0,0-19.14-9.48,23.86,23.86,0,0,0-9.08,1.78l-.54.22c-.17.08-.35.15-.52.24-.35.16-.69.33-1,.51h0l-.5.27-.5.28-.49.3c-.49.3-1,.63-1.43,1-.31.22-.61.45-.91.69l-.44.36c-.15.12-.29.25-.43.38s-.57.51-.84.77-.28.27-.41.41l-.39.4h0c-.39.42-.77.85-1.12,1.29s-.48.59-.7.9l-.34.47c-.22.31-.43.63-.63,1-.11.16-.21.33-.31.49s-.19.33-.28.5c-.3.51-.57,1-.83,1.57-.07.16-.15.33-.21.49s-.18.38-.26.58l-.19.48-.21.55c-.13.36-.25.73-.37,1.1,0,.17-.09.33-.14.49s-.07.23-.1.35-.05.2-.07.29-.1.38-.14.58-.09.38-.13.57c-.11.57-.21,1.15-.28,1.73-.05.4-.09.81-.12,1.21l0,.41c0,.48,0,1,0,1.44v73.55a24.05,24.05,0,0,1-24,24v-97.6a48.16,48.16,0,0,1,26.26-42.86h0a48,48,0,0,1,18.59-5.11c.76-.05,1.53-.08,2.3-.1h1.86a36.06,36.06,0,0,1,32.48,22.45l.33.81.3.82c.09.28.19.56.28.84.27.83.52,1.68.72,2.54.07.29.14.58.2.87s.13.58.18.88.11.56.16.84a.69.69,0,0,0,0,.13c0,.26.08.51.11.77a.13.13,0,0,1,0,.06c0,.28.08.56.11.84a.43.43,0,0,0,0,.05c0,.25.05.5.08.75l0,.44,0,.38a3.87,3.87,0,0,1,0,.48l0,.47c0,.2,0,.4,0,.6a1.2,1.2,0,0,1,0,.19C934.37,538.2,934.38,538.48,934.38,538.75Z" transform="translate(-311.45 -91.24)"/><circle class="cls-4" cx="586.85" cy="460.25" r="24.06"/><circle class="cls-4" cx="586.85" cy="448.22" r="36.08"/><circle class="cls-4" cx="582.28" cy="443.65" r="31.51"/><path class="cls-10" d="M1102,550.38a48.92,48.92,0,0,1-73.35,42.36V550.82c0,.15,0,.29,0,.44v.23c0,.1,0,.2,0,.31l0,.36c0,.27,0,.53.07.8s0,.32,0,.48,0,.19,0,.29,0,.18,0,.27,0,.1,0,.15,0,.29.07.43l0,.16.09.48.12.57s0,0,0,.06c0,.18.09.36.13.54a25.33,25.33,0,0,0,1.49,4.21,24.46,24.46,0,0,0,21.51,14.22h1.42l.72,0A36.69,36.69,0,0,0,1087,552.3v0a35.31,35.31,0,0,0,1.46-4.2c.24-.86.46-1.73.63-2.62a35.47,35.47,0,0,0,.54-3.6c0-.3.06-.61.08-.92.08-.92.11-1.86.11-2.8,0-.29,0-.57,0-.85a1.21,1.21,0,0,0,0-.19c0-.2,0-.41,0-.62s0-.32,0-.47a3.91,3.91,0,0,0,0-.49c0-.13,0-.25,0-.38s0-.31,0-.46-.05-.51-.09-.76v0c0-.29-.07-.58-.11-.86,0,0,0,0,0-.06q0-.39-.12-.78s0-.1,0-.14c0-.28-.1-.57-.16-.86s-.11-.59-.18-.89-.13-.59-.2-.88c-.21-.87-.46-1.74-.74-2.58-.09-.29-.18-.57-.28-.85s-.2-.56-.31-.84-.21-.55-.33-.82a36.68,36.68,0,0,0-33-22.83A48.9,48.9,0,0,1,1102,550.38Z" transform="translate(-311.45 -91.24)"/><path class="cls-12" d="M1089.8,538.14c0,.94,0,1.88-.11,2.8,0,.31,0,.62-.08.92a35.47,35.47,0,0,1-.54,3.6c-.17.89-.39,1.76-.63,2.62a35.31,35.31,0,0,1-1.46,4.2v0a36.69,36.69,0,0,1-32.43,22.5l-.72,0a24.42,24.42,0,0,0,23.13-19v0c.09-.38.16-.75.23-1.14.11-.64.2-1.29.26-2,0-.16,0-.32,0-.48s0-.18,0-.27c0-.27,0-.53,0-.8s0-.76,0-1.15v0c0-.15,0-.31,0-.46s0-.22,0-.32V549c0-.15,0-.3,0-.44l0-.26,0-.3a2.48,2.48,0,0,0,0-.27h0a1.79,1.79,0,0,0,0-.23c-.05-.41-.1-.81-.17-1.21,0-.2-.07-.4-.11-.6-.07-.4-.16-.79-.26-1.18,0-.18-.09-.36-.14-.54a.19.19,0,0,0,0-.08l-.15-.54c-.06-.19-.11-.38-.18-.57s-.11-.35-.18-.53l0-.06c-.06-.18-.13-.35-.19-.53s-.14-.37-.22-.55-.14-.35-.22-.52l0,0c-.07-.17-.15-.35-.24-.52s-.16-.35-.25-.53a5.12,5.12,0,0,0-.27-.52c-.08-.17-.18-.35-.27-.52-.29-.51-.59-1-.91-1.5-.21-.33-.43-.64-.67-1l-.34-.47a24.43,24.43,0,0,0-19.46-9.64,24.22,24.22,0,0,0-9.23,1.81l-.55.23-.54.24c-.35.16-.7.33-1,.52h0l-.5.27c-.18.09-.35.19-.51.29s-.34.2-.5.31c-.5.3-1,.63-1.46,1-.31.23-.62.46-.92.71l-.45.37-.44.38c-.29.25-.58.52-.86.79s-.28.27-.41.41l-.4.41h0c-.4.42-.78.86-1.14,1.31-.26.3-.49.61-.72.92l-.34.47c-.23.32-.44.64-.65,1-.1.17-.21.33-.3.5l-.3.5c-.29.53-.57,1.06-.83,1.61-.08.16-.15.32-.22.49s-.18.39-.26.59-.14.33-.2.49l-.21.56c-.13.37-.26.74-.37,1.12l-.15.5a3.57,3.57,0,0,0-.1.35c0,.1,0,.2-.08.3s-.09.39-.14.58l-.12.59c-.12.58-.22,1.16-.29,1.76,0,.4-.09.82-.13,1.23,0,.14,0,.28,0,.42,0,.48,0,1,0,1.46v74.77a24.46,24.46,0,0,1-24.45,24.46V550.38a49,49,0,0,1,26.7-43.58h0a48.56,48.56,0,0,1,18.9-5.2c.77,0,1.55-.08,2.34-.1h1.89a36.68,36.68,0,0,1,33,22.83l.33.82c.1.28.2.56.31.84s.19.56.28.85c.28.84.53,1.71.74,2.58.07.3.14.59.2.88s.13.59.18.89.11.58.16.86c0,0,0,.09,0,.14,0,.26.08.52.12.78,0,0,0,0,0,.06,0,.28.08.57.11.86v0l.09.76c0,.15,0,.31,0,.46l0,.38a3.91,3.91,0,0,1,0,.49c0,.15,0,.31,0,.47s0,.42,0,.62a1.21,1.21,0,0,1,0,.19C1089.8,537.57,1089.8,537.85,1089.8,538.14Z" transform="translate(-311.45 -91.24)"/><path class="cls-15" d="M1089.8,537.61c0-.11,0-.21,0-.32a1.21,1.21,0,0,0,0-.19c0-.2,0-.41,0-.62s0-.32,0-.47a3.91,3.91,0,0,0,0-.49l0-.38c0-.15,0-.31,0-.46l-.09-.76v0c0-.29-.07-.58-.11-.86,0,0,0,0,0-.06,0-.26-.07-.52-.12-.78,0,0,0-.1,0-.14,0-.28-.1-.57-.16-.86s-.11-.59-.18-.89-.13-.58-.2-.88c-.22-.87-.46-1.74-.74-2.58-.09-.29-.19-.57-.28-.85s-.21-.56-.31-.84l-.33-.82a36.67,36.67,0,0,0-34.53-22.82c-.79,0-1.57.05-2.34.11a32.15,32.15,0,0,1,27.21,46.16h0l0,.27,0,.3,0,.26c0,.14,0,.29,0,.44v.16c0,.1,0,.21,0,.32s0,.31,0,.46v0c0,.39,0,.77,0,1.15s0,.53,0,.8c0,.09,0,.18,0,.27s0,.32,0,.48c-.06.67-.15,1.32-.26,2-.07.39-.14.76-.23,1.14v0a23.73,23.73,0,0,1-1.47,4.43,24.46,24.46,0,0,1-20.94,14.52l-1,0h-1c.39,0,.79,0,1.19,0A36.69,36.69,0,0,0,1087,552.3v0a35.31,35.31,0,0,0,1.46-4.2c.24-.86.46-1.73.63-2.62a35.47,35.47,0,0,0,.54-3.6c0-.3.06-.61.08-.92.08-.92.11-1.86.11-2.8Z" transform="translate(-311.45 -91.24)"/></svg>