<svg id="Livello_1" data-name="Livello 1" xmlns="http://www.w3.org/2000/svg" xmlns:xlink="http://www.w3.org/1999/xlink" viewBox="0 0 846.82 576.32"><defs><style>.cls-1{fill:#fff;}.cls-2,.cls-4,.cls-9{opacity:0.5;}.cls-2{fill:url(#Sfumatura_senza_nome_4);}.cls-3{font-size:72px;}.cls-10,.cls-11,.cls-12,.cls-13,.cls-14,.cls-15,.cls-3,.cls-6,.cls-9{fill:#663f91;}.cls-10,.cls-11,.cls-12,.cls-13,.cls-14,.cls-15,.cls-3{font-family:ArimaMadurai-ExtraBold, Arima Madurai;font-weight:800;}.cls-4,.cls-5,.cls-8{fill:#828bc4;}.cls-16,.cls-5,.cls-7{opacity:0.51;}.cls-19,.cls-6{opacity:0.44;}.cls-7{fill:#eb5b28;}.cls-8{font-size:18px;font-family:ArimaMadurai-Regular, Arima Madurai;}.cls-10{font-size:12.93px;}.cls-11{font-size:12.35px;}.cls-12{font-size:12.34px;}.cls-13{font-size:12.47px;}.cls-14{font-size:12.57px;}.cls-15{font-size:12.93px;}.cls-16{fill:url(#Sfumatura_senza_nome_6);}.cls-17{opacity:0.48;fill:url(#Sfumatura_senza_nome_6-2);}.cls-18{fill:none;}.cls-19{fill:url(#Sfumatura_senza_nome_6-3);}</style><linearGradient id="Sfumatura_senza_nome_4" x1="306.37" y1="198.16" x2="454.63" y2="198.16" gradientUnits="userSpaceOnUse"><stop offset="0" stop-color="#ba9bc9"/><stop offset="1" stop-color="#474c9b"/></linearGradient><linearGradient id="Sfumatura_senza_nome_6" x1="1018.07" y1="575.28" x2="1082.65" y2="575.28" gradientUnits="userSpaceOnUse"><stop offset="0" stop-color="#828bc5"/><stop offset="1" stop-color="#6bc4cd"/></linearGradient><linearGradient id="Sfumatura_senza_nome_6-2" x1="1009" y1="566.23" x2="1082.63" y2="566.23" xlink:href="#Sfumatura_senza_nome_6"/><linearGradient id="Sfumatura_senza_nome_6-3" x1="865.93" y1="574.55" x2="903.14" y2="574.55" xlink:href="#Sfumatura_senza_nome_6"/></defs><title>ld-slide4</title><rect class="cls-1" width="846.82" height="576.32"/><path class="cls-2" d="M454.63,198.15a98.86,98.86,0,0,1-148.26,85.61V199l0,.9,0,.45,0,.63c0,.25,0,.5.05.74,0,.54.09,1.08.14,1.61,0,.33.07.65.11,1s.05.39.08.58.05.37.07.55,0,.21.05.31c.05.29.1.57.14.86l.06.33c.06.33.12.65.19,1s.15.77.24,1.15l0,.13c.08.36.17.72.26,1.07a48.63,48.63,0,0,0,3,8.52,49.42,49.42,0,0,0,43.47,28.75l1.44,0,1.43,0c.49,0,1,0,1.46-.05A74.15,74.15,0,0,0,424.21,202a.05.05,0,0,0,0,0,75.76,75.76,0,0,0,2.94-8.48c.5-1.74.92-3.5,1.28-5.3a72.33,72.33,0,0,0,1.09-7.27c.07-.62.12-1.23.17-1.86.14-1.87.22-3.76.21-5.67,0-.57,0-1.14,0-1.72,0-.12,0-.25,0-.37,0-.42,0-.84-.05-1.25s0-.65,0-1l-.06-1-.06-.77c0-.31-.05-.62-.08-.92,0-.52-.1-1-.17-1.54a.31.31,0,0,0,0-.09c-.06-.58-.13-1.16-.22-1.73a.5.5,0,0,0,0-.12c-.06-.53-.15-1.06-.24-1.59,0-.09,0-.18,0-.27-.09-.58-.2-1.16-.32-1.73s-.23-1.21-.36-1.8-.27-1.19-.41-1.78c-.43-1.77-.93-3.52-1.49-5.23-.18-.57-.38-1.15-.58-1.71s-.4-1.13-.62-1.69-.42-1.12-.66-1.68A74.15,74.15,0,0,0,357.7,99.33,98.84,98.84,0,0,1,454.63,198.15Z" transform="translate(-306.37 -99.33)"/><text class="cls-3" transform="translate(13.09 116.03)">La lettera C</text><path class="cls-4" d="M413.56,397a46.74,46.74,0,0,1-18.84,37.56h0c-.5.37-1,.74-1.52,1.09a46.82,46.82,0,1,1,1.37-76.34l.13.1h0A46.75,46.75,0,0,1,413.56,397Z" transform="translate(-306.37 -99.33)"/><circle class="cls-4" cx="190.14" cy="299.42" r="19.44"/><circle class="cls-4" cx="138.65" cy="299.42" r="29.28"/><path class="cls-5" d="M1128.3,397a45.89,45.89,0,0,1-18.51,36.9h0c-.49.37-1,.73-1.49,1.07a46,46,0,0,1-67.83-57.09,45.22,45.22,0,0,1,5.5-9.08,46,46,0,0,1,63.68-8.83l.12.09,0,0A45.93,45.93,0,0,1,1128.3,397Z" transform="translate(-306.37 -99.33)"/><circle class="cls-5" cx="771.71" cy="297.64" r="19.1"/><circle class="cls-5" cx="780.79" cy="297.64" r="28.77"/><path class="cls-6" d="M1112.06,351h0a17.61,17.61,0,0,1-2.43,9,17.81,17.81,0,0,1-15.38,8.83H1046A45.85,45.85,0,0,1,1082.3,351Z" transform="translate(-306.37 -99.33)"/><path class="cls-6" d="M1110.19,443H1082.3A46,46,0,0,1,1046,425.17h46.42a17.8,17.8,0,0,1,17.81,17.8Z" transform="translate(-306.37 -99.33)"/><path class="cls-5" d="M436.94,595.17H425.35a29.11,29.11,0,0,1,0-57h12.95a18,18,0,0,0,15.56-8.92,46.54,46.54,0,0,0-55.41.09,46.58,46.58,0,0,0-14.57,18,46.54,46.54,0,0,0,68.61,57.75A18,18,0,0,0,436.94,595.17Z" transform="translate(-306.37 -99.33)"/><path class="cls-7" d="M436.45,595.16h-11.1a29.38,29.38,0,0,0,5.82.58,28.78,28.78,0,0,0,5.76-.57Zm-5.28-57.61a29.05,29.05,0,0,0-5.78.57H437A29.08,29.08,0,0,0,431.17,537.55Z" transform="translate(-306.37 -99.33)"/><path class="cls-6" d="M456.37,520.1h0a18,18,0,0,1-18,18H389.48a46.81,46.81,0,0,1,9-8.83,46.29,46.29,0,0,1,27.76-9.19Z" transform="translate(-306.37 -99.33)"/><path class="cls-6" d="M454.47,613.17H426.25a46.49,46.49,0,0,1-36.76-18h47.45a18,18,0,0,1,17.53,18Z" transform="translate(-306.37 -99.33)"/><path class="cls-5" d="M816.29,397a45.86,45.86,0,0,1-18.47,36.82h0c-.49.37-1,.72-1.5,1.06a45.85,45.85,0,0,1-62.17-9.76,45,45,0,0,1-5.51-9.07,45.92,45.92,0,0,1,5.49-47.19,46.42,46.42,0,0,1,8.89-8.71,45.92,45.92,0,0,1,54.65-.09l.13.09h0A45.85,45.85,0,0,1,816.29,397Z" transform="translate(-306.37 -99.33)"/><circle class="cls-5" cx="459.8" cy="297.64" r="19.06"/><circle class="cls-5" cx="468.87" cy="297.64" r="28.7"/><text class="cls-8" transform="translate(143.9 165.81)">Mi sono concentrato fin da subito sulle linee arrotondate che caratterizzano <tspan x="0" y="21.6">questa lettera. Per questo motivo ho utilizzato cerchi di diverse dimensioni </tspan><tspan x="0" y="43.2" xml:space="preserve">e rettancoli con bordi  arrotondati per dar forma alla prima parte del logo. </tspan><tspan x="0" y="64.8" xml:space="preserve">Importante è stato l’utilizzo dello strumento crea forme.  </tspan></text><rect class="cls-9" x="569.41" y="385.58" width="81.64" height="24.82" rx="12.41" transform="translate(-94.13 908.88) rotate(-90)"/><rect class="cls-9" x="536.06" y="386.8" width="85.6" height="20.34" transform="translate(-124.48 876.5) rotate(-90)"/><rect class="cls-9" x="601.28" y="386.8" width="85.6" height="20.34" transform="translate(-59.26 941.72) rotate(-90)"/><rect class="cls-9" x="616.95" y="384.64" width="81.64" height="24.82" rx="12.41" transform="translate(-45.65 955.49) rotate(-90)"/><path class="cls-5" d="M984.87,397A44.41,44.41,0,0,1,967,432.65h0c-.48.36-1,.7-1.45,1a44.49,44.49,0,0,1-60.27-64,45,45,0,0,1,8.61-8.44,44.52,44.52,0,0,1,53-.09l.12.09h0A44.42,44.42,0,0,1,984.87,397Z" transform="translate(-306.37 -99.33)"/><circle class="cls-5" cx="629.93" cy="297.64" r="18.47"/><circle class="cls-5" cx="638.72" cy="297.64" r="27.82"/><path class="cls-9" d="M971.76,353a11.15,11.15,0,0,1,.64,3.7,12,12,0,0,1-4.6,9.2,17.46,17.46,0,0,1-11.11,3.8H884.76c-8.67,0-15.7-5.82-15.7-13a10.9,10.9,0,0,1,.64-3.7Z" transform="translate(-306.37 -99.33)"/><path class="cls-9" d="M971.76,440.93a11.14,11.14,0,0,0,.64-3.69,12,12,0,0,0-4.6-9.2,17.47,17.47,0,0,0-11.11-3.81H884.76c-8.67,0-15.7,5.82-15.7,13a10.89,10.89,0,0,0,.64,3.69Z" transform="translate(-306.37 -99.33)"/><text class="cls-10" transform="translate(37.3 361)">step. 1</text><text class="cls-11" transform="translate(250.65 360.88)">step. 2</text><text class="cls-12" transform="translate(418.12 360.88)">step. 3</text><text class="cls-13" transform="translate(562.69 360.9)">step. 4</text><text class="cls-14" transform="translate(729.93 360.92)">step. 5</text><text class="cls-15" transform="translate(64.4 533.99)">step. 6</text><text class="cls-15" transform="translate(389.95 533.99)">step. 8</text><text class="cls-15" transform="translate(550.2 533.99)">step. 9</text><text class="cls-15" transform="translate(702.63 533.99)">step. 10</text><text class="cls-15" transform="translate(230.56 533.99)">step. 7</text><path class="cls-16" d="M1082.65,612.5v0h-29.2a37.27,37.27,0,0,1-1.15-74.36c1.16-.1,2.33-.13,3.51-.12l.87,0c-15.82.55-28.57,12.73-28.77,27.83-.19,14.81,11.74,27.1,27.11,28.44.79.08,1.6.11,2.41.12a30.42,30.42,0,0,0,3.18-.12h3.84a18.15,18.15,0,0,1,15.62,8.85,14.9,14.9,0,0,1,.88,1.68A17.92,17.92,0,0,1,1082.65,612.5Z" transform="translate(-306.37 -99.33)"/><path class="cls-17" d="M1082.63,520h0a18,18,0,0,1-1.69,7.65,18.18,18.18,0,0,1-16.5,10.53h-6.06c-.56,0-1.14-.08-1.71-.11l-.87,0c-1.18,0-2.35,0-3.51.13a37.27,37.27,0,0,0,1.15,74.36h-.34a46.27,46.27,0,0,1-40.79-29.07,46.3,46.3,0,0,1,.87-36.45,45.23,45.23,0,0,1,2.66-5c.83-1.34,1.71-2.63,2.64-3.85a45.89,45.89,0,0,1,9.54-9.35c.48-.35,1-.69,1.45-1a46.55,46.55,0,0,1,21.75-7.7c.62-.06,1.23-.1,1.84-.12Z" transform="translate(-306.37 -99.33)"/><path class="cls-6" d="M1035.62,606.45a31.36,31.36,0,0,0,4.05,2.55,37.18,37.18,0,0,1,15.64-70.92h.55a28.42,28.42,0,0,0-27.95,27.4A30.83,30.83,0,0,0,1026,569a30.75,30.75,0,0,0,0,25.53A30.86,30.86,0,0,0,1035.62,606.45Z" transform="translate(-306.37 -99.33)"/><path class="cls-18" d="M509.6,613.05l1,.06h-.12l-.73-.05h-.25l-.26,0h-.21l-.32,0h-.18l-.11,0-.35,0-.48-.06.48.06.35,0,.16,0,.29,0a1.33,1.33,0,0,0,.21,0h.21l.29,0" transform="translate(-306.37 -99.33)"/><path class="cls-18" d="M509.6,613.05l1,.06h-.12l-.73-.05h-.25l-.26,0h-.21l-.32,0h-.18l-.11,0-.35,0-.48-.06.48.06.35,0,.16,0,.29,0a1.33,1.33,0,0,0,.21,0h.21l.29,0" transform="translate(-306.37 -99.33)"/><path class="cls-4" d="M584.21,538.26c1.2,0,2.28,0,2.54,0h6.11a18.36,18.36,0,0,0,16.65-10.63,18.1,18.1,0,0,0,1.7-7.72H581.39c-.62,0-1.24.06-1.87.12a46.83,46.83,0,0,0-21.93,7.77c-.49.33-1,.67-1.47,1a46,46,0,0,0-9.62,9.44,44.94,44.94,0,0,0-2.66,3.88,44.29,44.29,0,0,0-2.68,5,46.73,46.73,0,0,0,40.26,66.09h29.81a18.32,18.32,0,0,0-1.71-7.72,15,15,0,0,0-.89-1.68A18.38,18.38,0,0,0,592.87,595H589a31.09,31.09,0,0,1-3.21.13c-.82,0-1.63-.05-2.43-.13-15.51-1.34-27.54-13.74-27.35-28.68s12.63-27.1,28.2-28l.82,0c-.2,0-1.61,0-2.85,0h2ZM578.75,613c1,.13,2,.22,3,.27h-.12C580.67,613.26,579.71,613.17,578.75,613Z" transform="translate(-306.37 -99.33)"/><ellipse class="cls-9" cx="278" cy="467.31" rx="28.36" ry="27.71"/><path class="cls-4" d="M728.3,610.27a39.21,39.21,0,0,0,4.79,1.65A35.13,35.13,0,0,1,728.3,610.27Zm15.15-71.93c1.19,0,2.27,0,2.53,0h6.1a18.29,18.29,0,0,0,18.29-18.28H740.63c-.61,0-1.23.07-1.85.12A46.62,46.62,0,0,0,716.92,528c-.5.32-1,.67-1.47,1a46.17,46.17,0,0,0-9.6,9.4c-.93,1.23-1.82,2.52-2.65,3.87a44.93,44.93,0,0,0-2.67,5,46.59,46.59,0,0,0,40.14,65.89h29.72v0a18.11,18.11,0,0,0-1.71-7.68,15.11,15.11,0,0,0-.89-1.69,18.25,18.25,0,0,0-15.71-8.9h-3.86A28.17,28.17,0,0,1,745,595q-1.23,0-2.43-.12c-15.46-1.35-27.45-13.71-27.26-28.6s12.59-27,28.11-27.95l.81,0c-.2,0-1.6,0-2.84,0h2ZM738,612.9c1,.13,2,.22,3,.27h-.12C739.92,613.11,739,613,738,612.9Z" transform="translate(-306.37 -99.33)"/><ellipse class="cls-9" cx="437.38" cy="467.69" rx="28.27" ry="27.62"/><ellipse class="cls-9" cx="432.75" cy="483.71" rx="28.38" ry="29.48"/><path class="cls-4" d="M887.94,610.05a38.67,38.67,0,0,0,4.69,1.61A35,35,0,0,1,887.94,610.05ZM902.8,539.5c1.17,0,2.22,0,2.47,0h6a17.94,17.94,0,0,0,18-17.93H900l-1.82.12a45.84,45.84,0,0,0-21.44,7.6c-.49.32-1,.66-1.44,1a45.12,45.12,0,0,0-9.41,9.22q-1.36,1.8-2.6,3.8a44.84,44.84,0,0,0-2.62,4.92,45.59,45.59,0,0,0-.85,36,44.94,44.94,0,0,0,6.06,10.72,45.74,45.74,0,0,0,34.16,17.95h29.14v0a17.78,17.78,0,0,0-1.67-7.54,14.41,14.41,0,0,0-.87-1.65A18,18,0,0,0,911.26,595h-3.78a27.3,27.3,0,0,1-3.14.12c-.8,0-1.59-.05-2.38-.12-15.16-1.32-26.92-13.44-26.73-28.05s12.34-26.5,27.57-27.41l.79,0c-.19,0-1.57,0-2.78,0h2Zm-5.34,73.12c1,.13,1.95.22,2.94.27h-.11C899.33,612.83,898.39,612.75,897.46,612.62Z" transform="translate(-306.37 -99.33)"/><path class="cls-19" d="M883.18,607a29.4,29.4,0,0,0,4,2.51,36.67,36.67,0,0,1,15.43-69.94h.54a28.06,28.06,0,0,0-27.56,27,30.84,30.84,0,0,0-1.88,3.49A30.34,30.34,0,0,0,883.18,607Z" transform="translate(-306.37 -99.33)"/><ellipse class="cls-9" cx="596.94" cy="467.92" rx="27.73" ry="27.09"/><ellipse class="cls-9" cx="592.39" cy="483.35" rx="27.83" ry="28.91"/><ellipse class="cls-9" cx="591.99" cy="476.7" rx="32.44" ry="35.5"/></svg>