<svg id="Livello_1" data-name="Livello 1" xmlns="http://www.w3.org/2000/svg" xmlns:xlink="http://www.w3.org/1999/xlink" viewBox="0 0 839.08 594.06"><defs><style>.cls-1{fill:#fff;}.cls-11,.cls-14,.cls-15,.cls-18,.cls-2,.cls-21,.cls-22,.cls-25,.cls-28,.cls-29,.cls-32,.cls-35,.cls-36,.cls-39,.cls-7,.cls-8{opacity:0.44;}.cls-2{fill:url(#Sfumatura_senza_nome_6);}.cls-12,.cls-19,.cls-26,.cls-3,.cls-33,.cls-5{opacity:0.5;}.cls-3{fill:url(#Sfumatura_senza_nome_4);}.cls-4{font-size:72px;font-family:ArimaMadurai-ExtraBold, Arima Madurai;font-weight:800;}.cls-4,.cls-40{fill:#663f91;}.cls-5{fill:url(#Sfumatura_senza_nome_38);}.cls-10,.cls-13,.cls-17,.cls-20,.cls-24,.cls-27,.cls-31,.cls-34,.cls-38,.cls-6{opacity:0.48;}.cls-6{fill:url(#Sfumatura_senza_nome_38-2);}.cls-7{fill:url(#Sfumatura_senza_nome_38-3);}.cls-8{fill:url(#Sfumatura_senza_nome_38-4);}.cls-16,.cls-23,.cls-30,.cls-37,.cls-9{opacity:0.51;}.cls-9{fill:url(#Sfumatura_senza_nome_6-2);}.cls-10{fill:url(#Sfumatura_senza_nome_6-3);}.cls-11{fill:url(#Sfumatura_senza_nome_6-4);}.cls-12{fill:url(#Sfumatura_senza_nome_38-5);}.cls-13{fill:url(#Sfumatura_senza_nome_38-6);}.cls-14{fill:url(#Sfumatura_senza_nome_38-7);}.cls-15{fill:url(#Sfumatura_senza_nome_38-8);}.cls-16{fill:url(#Sfumatura_senza_nome_6-5);}.cls-17{fill:url(#Sfumatura_senza_nome_6-6);}.cls-18{fill:url(#Sfumatura_senza_nome_6-7);}.cls-19{fill:url(#Sfumatura_senza_nome_38-9);}.cls-20{fill:url(#Sfumatura_senza_nome_38-10);}.cls-21{fill:url(#Sfumatura_senza_nome_38-11);}.cls-22{fill:url(#Sfumatura_senza_nome_38-12);}.cls-23{fill:url(#Sfumatura_senza_nome_6-8);}.cls-24{fill:url(#Sfumatura_senza_nome_6-9);}.cls-25{fill:url(#Sfumatura_senza_nome_6-10);}.cls-26{fill:url(#Sfumatura_senza_nome_38-13);}.cls-27{fill:url(#Sfumatura_senza_nome_38-14);}.cls-28{fill:url(#Sfumatura_senza_nome_38-15);}.cls-29{fill:url(#Sfumatura_senza_nome_38-16);}.cls-30{fill:url(#Sfumatura_senza_nome_6-11);}.cls-31{fill:url(#Sfumatura_senza_nome_6-12);}.cls-32{fill:url(#Sfumatura_senza_nome_6-13);}.cls-33{fill:url(#Sfumatura_senza_nome_38-17);}.cls-34{fill:url(#Sfumatura_senza_nome_38-18);}.cls-35{fill:url(#Sfumatura_senza_nome_38-19);}.cls-36{fill:url(#Sfumatura_senza_nome_38-20);}.cls-37{fill:url(#Sfumatura_senza_nome_6-14);}.cls-38{fill:url(#Sfumatura_senza_nome_6-15);}.cls-39{fill:url(#Sfumatura_senza_nome_6-16);}.cls-40{font-size:25px;font-family:ArimaMadurai-Medium, Arima Madurai;font-weight:500;}</style><linearGradient id="Sfumatura_senza_nome_6" x1="1124.23" y1="662.08" x2="1124.27" y2="662.08" gradientUnits="userSpaceOnUse"><stop offset="0" stop-color="#828bc5"/><stop offset="1" stop-color="#6bc4cd"/></linearGradient><linearGradient id="Sfumatura_senza_nome_4" x1="311.78" y1="190.89" x2="460.04" y2="190.89" gradientUnits="userSpaceOnUse"><stop offset="0" stop-color="#ba9bc9"/><stop offset="1" stop-color="#474c9b"/></linearGradient><linearGradient id="Sfumatura_senza_nome_38" x1="454.59" y1="449.87" x2="569.14" y2="449.87" xlink:href="#Sfumatura_senza_nome_4"/><linearGradient id="Sfumatura_senza_nome_38-2" x1="416.4" y1="489.16" x2="550.05" y2="489.16" xlink:href="#Sfumatura_senza_nome_4"/><linearGradient id="Sfumatura_senza_nome_38-3" x1="454.88" y1="454.86" x2="454.94" y2="454.86" xlink:href="#Sfumatura_senza_nome_4"/><linearGradient id="Sfumatura_senza_nome_38-4" x1="488.24" y1="430.79" x2="550.05" y2="430.79" xlink:href="#Sfumatura_senza_nome_4"/><linearGradient id="Sfumatura_senza_nome_6-2" x1="417.83" y1="450.47" x2="551.31" y2="450.47" xlink:href="#Sfumatura_senza_nome_6"/><linearGradient id="Sfumatura_senza_nome_6-3" x1="399.06" y1="431.77" x2="551.28" y2="431.77" xlink:href="#Sfumatura_senza_nome_6"/><linearGradient id="Sfumatura_senza_nome_6-4" x1="417.93" y1="446.88" x2="495.93" y2="446.88" xlink:href="#Sfumatura_senza_nome_6"/><linearGradient id="Sfumatura_senza_nome_38-5" x1="643.72" y1="453.3" x2="739.18" y2="453.3" xlink:href="#Sfumatura_senza_nome_4"/><linearGradient id="Sfumatura_senza_nome_38-6" x1="611.9" y1="486.04" x2="723.27" y2="486.04" xlink:href="#Sfumatura_senza_nome_4"/><linearGradient id="Sfumatura_senza_nome_38-7" x1="643.97" y1="457.46" x2="644.02" y2="457.46" xlink:href="#Sfumatura_senza_nome_4"/><linearGradient id="Sfumatura_senza_nome_38-8" x1="671.77" y1="437.4" x2="723.27" y2="437.4" xlink:href="#Sfumatura_senza_nome_4"/><linearGradient id="Sfumatura_senza_nome_6-5" x1="613.09" y1="453.81" x2="724.32" y2="453.81" xlink:href="#Sfumatura_senza_nome_6"/><linearGradient id="Sfumatura_senza_nome_6-6" x1="597.45" y1="438.22" x2="724.3" y2="438.22" xlink:href="#Sfumatura_senza_nome_6"/><linearGradient id="Sfumatura_senza_nome_6-7" x1="613.18" y1="450.81" x2="678.17" y2="450.81" xlink:href="#Sfumatura_senza_nome_6"/><linearGradient id="Sfumatura_senza_nome_38-9" x1="802.24" y1="456.74" x2="878.61" y2="456.74" xlink:href="#Sfumatura_senza_nome_4"/><linearGradient id="Sfumatura_senza_nome_38-10" x1="776.78" y1="482.93" x2="865.88" y2="482.93" xlink:href="#Sfumatura_senza_nome_4"/><linearGradient id="Sfumatura_senza_nome_38-11" x1="802.43" y1="460.06" x2="802.48" y2="460.06" xlink:href="#Sfumatura_senza_nome_4"/><linearGradient id="Sfumatura_senza_nome_38-12" x1="824.67" y1="444.02" x2="865.88" y2="444.02" xlink:href="#Sfumatura_senza_nome_4"/><linearGradient id="Sfumatura_senza_nome_6-8" x1="777.73" y1="457.14" x2="866.72" y2="457.14" xlink:href="#Sfumatura_senza_nome_6"/><linearGradient id="Sfumatura_senza_nome_6-9" x1="765.22" y1="444.67" x2="866.7" y2="444.67" xlink:href="#Sfumatura_senza_nome_6"/><linearGradient id="Sfumatura_senza_nome_6-10" x1="777.8" y1="454.74" x2="829.8" y2="454.74" xlink:href="#Sfumatura_senza_nome_6"/><linearGradient id="Sfumatura_senza_nome_38-13" x1="933.04" y1="460.17" x2="990.32" y2="460.17" xlink:href="#Sfumatura_senza_nome_4"/><linearGradient id="Sfumatura_senza_nome_38-14" x1="913.95" y1="479.81" x2="980.77" y2="479.81" xlink:href="#Sfumatura_senza_nome_4"/><linearGradient id="Sfumatura_senza_nome_38-15" x1="933.19" y1="462.67" x2="933.22" y2="462.67" xlink:href="#Sfumatura_senza_nome_4"/><linearGradient id="Sfumatura_senza_nome_38-16" x1="949.87" y1="450.63" x2="980.77" y2="450.63" xlink:href="#Sfumatura_senza_nome_4"/><linearGradient id="Sfumatura_senza_nome_6-11" x1="914.66" y1="460.47" x2="981.4" y2="460.47" xlink:href="#Sfumatura_senza_nome_6"/><linearGradient id="Sfumatura_senza_nome_6-12" x1="905.28" y1="451.12" x2="981.39" y2="451.12" xlink:href="#Sfumatura_senza_nome_6"/><linearGradient id="Sfumatura_senza_nome_6-13" x1="914.71" y1="458.67" x2="953.71" y2="458.67" xlink:href="#Sfumatura_senza_nome_6"/><linearGradient id="Sfumatura_senza_nome_38-17" x1="1028.2" y1="463.6" x2="1066.39" y2="463.6" xlink:href="#Sfumatura_senza_nome_4"/><linearGradient id="Sfumatura_senza_nome_38-18" x1="1015.48" y1="476.7" x2="1060.03" y2="476.7" xlink:href="#Sfumatura_senza_nome_4"/><linearGradient id="Sfumatura_senza_nome_38-19" x1="1028.3" y1="465.27" x2="1028.32" y2="465.27" xlink:href="#Sfumatura_senza_nome_4"/><linearGradient id="Sfumatura_senza_nome_38-20" x1="1039.42" y1="457.24" x2="1060.03" y2="457.24" xlink:href="#Sfumatura_senza_nome_4"/><linearGradient id="Sfumatura_senza_nome_6-14" x1="1015.95" y1="463.8" x2="1060.45" y2="463.8" xlink:href="#Sfumatura_senza_nome_6"/><linearGradient id="Sfumatura_senza_nome_6-15" x1="1009.7" y1="457.57" x2="1060.44" y2="457.57" xlink:href="#Sfumatura_senza_nome_6"/><linearGradient id="Sfumatura_senza_nome_6-16" x1="1015.99" y1="462.6" x2="1041.98" y2="462.6" xlink:href="#Sfumatura_senza_nome_6"/></defs><title>ld-slide6</title><rect class="cls-1" width="839.08" height="594.06"/><path class="cls-2" d="M1124.27,662.24h0c0-.1,0-.21,0-.31C1124.24,662,1124.26,662.13,1124.27,662.24Z" transform="translate(-311.78 -92.06)"/><path class="cls-3" d="M460,190.88a98.84,98.84,0,0,1-148.26,85.6v-85.6c0,.25,0,.52,0,.77v.11c0,.3,0,.6,0,.89l0,.46q0,.31,0,.63c0,.25,0,.5,0,.74,0,.54.09,1.07.14,1.61,0,.33.08.65.11,1s.06.39.08.58.06.37.08.55,0,.21.05.31c0,.29.09.57.14.86l.06.33.18,1,.24,1.15,0,.13c.09.36.17.72.26,1.07a49.5,49.5,0,0,0,46.49,37.27l1.43,0,1.44,0c.49,0,1,0,1.46-.05a74.15,74.15,0,0,0,65.53-45.48v0a73.84,73.84,0,0,0,2.95-8.48c.49-1.74.92-3.51,1.27-5.3a72.34,72.34,0,0,0,1.1-7.27c.06-.62.12-1.24.16-1.86q.22-2.81.21-5.67c0-.57,0-1.14,0-1.72,0-.12,0-.25,0-.37,0-.42,0-.84-.05-1.26s0-.64-.05-1,0-.66-.06-1,0-.51-.06-.77,0-.62-.08-.92c0-.52-.09-1-.16-1.54,0,0,0-.06,0-.09-.06-.58-.14-1.16-.23-1.73a.49.49,0,0,0,0-.12c-.07-.54-.15-1.06-.24-1.59a2.51,2.51,0,0,1,0-.27c-.1-.58-.2-1.16-.32-1.73s-.23-1.21-.37-1.8-.26-1.19-.41-1.78c-.43-1.77-.92-3.52-1.49-5.23-.18-.58-.37-1.15-.58-1.72s-.39-1.12-.62-1.68-.42-1.12-.66-1.68a74.12,74.12,0,0,0-66.75-46.13A98.84,98.84,0,0,1,460,190.88Z" transform="translate(-311.78 -92.06)"/><text class="cls-4" transform="translate(13.09 116.03)">Grazie per l’attenzione</text><path class="cls-5" d="M569.14,449.86A76.38,76.38,0,0,1,454.59,516V450.54c0,.24,0,.47,0,.69l0,.36c0,.16,0,.32,0,.48s0,.39,0,.57c0,.42.06.83.1,1.25l.09.75.06.45.06.42a2,2,0,0,0,0,.24c0,.22.07.44.11.67,0,.08,0,.17,0,.25.05.25.09.5.14.75s.13.59.19.89a.36.36,0,0,1,0,.1l.21.83A38.15,38.15,0,0,0,491.66,488l1.11,0,1.11,0c.38,0,.75,0,1.13,0a57.27,57.27,0,0,0,50.63-35.14,0,0,0,0,0,0,0,55.67,55.67,0,0,0,2.28-6.55c.38-1.34.71-2.71,1-4.09a55.17,55.17,0,0,0,.85-5.62c0-.48.09-1,.13-1.44.11-1.45.17-2.9.16-4.38,0-.44,0-.88,0-1.33a1.43,1.43,0,0,0,0-.29c0-.32,0-.64,0-1s0-.49,0-.74,0-.51-.05-.76,0-.39,0-.59l-.06-.72c0-.39-.08-.79-.13-1.18,0,0,0-.05,0-.07,0-.45-.1-.9-.17-1.34,0,0,0-.06,0-.09-.06-.42-.12-.82-.19-1.23l0-.21c-.08-.45-.16-.9-.25-1.34s-.18-.93-.28-1.39-.21-.92-.32-1.37c-.33-1.37-.71-2.72-1.15-4.05q-.21-.66-.45-1.32c-.15-.44-.3-.87-.48-1.3s-.32-.87-.51-1.3a57.27,57.27,0,0,0-51.57-35.64A76.37,76.37,0,0,1,569.14,449.86Z" transform="translate(-311.78 -92.06)"/><path class="cls-6" d="M550.05,430.74c0,1.48,0,2.93-.16,4.38,0,.48-.08,1-.13,1.44a55.17,55.17,0,0,1-.85,5.62c-.27,1.38-.6,2.75-1,4.09a55.67,55.67,0,0,1-2.28,6.55,0,0,0,0,1,0,0A57.27,57.27,0,0,1,495,488c-.38,0-.75,0-1.13,0a38.21,38.21,0,0,0,33.82-22.71,37.61,37.61,0,0,0,2.3-6.91.64.64,0,0,1,0-.07c.13-.59.24-1.18.35-1.77.18-1,.32-2,.41-3.06,0-.25.05-.51.07-.76l0-.43c0-.41,0-.82.06-1.24,0-.59,0-1.19,0-1.8v0c0-.24,0-.48,0-.72s0-.33,0-.49,0-.17,0-.26,0-.46,0-.68l0-.41c0-.16,0-.31,0-.47s0-.28,0-.41h0c0-.12,0-.24,0-.36-.07-.64-.16-1.26-.27-1.89,0-.31-.1-.62-.17-.93-.11-.62-.24-1.24-.4-1.84a8.15,8.15,0,0,0-.22-.85l0-.13c-.07-.28-.15-.56-.24-.83a9.18,9.18,0,0,0-.28-.89,8.09,8.09,0,0,0-.28-.83l0-.09c-.09-.28-.2-.56-.3-.83s-.22-.58-.34-.86-.22-.55-.34-.82l0-.05c-.12-.28-.24-.55-.37-.82s-.26-.55-.4-.83-.27-.54-.42-.81-.28-.54-.43-.81c-.44-.8-.92-1.58-1.42-2.35-.33-.5-.67-1-1-1.49-.18-.25-.35-.49-.55-.74a38.17,38.17,0,0,0-44.8-12.23c-.29.11-.57.23-.85.36s-.56.24-.84.38c-.55.25-1.1.52-1.63.81h0l-.78.43c-.27.14-.54.3-.8.45s-.52.31-.78.48c-.77.48-1.53,1-2.27,1.52-.48.36-1,.72-1.44,1.11-.24.18-.47.37-.7.57s-.47.39-.69.6c-.46.39-.9.8-1.34,1.23l-.64.64c-.21.21-.42.43-.62.65h0c-.63.66-1.22,1.34-1.79,2-.39.47-.75.95-1.11,1.44-.18.24-.36.49-.53.74-.36.5-.69,1-1,1.51q-.25.39-.48.78c-.16.26-.31.52-.46.79-.46.81-.9,1.65-1.3,2.5-.13.26-.24.51-.35.77s-.28.61-.4.92-.22.51-.31.77-.23.58-.33.87c-.21.58-.41,1.16-.58,1.75-.08.26-.16.52-.23.78s-.11.36-.16.55l-.12.47c-.07.3-.15.6-.22.91s-.13.6-.2.91c-.18.9-.33,1.82-.45,2.75-.08.63-.14,1.28-.19,1.92,0,.22,0,.43,0,.65-.05.76-.07,1.52-.07,2.29V566.64a38.18,38.18,0,0,1-38.19,38.18v-155a76.42,76.42,0,0,1,41.7-68.06h0a75.61,75.61,0,0,1,29.52-8.12c1.21-.09,2.43-.14,3.65-.16.49,0,1,0,1.48,0s1,0,1.48,0a57.27,57.27,0,0,1,51.57,35.64c.18.43.35.86.51,1.3s.32.86.48,1.3l.45,1.32c.44,1.33.82,2.68,1.15,4.05.11.45.21.91.32,1.37s.2.92.28,1.39.17.89.25,1.34l0,.21c.07.41.13.81.19,1.23,0,0,0,.06,0,.09.06.44.12.89.17,1.34,0,0,0,.05,0,.07,0,.4.09.79.13,1.18l.06.72,0,.59c0,.25,0,.51.05.76s0,.5,0,.74,0,.65,0,1a1.43,1.43,0,0,1,0,.29C550.05,429.86,550.05,430.3,550.05,430.74Z" transform="translate(-311.78 -92.06)"/><path class="cls-7" d="M454.94,455.09h0l-.06-.44Z" transform="translate(-311.78 -92.06)"/><path class="cls-8" d="M550.05,429.91c0-.17,0-.33,0-.5a1.43,1.43,0,0,0,0-.29c0-.32,0-.64,0-1s0-.49,0-.74,0-.51-.05-.76l0-.59-.06-.72c0-.39-.09-.78-.13-1.18,0,0,0-.05,0-.07,0-.45-.11-.9-.17-1.34,0,0,0-.06,0-.09-.06-.42-.12-.82-.19-1.23l0-.21c-.08-.45-.16-.9-.25-1.34s-.18-.93-.28-1.39-.21-.92-.32-1.37c-.34-1.37-.72-2.72-1.15-4.05l-.45-1.32c-.16-.44-.31-.87-.48-1.3s-.33-.87-.51-1.3a57.27,57.27,0,0,0-53.93-35.63c-1.23,0-2.44.07-3.65.17a50.22,50.22,0,0,1,42.5,72.09h0c0,.13,0,.27,0,.41s0,.31,0,.47l0,.41c0,.22,0,.45,0,.68s0,.17,0,.26,0,.33,0,.49,0,.48,0,.72v0c0,.61,0,1.21,0,1.8,0,.42,0,.83-.06,1.24l0,.43c0,.25,0,.51-.07.76-.09,1-.23,2.05-.41,3.06-.1.59-.22,1.18-.35,1.77a.64.64,0,0,0,0,.07,36.87,36.87,0,0,1-2.3,6.91A38.16,38.16,0,0,1,495,488c-.55,0-1.1.06-1.65.07s-1.05,0-1.57,0c.62,0,1.24,0,1.86,0a57.28,57.28,0,0,0,52-35.21,0,0,0,0,0,0,0,53.91,53.91,0,0,0,2.28-6.55c.38-1.34.71-2.71,1-4.09a55.17,55.17,0,0,0,.85-5.62c0-.48.09-1,.13-1.44.11-1.45.17-2.9.16-4.38Z" transform="translate(-311.78 -92.06)"/><path class="cls-9" d="M551.31,527.42v0H491a77,77,0,0,1-2.36-153.71c2.39-.21,4.8-.28,7.24-.26l1.8,0c-32.7,1.14-59,26.32-59.47,57.54-.39,30.62,24.27,56,56,58.78,1.65.16,3.31.23,5,.26a62.21,62.21,0,0,0,6.57-.26h7.94A37.51,37.51,0,0,1,546,508.15a31.72,31.72,0,0,1,1.83,3.46A37.19,37.19,0,0,1,551.31,527.42Z" transform="translate(-311.78 -92.06)"/><path class="cls-10" d="M551.28,336.11v0a37.57,37.57,0,0,1-37.6,37.58H501.15c-1.17-.11-2.36-.17-3.55-.22l-1.8,0c-2.43,0-4.85.05-7.24.26a77,77,0,0,0,2.37,153.71h-.69a95.73,95.73,0,0,1-77-145.76q2.56-4.16,5.45-7.95A94.21,94.21,0,0,1,438.4,354.4c1-.73,2-1.43,3-2.11a96,96,0,0,1,45-15.92c1.26-.12,2.54-.21,3.8-.26Z" transform="translate(-311.78 -92.06)"/><path class="cls-11" d="M454.11,514.91a63.16,63.16,0,0,0,8.35,5.27,76.87,76.87,0,0,1,32.33-146.61h1.14a58.75,58.75,0,0,0-57.76,56.64,63.53,63.53,0,0,0,15.94,84.69Z" transform="translate(-311.78 -92.06)"/><path class="cls-12" d="M739.18,453.29a63.65,63.65,0,0,1-95.46,55.13V453.86c0,.2,0,.39,0,.58v.29l0,.41c0,.16,0,.32,0,.48l.09,1c0,.21.05.42.08.62s0,.26,0,.38,0,.24,0,.35,0,.14,0,.2l.09.56,0,.21.12.63c0,.24.11.49.16.73a.29.29,0,0,0,0,.09c.05.23.11.46.17.69a31.26,31.26,0,0,0,1.94,5.48,31.81,31.81,0,0,0,28,18.51l.92,0,.93,0,.93,0a47.73,47.73,0,0,0,42.2-29.28s0,0,0,0a46.29,46.29,0,0,0,1.89-5.46c.32-1.12.6-2.25.83-3.41a45.09,45.09,0,0,0,.7-4.68c0-.4.08-.8.11-1.2.09-1.2.14-2.42.13-3.65,0-.37,0-.74,0-1.11a1.93,1.93,0,0,0,0-.24c0-.26,0-.54,0-.8s0-.42,0-.62,0-.43,0-.63,0-.34,0-.5,0-.4-.05-.6-.06-.66-.1-1c0,0,0,0,0-.06,0-.38-.09-.75-.15-1.12a.25.25,0,0,0,0-.08q-.06-.51-.15-1l0-.17c-.06-.38-.13-.75-.2-1.12s-.15-.77-.24-1.16-.17-.76-.26-1.14c-.28-1.14-.6-2.27-1-3.37-.12-.37-.24-.74-.37-1.1s-.26-.73-.4-1.09-.27-.72-.43-1.08a47.73,47.73,0,0,0-43-29.7A63.63,63.63,0,0,1,739.18,453.29Z" transform="translate(-311.78 -92.06)"/><path class="cls-13" d="M723.27,437.36c0,1.23,0,2.45-.13,3.65,0,.4-.07.8-.11,1.2a45.09,45.09,0,0,1-.7,4.68c-.23,1.16-.51,2.29-.83,3.41a46.29,46.29,0,0,1-1.89,5.46s0,0,0,0a47.73,47.73,0,0,1-42.2,29.28l-.93,0a31.82,31.82,0,0,0,28.18-18.92,32.19,32.19,0,0,0,1.92-5.76v-.06c.11-.49.21-1,.3-1.48.14-.84.26-1.69.34-2.55,0-.21,0-.42,0-.63l0-.35c0-.35,0-.69.05-1s0-1,0-1.5v0c0-.2,0-.4,0-.6s0-.28,0-.41l0-.21c0-.19,0-.39,0-.57l0-.35c0-.12,0-.25,0-.38a2,2,0,0,0,0-.35h0l0-.31c-.06-.53-.13-1-.22-1.57,0-.26-.09-.52-.14-.78-.1-.51-.21-1-.34-1.53-.05-.24-.11-.47-.18-.71l0-.1c-.06-.24-.13-.47-.2-.7s-.14-.49-.23-.74-.15-.46-.23-.69l0-.08c-.08-.23-.16-.46-.25-.69s-.19-.48-.29-.72-.18-.45-.28-.68l0,0c-.1-.23-.2-.46-.31-.68s-.21-.46-.33-.69-.23-.46-.35-.68-.23-.45-.36-.67c-.37-.67-.77-1.32-1.19-2-.27-.42-.56-.84-.86-1.25-.14-.2-.29-.4-.45-.61a31.81,31.81,0,0,0-37.34-10.19c-.24.09-.47.19-.71.3l-.7.31c-.46.21-.91.44-1.35.68h0c-.23.11-.44.23-.66.36l-.66.37c-.22.13-.44.26-.65.4-.65.4-1.28.82-1.89,1.27-.41.29-.81.6-1.21.92-.19.16-.39.31-.58.48s-.39.32-.57.49c-.38.33-.76.68-1.12,1-.18.17-.36.35-.53.54s-.35.35-.52.53h0c-.52.55-1,1.12-1.49,1.71-.32.39-.63.79-.93,1.19-.15.21-.3.41-.44.62q-.44.63-.84,1.26l-.4.65c-.13.22-.26.44-.38.66-.39.68-.75,1.38-1.09,2.08-.1.22-.2.43-.29.64s-.23.51-.33.77-.18.43-.26.64-.19.48-.27.73c-.18.48-.34,1-.49,1.46-.06.22-.13.43-.19.64s-.09.31-.13.47-.07.26-.1.38-.13.51-.18.76-.12.51-.17.77c-.15.75-.28,1.51-.38,2.28-.06.53-.11,1.07-.16,1.61l0,.54c0,.63-.06,1.26-.06,1.9v97.32a31.82,31.82,0,0,1-31.82,31.82V453.29a63.69,63.69,0,0,1,34.75-56.71h0a63.18,63.18,0,0,1,24.6-6.77c1-.07,2-.11,3-.13l1.23,0,1.23,0a47.73,47.73,0,0,1,43,29.7c.15.36.29.72.43,1.08s.26.72.4,1.09.25.73.37,1.1c.36,1.1.68,2.23,1,3.37.09.38.18.76.26,1.14s.17.77.24,1.16.14.74.2,1.12l0,.17q.09.51.15,1a.25.25,0,0,1,0,.08c.06.37.11.74.15,1.12,0,0,0,0,0,.06,0,.33.07.65.1,1s0,.4.05.6l0,.5c0,.2,0,.42,0,.63s0,.41,0,.62,0,.54,0,.8a1.93,1.93,0,0,1,0,.24C723.27,436.62,723.27,437,723.27,437.36Z" transform="translate(-311.78 -92.06)"/><path class="cls-14" d="M644,457.65h0c0-.12,0-.24,0-.37C644,457.4,644,457.53,644,457.65Z" transform="translate(-311.78 -92.06)"/><path class="cls-15" d="M723.27,436.67c0-.14,0-.27,0-.42a1.93,1.93,0,0,0,0-.24c0-.26,0-.54,0-.8s0-.42,0-.62,0-.43,0-.63l0-.5c0-.2,0-.4-.05-.6s-.07-.65-.1-1c0,0,0,0,0-.06,0-.38-.09-.75-.15-1.12a.25.25,0,0,0,0-.08q-.06-.51-.15-1l0-.17c-.06-.38-.13-.75-.2-1.12s-.15-.77-.24-1.16-.17-.76-.26-1.14c-.28-1.14-.6-2.27-1-3.37-.12-.37-.25-.74-.37-1.1s-.27-.73-.4-1.09-.28-.72-.43-1.08a47.73,47.73,0,0,0-44.94-29.69c-1,0-2,.06-3,.14a41.84,41.84,0,0,1,35.41,60.08h0c0,.11,0,.23,0,.35s0,.26,0,.38l0,.35c0,.18,0,.38,0,.57l0,.21c0,.13,0,.27,0,.41s0,.4,0,.6v0c0,.51,0,1,0,1.5s0,.69-.05,1l0,.35c0,.21,0,.42,0,.63-.08.86-.2,1.71-.34,2.55-.09.5-.19,1-.3,1.48v.06a31.41,31.41,0,0,1-1.92,5.76,31.8,31.8,0,0,1-27.25,18.89c-.45,0-.91.05-1.37.05h-1.3c.51,0,1,0,1.55,0a47.73,47.73,0,0,0,43.32-29.34s0,0,0,0a44.55,44.55,0,0,0,1.89-5.46c.32-1.12.6-2.25.83-3.41a45.09,45.09,0,0,0,.7-4.68c0-.4.08-.8.11-1.2.09-1.2.14-2.42.13-3.65Z" transform="translate(-311.78 -92.06)"/><path class="cls-16" d="M724.32,517.93v0H674a64.19,64.19,0,0,1-2-128.09,60.33,60.33,0,0,1,6-.21l1.5,0c-27.25.94-49.2,21.93-49.55,47.94-.33,25.52,20.21,46.68,46.69,49,1.37.13,2.75.19,4.16.22,1.85,0,3.67-.06,5.48-.22H693a31.28,31.28,0,0,1,26.9,15.25,29.33,29.33,0,0,1,1.52,2.88A31.08,31.08,0,0,1,724.32,517.93Z" transform="translate(-311.78 -92.06)"/><path class="cls-17" d="M724.3,358.51v0A31.31,31.31,0,0,1,693,389.84H682.53c-1-.08-2-.14-3-.18l-1.5,0c-2,0-4,0-6,.21a64.19,64.19,0,0,0,2,128.09h-.57a79.8,79.8,0,0,1-68.77-112.85,77.58,77.58,0,0,1,4.59-8.61,79.83,79.83,0,0,1,4.54-6.63,78.79,78.79,0,0,1,16.44-16.1c.82-.6,1.66-1.19,2.5-1.75a79.94,79.94,0,0,1,37.46-13.27q1.59-.15,3.18-.21Z" transform="translate(-311.78 -92.06)"/><path class="cls-18" d="M643.32,507.5a52.27,52.27,0,0,0,7,4.39,64.06,64.06,0,0,1,27-122.17h.94A49,49,0,0,0,630,436.92a53.35,53.35,0,0,0-3.28,6.1,52.94,52.94,0,0,0,16.56,64.48Z" transform="translate(-311.78 -92.06)"/><path class="cls-19" d="M878.61,456.73a50.93,50.93,0,0,1-76.37,44.1V457.18c0,.16,0,.31,0,.47v.23c0,.11,0,.22,0,.33l0,.38c0,.27,0,.55.07.82s0,.34,0,.5,0,.21.05.31l0,.28,0,.16c0,.15.05.29.07.44l0,.17c0,.17.06.33.1.5l.12.59s0,.05,0,.07c0,.18.08.37.13.55a26.26,26.26,0,0,0,1.55,4.39A25.49,25.49,0,0,0,827,482.18h1.47l.76,0a38.18,38.18,0,0,0,33.75-23.42v0a40.09,40.09,0,0,0,1.52-4.36c.25-.9.47-1.81.65-2.73q.38-1.85.57-3.75c0-.32.06-.63.08-1,.08-1,.11-1.93.11-2.92,0-.29,0-.59,0-.88a1.34,1.34,0,0,0,0-.2c0-.21,0-.43,0-.64s0-.33,0-.5a4.07,4.07,0,0,0,0-.5,2.69,2.69,0,0,0,0-.4c0-.16,0-.32,0-.47s-.05-.53-.08-.8v0q0-.45-.12-.9v-.06c0-.27-.08-.54-.13-.81,0,0,0-.1,0-.14-.05-.3-.1-.6-.16-.9s-.12-.62-.19-.92l-.21-.92c-.22-.91-.48-1.81-.77-2.69-.09-.3-.19-.6-.3-.89s-.2-.58-.32-.87-.21-.57-.34-.86a38.16,38.16,0,0,0-34.38-23.76A50.9,50.9,0,0,1,878.61,456.73Z" transform="translate(-311.78 -92.06)"/><path class="cls-20" d="M865.88,444c0,1,0,2-.11,2.92,0,.33,0,.64-.08,1q-.2,1.9-.57,3.75c-.18.92-.4,1.83-.65,2.73A40.09,40.09,0,0,1,863,458.7v0a38.18,38.18,0,0,1-33.75,23.42l-.76,0A25.46,25.46,0,0,0,851,467a24.59,24.59,0,0,0,1.53-4.6v-.05c.09-.39.17-.78.24-1.18.12-.67.21-1.35.28-2,0-.17,0-.34,0-.51s0-.18,0-.28c0-.27,0-.55,0-.83s0-.79,0-1.19v0c0-.16,0-.32,0-.48s0-.22,0-.33v-.17c0-.15,0-.3,0-.45l0-.28a1.63,1.63,0,0,0,0-.31c0-.09,0-.18,0-.28h0l0-.24q-.08-.63-.18-1.26c0-.21-.07-.41-.11-.62q-.12-.63-.27-1.23c0-.19-.09-.38-.14-.56l0-.09a5.7,5.7,0,0,0-.16-.55,5.94,5.94,0,0,0-.18-.6c-.06-.19-.12-.37-.19-.55l0-.06c-.06-.19-.13-.37-.2-.56s-.15-.38-.23-.57-.14-.36-.23-.54c0,0,0,0,0,0-.08-.18-.16-.36-.25-.54s-.17-.37-.27-.56-.17-.36-.27-.54l-.29-.54c-.3-.53-.61-1.05-1-1.56-.22-.34-.45-.67-.69-1-.11-.16-.23-.32-.36-.49a25.37,25.37,0,0,0-20.26-10,25.21,25.21,0,0,0-9.61,1.89l-.57.24c-.18.07-.37.16-.56.25-.36.16-.73.34-1.08.54h0l-.52.28-.53.3-.52.32c-.52.32-1,.66-1.51,1-.33.23-.65.48-1,.74-.15.12-.31.24-.47.38s-.3.26-.45.39c-.31.27-.6.54-.89.82l-.43.43-.42.43h0c-.41.44-.81.9-1.18,1.36s-.51.64-.75,1l-.35.49c-.24.34-.46.67-.68,1l-.31.51c-.11.17-.21.35-.31.53-.31.54-.6,1.1-.87,1.67-.08.17-.16.34-.23.51l-.27.61c-.07.17-.14.34-.2.52s-.15.38-.22.57q-.21.58-.39,1.17l-.15.52c0,.12-.08.25-.11.37a2.81,2.81,0,0,1-.08.31c0,.2-.1.4-.14.61s-.1.4-.14.61q-.18.9-.3,1.83c-.05.42-.09.85-.13,1.28,0,.15,0,.29,0,.44,0,.5,0,1,0,1.52v77.85A25.46,25.46,0,0,1,776.78,560V456.73a51,51,0,0,1,27.8-45.37h0a50.58,50.58,0,0,1,19.68-5.42c.8-.05,1.62-.08,2.43-.1l1,0,1,0a38.16,38.16,0,0,1,34.38,23.76c.12.29.23.58.34.86s.22.58.32.87l.3.89c.29.88.55,1.78.77,2.69l.21.92c.07.31.13.61.19.92s.11.6.16.9c0,0,0,.09,0,.14,0,.27.09.54.13.81v.06q.07.45.12.9v0c0,.27.06.53.08.8s0,.31,0,.47l0,.4a4.07,4.07,0,0,1,0,.5c0,.17,0,.33,0,.5s0,.43,0,.64a1.34,1.34,0,0,1,0,.2C865.88,443.39,865.88,443.69,865.88,444Z" transform="translate(-311.78 -92.06)"/><path class="cls-21" d="M802.48,460.22h0c0-.1,0-.2,0-.3C802.45,460,802.46,460.12,802.48,460.22Z" transform="translate(-311.78 -92.06)"/><path class="cls-22" d="M865.88,443.43c0-.11,0-.22,0-.33a1.34,1.34,0,0,0,0-.2c0-.21,0-.43,0-.64s0-.33,0-.5a4.07,4.07,0,0,0,0-.5l0-.4c0-.16,0-.32,0-.47s-.05-.53-.08-.8v0q0-.45-.12-.9v-.06c0-.27-.08-.54-.13-.81,0,0,0-.1,0-.14-.05-.3-.1-.6-.16-.9s-.12-.61-.19-.92l-.21-.92c-.23-.91-.48-1.81-.77-2.69l-.3-.89c-.1-.29-.21-.58-.32-.87s-.22-.57-.34-.86a38.19,38.19,0,0,0-35.95-23.76c-.82,0-1.63.06-2.44.12A33.48,33.48,0,0,1,853,454h0c0,.1,0,.19,0,.28a1.63,1.63,0,0,1,0,.31l0,.28c0,.15,0,.3,0,.45v.17c0,.11,0,.22,0,.33s0,.32,0,.48v0c0,.4,0,.8,0,1.19s0,.56,0,.83c0,.1,0,.19,0,.28s0,.34,0,.51c-.07.69-.16,1.37-.28,2-.07.4-.15.79-.24,1.18v.05A23.88,23.88,0,0,1,851,467a25.43,25.43,0,0,1-21.79,15.12c-.37,0-.73,0-1.1,0h.19a38.18,38.18,0,0,0,34.66-23.47v0a38.07,38.07,0,0,0,1.52-4.36c.25-.9.47-1.81.65-2.73a35.67,35.67,0,0,0,.57-3.75c0-.32.06-.63.08-1,.08-1,.11-1.93.11-2.92Z" transform="translate(-311.78 -92.06)"/><path class="cls-23" d="M866.72,508.44v0H826.48A51.35,51.35,0,0,1,824.91,406a48.2,48.2,0,0,1,4.82-.17l1.2,0c-21.8.76-39.36,17.55-39.64,38.36-.26,20.41,16.17,37.34,37.35,39.19,1.1.1,2.21.16,3.33.17a42.62,42.62,0,0,0,4.39-.17h5.29a25,25,0,0,1,21.52,12.2,22.12,22.12,0,0,1,1.22,2.31A24.75,24.75,0,0,1,866.72,508.44Z" transform="translate(-311.78 -92.06)"/><path class="cls-24" d="M866.7,380.9v0a24.75,24.75,0,0,1-2.33,10.54A25.06,25.06,0,0,1,841.63,406h-8.35c-.78-.07-1.57-.11-2.36-.15l-1.2,0a48.3,48.3,0,0,0-4.83.17,51.35,51.35,0,0,0,1.57,102.47H826a63.83,63.83,0,0,1-55-90.28,62.61,62.61,0,0,1,3.67-6.89q1.71-2.77,3.63-5.3a63.11,63.11,0,0,1,13.15-12.88c.66-.49,1.33-1,2-1.41a64.13,64.13,0,0,1,30-10.61c.84-.08,1.69-.14,2.53-.17Z" transform="translate(-311.78 -92.06)"/><path class="cls-25" d="M801.92,500.09a41.18,41.18,0,0,0,5.57,3.52A51.25,51.25,0,0,1,829,405.87h.76a39.18,39.18,0,0,0-38.51,37.75,43.07,43.07,0,0,0-2.62,4.88,42.34,42.34,0,0,0,13.25,51.58Z" transform="translate(-311.78 -92.06)"/><path class="cls-26" d="M990.32,460.16A38.19,38.19,0,0,1,933,493.24V460.51c0,.11,0,.23,0,.34V461c0,.08,0,.16,0,.24s0,.19,0,.29,0,.41.06.62,0,.25,0,.37l0,.23,0,.21s0,.08,0,.12,0,.22.05.33a.69.69,0,0,1,0,.13c0,.12,0,.25.08.37l.09.45s0,0,0,.05.07.28.1.41a18.63,18.63,0,0,0,1.17,3.29,19.08,19.08,0,0,0,16.79,11.11h1.11l.56,0a28.63,28.63,0,0,0,25.32-17.57h0a27.07,27.07,0,0,0,1.14-3.28c.19-.67.36-1.36.5-2.05.18-.92.32-1.86.42-2.81l.06-.72c.06-.72.09-1.45.08-2.19,0-.22,0-.44,0-.66a.65.65,0,0,0,0-.14c0-.17,0-.33,0-.49s0-.25,0-.37,0-.25,0-.38,0-.2,0-.3l0-.35c0-.2,0-.4-.07-.6v0c0-.23-.05-.45-.09-.67v-.05c0-.2-.06-.41-.1-.61,0,0,0-.07,0-.11,0-.22-.08-.44-.13-.67s-.08-.46-.14-.69-.1-.46-.16-.69c-.16-.68-.35-1.36-.57-2-.07-.22-.15-.44-.23-.66s-.15-.44-.23-.65-.17-.44-.26-.65A28.63,28.63,0,0,0,952.87,422,38.18,38.18,0,0,1,990.32,460.16Z" transform="translate(-311.78 -92.06)"/><path class="cls-27" d="M980.77,450.6c0,.74,0,1.47-.08,2.19l-.06.72c-.1.95-.24,1.89-.42,2.81-.14.69-.31,1.38-.5,2.05a27.07,27.07,0,0,1-1.14,3.28h0a28.63,28.63,0,0,1-25.32,17.57l-.56,0a19.11,19.11,0,0,0,18.06-14.81v0c.06-.29.12-.59.17-.88q.14-.76.21-1.53l0-.38c0-.07,0-.14,0-.21l0-.63c0-.29,0-.59,0-.89v0c0-.12,0-.24,0-.36a2.09,2.09,0,0,0,0-.25v-.12c0-.12,0-.23,0-.35l0-.2a1.64,1.64,0,0,0,0-.23c0-.07,0-.14,0-.21h0c0-.06,0-.11,0-.18,0-.31-.08-.63-.13-.94l-.09-.47c-.06-.31-.12-.61-.2-.92,0-.14-.07-.28-.11-.42a.14.14,0,0,0,0-.06,3.31,3.31,0,0,0-.12-.42c0-.15-.08-.3-.13-.45l-.14-.41,0-.05-.15-.41c-.06-.15-.11-.29-.17-.43s-.11-.28-.17-.41l0,0c0-.14-.12-.27-.18-.41s-.13-.27-.2-.41-.14-.27-.21-.41-.14-.27-.22-.4c-.22-.4-.45-.79-.71-1.17s-.33-.51-.51-.75-.18-.25-.28-.37a19.1,19.1,0,0,0-22.4-6.12l-.42.18-.42.19c-.28.13-.55.26-.82.41h0a3.72,3.72,0,0,0-.39.21l-.39.23a3.64,3.64,0,0,0-.39.23c-.39.24-.77.5-1.14.77s-.49.36-.72.55a3.17,3.17,0,0,0-.35.29l-.35.29c-.22.2-.45.41-.66.62l-.33.32-.31.32h0c-.31.33-.61.67-.89,1s-.38.47-.56.72l-.27.37c-.17.25-.34.5-.5.76s-.17.25-.24.38l-.23.4c-.23.4-.45.82-.65,1.25l-.18.38c-.07.15-.13.31-.2.47l-.15.38c-.06.14-.11.29-.17.43s-.2.59-.29.88c0,.13-.07.26-.11.39a2.76,2.76,0,0,0-.08.27l-.06.24c0,.15-.08.3-.11.45s-.07.31-.1.46c-.09.45-.17.91-.23,1.37s-.07.64-.09,1c0,.1,0,.21,0,.32,0,.38,0,.76,0,1.14v58.39A19.1,19.1,0,0,1,914,537.65V460.16a38.19,38.19,0,0,1,20.85-34h0a37.84,37.84,0,0,1,14.76-4.06c.6,0,1.22-.07,1.83-.08h1.47a28.63,28.63,0,0,1,25.79,17.82c.09.21.17.43.26.65s.16.43.23.65l.23.66c.22.66.41,1.34.57,2,.06.23.11.46.16.69s.1.46.14.69.09.45.13.67c0,0,0,.07,0,.11,0,.2.07.41.1.61v.05l.09.67v0c0,.2,0,.4.07.6l0,.35,0,.3c0,.13,0,.25,0,.38s0,.25,0,.37,0,.32,0,.49a.65.65,0,0,1,0,.14C980.77,450.16,980.77,450.38,980.77,450.6Z" transform="translate(-311.78 -92.06)"/><path class="cls-28" d="M933.22,462.78h0l0-.22Z" transform="translate(-311.78 -92.06)"/><path class="cls-29" d="M980.77,450.19a2.09,2.09,0,0,0,0-.25.65.65,0,0,0,0-.14c0-.17,0-.33,0-.49s0-.25,0-.37,0-.25,0-.38l0-.3,0-.35c0-.2,0-.4-.07-.6v0l-.09-.67v-.05c0-.2-.06-.41-.1-.61,0,0,0-.07,0-.11,0-.22-.08-.44-.13-.67s-.09-.46-.14-.69-.1-.46-.16-.69c-.16-.68-.36-1.36-.57-2l-.23-.66c-.07-.22-.15-.44-.23-.65s-.17-.44-.26-.65a28.65,28.65,0,0,0-27-17.82c-.61,0-1.22,0-1.82.09a25.11,25.11,0,0,1,21.25,36h0c0,.07,0,.13,0,.21a1.64,1.64,0,0,1,0,.23l0,.2c0,.12,0,.23,0,.35v.12a2.09,2.09,0,0,1,0,.25c0,.12,0,.24,0,.36v0c0,.3,0,.6,0,.89l0,.63c0,.07,0,.14,0,.21l0,.38q-.07.76-.21,1.53c0,.29-.11.59-.17.88v0a18.39,18.39,0,0,1-1.15,3.45,19.08,19.08,0,0,1-16.35,11.34c-.27,0-.55,0-.82,0h.14a28.65,28.65,0,0,0,26-17.6h0a27.07,27.07,0,0,0,1.14-3.28c.19-.67.36-1.36.5-2.05.18-.92.32-1.86.42-2.81l.06-.72c.06-.72.09-1.45.08-2.19Z" transform="translate(-311.78 -92.06)"/><path class="cls-30" d="M981.4,498.94v0H951.22A38.51,38.51,0,0,1,950,422.11c1.2-.1,2.4-.14,3.62-.13l.9,0c-16.35.57-29.52,13.16-29.73,28.77-.2,15.31,12.13,28,28,29.39.82.08,1.65.12,2.49.13a32.66,32.66,0,0,0,3.29-.13h4a18.75,18.75,0,0,1,16.14,9.15,15,15,0,0,1,.91,1.73A18.5,18.5,0,0,1,981.4,498.94Z" transform="translate(-311.78 -92.06)"/><path class="cls-31" d="M981.39,403.29h0a18.8,18.8,0,0,1-18.8,18.79h-6.26c-.59,0-1.19-.08-1.78-.11l-.9,0c-1.22,0-2.43,0-3.62.13A38.52,38.52,0,0,0,951.21,499h-.34a47.83,47.83,0,0,1-38.51-72.88c.85-1.39,1.76-2.71,2.72-4a47.5,47.5,0,0,1,9.87-9.66q.74-.54,1.5-1.05a48,48,0,0,1,22.48-8c.63-.06,1.27-.1,1.9-.13Z" transform="translate(-311.78 -92.06)"/><path class="cls-32" d="M932.8,492.69a32.27,32.27,0,0,0,4.18,2.63A38.43,38.43,0,0,1,953.14,422h.57a29.38,29.38,0,0,0-28.88,28.31,33,33,0,0,0-2,3.66,31.78,31.78,0,0,0,9.94,38.69Z" transform="translate(-311.78 -92.06)"/><path class="cls-33" d="M1066.39,463.6a25.46,25.46,0,0,1-38.19,22v-22a1.41,1.41,0,0,0,0,.2v.37a1,1,0,0,0,0,.17,1.28,1.28,0,0,0,0,.19l0,.41,0,.25a.77.77,0,0,1,0,.15.78.78,0,0,1,0,.14s0,.06,0,.08l0,.22,0,.09c0,.08,0,.17,0,.25a2.46,2.46,0,0,0,.07.29v0a2.68,2.68,0,0,1,.07.27,11.72,11.72,0,0,0,.78,2.2,12.71,12.71,0,0,0,11.19,7.4h1.12a19.12,19.12,0,0,0,16.88-11.71h0a20.21,20.21,0,0,0,.76-2.19c.13-.45.24-.9.33-1.36.12-.62.22-1.24.28-1.88,0-.16,0-.31,0-.47,0-.49.06-1,.06-1.46,0-.15,0-.3,0-.45v-.09c0-.11,0-.22,0-.33s0-.16,0-.24,0-.17,0-.26,0-.13,0-.2a1.64,1.64,0,0,0,0-.23c0-.14,0-.27,0-.4v0c0-.15,0-.3-.05-.45a0,0,0,0,0,0,0c0-.14,0-.27-.06-.41v-.07c0-.15,0-.3-.08-.44s-.06-.31-.1-.47-.06-.3-.1-.46c-.11-.45-.24-.9-.38-1.34l-.15-.44c0-.15-.11-.29-.16-.44s-.11-.29-.17-.43a19.08,19.08,0,0,0-17.2-11.88A25.45,25.45,0,0,1,1066.39,463.6Z" transform="translate(-311.78 -92.06)"/><path class="cls-34" d="M1060,457.23c0,.49,0,1-.06,1.46,0,.16,0,.31,0,.47-.06.64-.16,1.26-.28,1.88-.09.46-.2.91-.33,1.36a20.21,20.21,0,0,1-.76,2.19h0a19.12,19.12,0,0,1-16.88,11.71h-.38a12.69,12.69,0,0,0,12-9.87v0l.12-.59c.06-.33.1-.67.13-1l0-.25v-.14c0-.14,0-.27,0-.41s0-.4,0-.6v0a1.93,1.93,0,0,0,0-.24v-.25c0-.08,0-.15,0-.23v-.14s0-.1,0-.15a.66.66,0,0,0,0-.14h0s0-.08,0-.12c0-.21,0-.42-.08-.63l-.06-.31c0-.21-.08-.41-.13-.62s0-.18-.08-.28v0c0-.09,0-.19-.08-.28l-.09-.3-.09-.27v0c0-.1-.07-.19-.11-.28s-.07-.19-.11-.29-.07-.18-.11-.27v0l-.12-.27-.14-.27a2.44,2.44,0,0,0-.14-.28,2.15,2.15,0,0,0-.14-.26c-.15-.27-.31-.53-.47-.79s-.23-.33-.35-.5l-.18-.24a12.75,12.75,0,0,0-6-4.34,12.74,12.74,0,0,0-8.91.26l-.28.12-.28.13-.54.27h0c-.09.05-.18.09-.27.15a1.74,1.74,0,0,0-.26.15l-.26.15c-.26.16-.51.33-.76.51l-.48.37-.23.19-.23.2-.45.41-.21.22-.21.21h0q-.32.33-.6.69c-.13.15-.25.31-.37.47l-.17.25c-.12.17-.24.34-.34.51s-.11.17-.16.25-.11.18-.15.27c-.16.27-.3.55-.44.83,0,.09-.08.17-.11.26a2.92,2.92,0,0,0-.14.31l-.1.25c0,.1-.08.19-.11.29s-.14.39-.2.59l-.07.25a1.8,1.8,0,0,0,0,.19.83.83,0,0,0,0,.15c0,.1,0,.21-.08.31l-.06.3a9.28,9.28,0,0,0-.15.92c0,.21,0,.42-.07.64,0,.07,0,.14,0,.22,0,.25,0,.5,0,.76v38.92a12.72,12.72,0,0,1-12.72,12.73V463.6a25.46,25.46,0,0,1,13.9-22.69h0a25.17,25.17,0,0,1,9.84-2.71c.41,0,.81,0,1.22-.05h1a19.08,19.08,0,0,1,17.2,11.88c.05.14.11.29.17.43s.1.29.16.44l.15.44c.14.44.27.89.38,1.34,0,.16.07.31.1.46s.07.31.1.47.06.29.08.44v.07c0,.14,0,.27.06.41a0,0,0,0,1,0,0c0,.15,0,.3.05.45v0c0,.13,0,.26,0,.4a1.64,1.64,0,0,1,0,.23l0,.2c0,.09,0,.17,0,.26s0,.16,0,.24,0,.22,0,.33v.09C1060,456.93,1060,457.08,1060,457.23Z" transform="translate(-311.78 -92.06)"/><path class="cls-35" d="M1028.32,465.34h0s0-.1,0-.15A.77.77,0,0,1,1028.32,465.34Z" transform="translate(-311.78 -92.06)"/><path class="cls-36" d="M1060,457v-.26c0-.11,0-.22,0-.33s0-.16,0-.24,0-.17,0-.26l0-.2a1.64,1.64,0,0,0,0-.23c0-.14,0-.27,0-.4v0c0-.15,0-.3-.05-.45a0,0,0,0,0,0,0c0-.14,0-.27-.06-.41v-.07c0-.15,0-.3-.08-.44s-.06-.31-.1-.47-.07-.3-.1-.46c-.11-.45-.24-.9-.38-1.34l-.15-.44c-.06-.15-.11-.29-.16-.44s-.12-.29-.17-.43a19.11,19.11,0,0,0-18-11.88c-.41,0-.82,0-1.22.06a16.74,16.74,0,0,1,14.17,24h0c0,.05,0,.09,0,.14s0,.1,0,.15v.14c0,.08,0,.15,0,.23v.25a1.93,1.93,0,0,1,0,.24v0c0,.2,0,.4,0,.6s0,.27,0,.41v.14l0,.25c0,.35-.07.69-.13,1l-.12.59v0a12.7,12.7,0,0,1-11.66,9.86l-.55,0h.1a19.1,19.1,0,0,0,17.33-11.73h0a18.27,18.27,0,0,0,.76-2.19c.13-.45.24-.9.33-1.36.12-.62.22-1.24.28-1.88,0-.16,0-.31,0-.47,0-.49.06-1,.06-1.46A2.53,2.53,0,0,0,1060,457Z" transform="translate(-311.78 -92.06)"/><path class="cls-37" d="M1060.45,489.45h-20.12a25.67,25.67,0,0,1-.79-51.23,24,24,0,0,1,2.41-.09l.6,0c-10.9.37-19.68,8.77-19.82,19.17-.13,10.21,8.09,18.68,18.68,19.6.55.05,1.1.08,1.66.09q1.11,0,2.19-.09h2.65a12.43,12.43,0,0,1,6.24,1.66,12.57,12.57,0,0,1,4.52,4.44,10.56,10.56,0,0,1,.61,1.15A12.4,12.4,0,0,1,1060.45,489.45Z" transform="translate(-311.78 -92.06)"/><path class="cls-38" d="M1060.44,425.68h0a12.54,12.54,0,0,1-12.54,12.53h-4.17c-.39,0-.79-.06-1.19-.07l-.6,0c-.81,0-1.61,0-2.41.09a25.67,25.67,0,0,0,.79,51.23h-.23a31.93,31.93,0,0,1-27.51-45.14,30.75,30.75,0,0,1,1.83-3.44c.57-.92,1.18-1.81,1.82-2.65a31.34,31.34,0,0,1,6.58-6.44c.33-.24.66-.48,1-.7a32,32,0,0,1,15-5.31l1.27-.09Z" transform="translate(-311.78 -92.06)"/><path class="cls-39" d="M1028,485.28a21.15,21.15,0,0,0,2.79,1.76,25.63,25.63,0,0,1,10.78-48.87h.37a19.6,19.6,0,0,0-19.25,18.88,20.43,20.43,0,0,0-1.31,2.44,21.19,21.19,0,0,0,6.62,25.79Z" transform="translate(-311.78 -92.06)"/><text class="cls-40" transform="translate(524.66 558.37)">un lavoro di Cristian Pozzi</text></svg>