<svg id="Livello_1" data-name="Livello 1" xmlns="http://www.w3.org/2000/svg" xmlns:xlink="http://www.w3.org/1999/xlink" viewBox="0 0 770.82 541.19"><defs><style>.cls-1{fill:#fff;}.cls-2{opacity:0.5;fill:url(#Sfumatura_senza_nome_4);}.cls-3{opacity:0.51;fill:url(#Sfumatura_senza_nome_6);}.cls-4,.cls-5{opacity:0.44;}.cls-4{fill:url(#Sfumatura_senza_nome_6-2);}.cls-5{fill:#6fc7da;}.cls-6{font-size:72px;fill:#663f91;font-family:ArimaMadurai-ExtraBold, Arima Madurai;font-weight:800;}.cls-7{font-size:18px;fill:#828bc4;font-family:ArimaMadurai-Regular, Arima Madurai;}</style><linearGradient id="Sfumatura_senza_nome_4" x1="322.25" y1="199.18" x2="470.51" y2="199.18" gradientUnits="userSpaceOnUse"><stop offset="0" stop-color="#ba9bc9"/><stop offset="1" stop-color="#474c9b"/></linearGradient><linearGradient id="Sfumatura_senza_nome_6" x1="701.82" y1="-1189.31" x2="927.51" y2="-1189.31" gradientTransform="translate(1735.55 -764.95) rotate(180)" gradientUnits="userSpaceOnUse"><stop offset="0" stop-color="#828bc5"/><stop offset="1" stop-color="#6bc4cd"/></linearGradient><linearGradient id="Sfumatura_senza_nome_6-2" x1="701.99" y1="-1195.39" x2="833.87" y2="-1195.39" xlink:href="#Sfumatura_senza_nome_6"/></defs><title>ld-slide2</title><rect class="cls-1" width="770.82" height="541.19"/><path class="cls-2" d="M470.51,199.17a98.86,98.86,0,0,1-148.26,85.61V199.17c0,.26,0,.52,0,.78v.1c0,.31,0,.6,0,.9l0,.45c0,.22,0,.43,0,.64s0,.49,0,.74c0,.54.09,1.07.14,1.6,0,.33.08.66.12,1s.05.4.07.59.06.37.08.54,0,.22,0,.31c.05.29.09.58.14.87l.06.33.18,1c.08.38.16.76.25,1.14,0,.05,0,.09,0,.13.09.37.17.72.27,1.08a47.73,47.73,0,0,0,3,8.51,49.42,49.42,0,0,0,43.47,28.75l1.43,0,1.44,0,1.46,0a74.16,74.16,0,0,0,65.53-45.48s0,0,0,0a74.51,74.51,0,0,0,2.95-8.48q.74-2.61,1.28-5.3a72.53,72.53,0,0,0,1.09-7.28c.06-.62.12-1.23.16-1.86.15-1.87.22-3.75.21-5.66,0-.58,0-1.15,0-1.72,0-.13,0-.25,0-.38,0-.41,0-.83,0-1.25s0-.65-.06-1,0-.66-.06-1,0-.52-.06-.77,0-.62-.08-.93c0-.51-.09-1-.16-1.53,0,0,0-.06,0-.09-.06-.58-.13-1.16-.23-1.74a.49.49,0,0,0,0-.12c-.07-.53-.15-1.06-.24-1.58,0-.1,0-.19,0-.27-.1-.58-.2-1.16-.32-1.74s-.23-1.2-.37-1.8-.26-1.19-.41-1.78c-.43-1.77-.92-3.51-1.49-5.23-.17-.57-.37-1.14-.58-1.71s-.39-1.13-.62-1.69-.42-1.12-.65-1.67a74.12,74.12,0,0,0-66.76-46.13A98.83,98.83,0,0,1,470.51,199.17Z" transform="translate(-322.25 -100.36)"/><path class="cls-3" d="M808.05,294.26v-.07H910.1a130.25,130.25,0,0,1,4,259.9c-4,.34-8.12.47-12.25.43l-3-.06c55.29-1.93,99.83-44.5,100.54-97.29.67-51.77-41-94.71-94.73-99.4-2.79-.26-5.59-.39-8.44-.43-3.76,0-7.45.11-11.12.43H871.63a63.47,63.47,0,0,1-54.58-30.94A52.61,52.61,0,0,1,814,321,62.85,62.85,0,0,1,808.05,294.26Z" transform="translate(-322.25 -100.36)"/><path class="cls-4" d="M972.4,315.41a108.08,108.08,0,0,0-14.13-8.91,130,130,0,0,1-54.66,247.88h-1.92a99.33,99.33,0,0,0,97.65-95.76,107.42,107.42,0,0,0-26.94-143.2Z" transform="translate(-322.25 -100.36)"/><path class="cls-5" d="M874,293.67s0,0,0,0c0,.27.07.55.1.83C874.09,294.23,874.06,293.94,874,293.67Z" transform="translate(-322.25 -100.36)"/><text class="cls-6" transform="translate(18.93 116.03)">Concept grafico</text><text class="cls-7" transform="translate(148.08 307.19)">In quanto si trattava di dover progettare un logo che <tspan x="0" y="21.6">più mi rappresentasse,</tspan><tspan x="0" y="64.8">sono partito proprio dal mio nome. Per questo </tspan><tspan x="0" y="86.4">ho deciso di dare un aspetto grafico, diverso dal solito, </tspan><tspan x="0" y="108" xml:space="preserve">alle lettere  C e P.</tspan></text></svg>