<svg id="Livello_1" data-name="Livello 1" xmlns="http://www.w3.org/2000/svg" xmlns:xlink="http://www.w3.org/1999/xlink" viewBox="0 0 160.11 250.99"><defs><style>.cls-1{opacity:0.51;fill:url(#Sfumatura_senza_nome_6);}.cls-2,.cls-5{opacity:0.48;}.cls-2{fill:url(#Sfumatura_senza_nome_6-2);}.cls-3,.cls-6,.cls-7{opacity:0.44;}.cls-3{fill:url(#Sfumatura_senza_nome_6-3);}.cls-4{opacity:0.5;fill:url(#Sfumatura_senza_nome_38);}.cls-5{fill:url(#Sfumatura_senza_nome_38-2);}.cls-6{fill:url(#Sfumatura_senza_nome_38-3);}.cls-7{fill:url(#Sfumatura_senza_nome_38-4);}</style><linearGradient id="Sfumatura_senza_nome_6" x1="346.11" y1="289.1" x2="472.83" y2="289.1" gradientUnits="userSpaceOnUse"><stop offset="0" stop-color="#828bc5"/><stop offset="1" stop-color="#6bc4cd"/></linearGradient><linearGradient id="Sfumatura_senza_nome_6-2" x1="328.29" y1="271.35" x2="472.8" y2="271.35" xlink:href="#Sfumatura_senza_nome_6"/><linearGradient id="Sfumatura_senza_nome_6-3" x1="346.21" y1="285.69" x2="420.25" y2="285.69" xlink:href="#Sfumatura_senza_nome_6"/><linearGradient id="Sfumatura_senza_nome_38" x1="381.68" y1="287.17" x2="488.4" y2="287.17" gradientUnits="userSpaceOnUse"><stop offset="0" stop-color="#ba9bc9"/><stop offset="1" stop-color="#474c9b"/></linearGradient><linearGradient id="Sfumatura_senza_nome_38-2" x1="346.11" y1="323.77" x2="470.61" y2="323.77" xlink:href="#Sfumatura_senza_nome_38"/><linearGradient id="Sfumatura_senza_nome_38-3" x1="381.96" y1="291.82" x2="382.01" y2="291.82" xlink:href="#Sfumatura_senza_nome_38"/><linearGradient id="Sfumatura_senza_nome_38-4" x1="413.03" y1="269.4" x2="470.61" y2="269.4" xlink:href="#Sfumatura_senza_nome_38"/></defs><title>Senza titolo-1</title><path class="cls-1" d="M472.83,362.15v0H415.52a73.13,73.13,0,0,1-2.24-145.93c2.27-.19,4.56-.26,6.88-.24l1.7,0c-31,1.08-56.05,25-56.45,54.62-.37,29.07,23,53.18,53.19,55.81,1.57.14,3.14.22,4.74.24a61.62,61.62,0,0,0,6.25-.24h7.54a35.64,35.64,0,0,1,30.64,17.37,31.07,31.07,0,0,1,1.73,3.28A35.24,35.24,0,0,1,472.83,362.15Z" transform="translate(-328.29 -180.53)"/><path class="cls-2" d="M472.8,180.53v0a35.68,35.68,0,0,1-35.7,35.67H425.21c-1.11-.09-2.24-.15-3.37-.2l-1.71,0c-2.31,0-4.6,0-6.87.24a73.13,73.13,0,0,0,2.24,145.93h-.65a90.87,90.87,0,0,1-73.12-138.37c1.62-2.63,3.34-5.16,5.17-7.56a89.82,89.82,0,0,1,18.73-18.34c.94-.69,1.89-1.35,2.85-2a91.29,91.29,0,0,1,42.68-15.11c1.2-.11,2.41-.2,3.61-.25Z" transform="translate(-328.29 -180.53)"/><path class="cls-3" d="M380.55,350.27a60.23,60.23,0,0,0,7.93,5A73,73,0,0,1,419.17,216.1h1.08a55.77,55.77,0,0,0-54.83,53.76,60.35,60.35,0,0,0-3.75,57.05A60.41,60.41,0,0,0,380.55,350.27Z" transform="translate(-328.29 -180.53)"/><path class="cls-4" d="M488.4,287.16a71.15,71.15,0,0,1-106.72,61.62V287.16c0,.19,0,.38,0,.56v.08c0,.22,0,.43,0,.64l0,.33c0,.15,0,.3,0,.46s0,.35,0,.53c0,.39.06.77.1,1.15s.05.47.08.7,0,.29.05.42,0,.27.05.4a1.7,1.7,0,0,1,0,.22c0,.21.07.41.1.62s0,.16.05.24c0,.23.08.46.13.7s.11.55.17.82a.36.36,0,0,1,0,.1c.06.26.13.51.19.77a36,36,0,0,0,2.17,6.13,35.55,35.55,0,0,0,31.29,20.69h2.07l1,0A53.38,53.38,0,0,0,466.51,290v0a51.11,51.11,0,0,0,2.12-6.1c.36-1.25.67-2.52.92-3.82a49.92,49.92,0,0,0,.79-5.23c.05-.45.09-.89.12-1.34.11-1.35.16-2.7.15-4.08,0-.41,0-.82,0-1.24a2.43,2.43,0,0,0,0-.27l0-.9c0-.23,0-.46,0-.69s0-.47,0-.71,0-.37-.05-.55,0-.45-.05-.67l-.12-1.1s0,0,0-.07c-.05-.41-.1-.83-.16-1.24,0,0,0-.06,0-.09q-.07-.57-.18-1.14l0-.2c-.06-.41-.14-.83-.22-1.24s-.17-.87-.27-1.3-.19-.86-.29-1.28c-.31-1.28-.67-2.53-1.08-3.77-.12-.41-.27-.82-.41-1.23s-.29-.81-.45-1.21-.3-.81-.47-1.21A53.37,53.37,0,0,0,418.63,216,71.13,71.13,0,0,1,488.4,287.16Z" transform="translate(-328.29 -180.53)"/><path class="cls-5" d="M470.61,269.35c0,1.38,0,2.73-.15,4.08,0,.45-.07.89-.12,1.34a49.92,49.92,0,0,1-.79,5.23c-.25,1.3-.56,2.57-.92,3.82a51.11,51.11,0,0,1-2.12,6.1v0a53.38,53.38,0,0,1-47.17,32.74l-1,0a35.58,35.58,0,0,0,31.5-21.16,35.16,35.16,0,0,0,2.14-6.43.64.64,0,0,1,0-.07q.18-.82.33-1.65c.17-.94.29-1.89.38-2.85,0-.23,0-.47.07-.71s0-.26,0-.39c0-.39.05-.77.06-1.16,0-.55,0-1.11,0-1.67v-.05c0-.22,0-.45,0-.67s0-.31,0-.46,0-.16,0-.24,0-.43,0-.64l0-.38c0-.14,0-.29,0-.43s0-.26,0-.39,0,0,0,0,0-.22,0-.33c-.06-.6-.14-1.18-.24-1.76,0-.29-.1-.58-.16-.87-.11-.58-.23-1.15-.37-1.72-.07-.26-.13-.52-.21-.79l0-.11c-.07-.27-.14-.53-.22-.78s-.16-.56-.26-.83-.17-.52-.26-.78l0-.08c-.09-.26-.18-.52-.28-.77s-.21-.54-.32-.81-.21-.5-.32-.75a.14.14,0,0,1,0-.06c-.11-.25-.23-.5-.35-.76s-.24-.51-.37-.77-.25-.51-.39-.76-.26-.5-.4-.75c-.41-.74-.85-1.47-1.32-2.18-.31-.48-.63-.94-1-1.4-.16-.23-.32-.45-.5-.68a35.59,35.59,0,0,0-41.74-11.4l-.8.34c-.26.11-.52.22-.78.35-.51.23-1,.48-1.52.75,0,0,0,0,0,0-.25.13-.49.25-.73.4s-.5.27-.74.42-.49.29-.73.44c-.72.45-1.42.92-2.11,1.42-.46.33-.91.67-1.35,1-.22.17-.43.35-.65.54s-.43.36-.64.55c-.42.37-.84.75-1.25,1.15-.2.19-.4.39-.59.59s-.4.4-.59.61h0c-.57.61-1.13,1.25-1.66,1.9-.36.44-.7.88-1,1.34-.18.23-.34.45-.5.69-.33.46-.64.93-.94,1.41-.15.24-.31.48-.45.72s-.29.49-.42.74c-.44.76-.84,1.54-1.22,2.33-.11.24-.22.47-.32.71l-.38.86-.29.72-.3.81c-.19.54-.38,1.08-.54,1.63-.08.25-.15.48-.22.72s-.1.35-.14.52-.08.29-.11.43-.15.57-.21.85-.13.57-.18.86c-.17.84-.32,1.69-.42,2.55-.08.6-.14,1.19-.18,1.8,0,.2,0,.4,0,.6-.05.7-.07,1.42-.07,2.13V396a35.58,35.58,0,0,1-35.57,35.57V287.16A71.18,71.18,0,0,1,385,223.76h0a70.59,70.59,0,0,1,27.5-7.57c1.12-.07,2.26-.12,3.4-.14.45,0,.91,0,1.37,0s.92,0,1.38,0a53.37,53.37,0,0,1,48.05,33.2c.16.4.32.8.47,1.21l.45,1.21c.14.41.28.82.41,1.23.41,1.24.77,2.49,1.08,3.77.09.43.19.85.29,1.28l.27,1.3c.08.41.15.83.22,1.24l0,.2c.07.38.12.76.18,1.14,0,0,0,.06,0,.09.06.41.11.83.16,1.24,0,0,0,.05,0,.07l.12,1.1c0,.22,0,.45.05.67l.05.55c0,.24,0,.47,0,.71s0,.46,0,.69l0,.9a2.43,2.43,0,0,1,0,.27C470.61,268.53,470.61,268.94,470.61,269.35Z" transform="translate(-328.29 -180.53)"/><path class="cls-6" d="M382,292h0c0-.13,0-.27-.05-.41C382,291.75,382,291.9,382,292Z" transform="translate(-328.29 -180.53)"/><path class="cls-7" d="M470.61,268.58c0-.16,0-.31,0-.47a2.43,2.43,0,0,0,0-.27l0-.9c0-.23,0-.46,0-.69s0-.47,0-.71l-.05-.55c0-.22,0-.45-.05-.67l-.12-1.1s0,0,0-.07c-.05-.41-.1-.83-.16-1.24,0,0,0-.06,0-.09-.06-.38-.11-.76-.18-1.14l0-.2c-.07-.41-.14-.83-.22-1.24l-.27-1.3c-.1-.43-.2-.85-.29-1.28-.32-1.28-.68-2.53-1.08-3.77-.13-.41-.27-.82-.41-1.23l-.45-1.21c-.15-.41-.31-.81-.47-1.21a53.37,53.37,0,0,0-50.25-33.19c-1.14,0-2.27.07-3.4.16a46.77,46.77,0,0,1,39.59,67.15h0c0,.13,0,.25,0,.39s0,.29,0,.43l0,.38c0,.21,0,.42,0,.64s0,.15,0,.24,0,.3,0,.46,0,.45,0,.67v.05c0,.56,0,1.12,0,1.67,0,.39,0,.77-.06,1.16,0,.13,0,.26,0,.39s0,.48-.07.71c-.09,1-.21,1.91-.38,2.85-.09.55-.21,1.1-.33,1.65a.64.64,0,0,0,0,.07,33.7,33.7,0,0,1-2.14,6.43,35.57,35.57,0,0,1-30.45,21.13c-.51,0-1,0-1.54.05h-1.46c.58,0,1.16,0,1.73,0A53.39,53.39,0,0,0,466.51,290v0a49.4,49.4,0,0,0,2.12-6.1c.36-1.25.67-2.52.92-3.82a47.42,47.42,0,0,0,.79-5.23c.05-.45.09-.89.12-1.34.11-1.35.16-2.7.15-4.08Z" transform="translate(-328.29 -180.53)"/></svg>