<svg id="Livello_1" data-name="Livello 1" xmlns="http://www.w3.org/2000/svg" viewBox="0 0 70 70"><defs><style>.cls-1{fill:#fff;}</style></defs><title>logodesignicon</title><path class="cls-1" d="M453.62,270.46H403.44a9.91,9.91,0,0,0-9.91,9.91v50.18a9.91,9.91,0,0,0,9.91,9.91h50.18a9.91,9.91,0,0,0,9.91-9.91V280.37A9.91,9.91,0,0,0,453.62,270.46Zm-39.89,10.42,5-3.25c1.67-1.09,4.87.85,7.15,4.34l.91,1.4-11,7.19-.91-1.4C412.57,285.68,412.07,282,413.73,280.88Zm2.64,55.69c-3.71,1.23-10.29,1.12-11.88,1.06a.21.21,0,0,1-.15-.32l.14-.24a.2.2,0,0,1,.14-.08c4.76-.49,6.86-7.07,6.86-7.07h0a4.74,4.74,0,0,1,4.94-3.54,5,5,0,0,1,4.28,4.65A5,5,0,0,1,416.37,336.57Zm4.56-9.16s-1.54-2.49-3.47-2.29l5-11.67c.2-.61,4,.63,5.21,3.13Zm17.53-2.14-8.5-13-1.53,3.47a7.42,7.42,0,0,0-5.37-3.75l3.25-5.31-8.5-13a1.1,1.1,0,0,1,.32-1.54,1,1,0,0,1,.6-.19,1.13,1.13,0,0,1,.94.51l7.94,12.12,1.24-2-7-10.64a2.29,2.29,0,0,1,.65-3.14,2.34,2.34,0,0,1,1.24-.36,2.27,2.27,0,0,1,1.9,1l5.78,8.83,1.15-1.86-5.89-9a1.1,1.1,0,0,1,.32-1.54,1,1,0,0,1,.6-.19,1.15,1.15,0,0,1,.94.51l5.32,8.13,12.89-21h.38l-10.89,24.68,13.17,20.12a1.11,1.11,0,1,1-1.86,1.23l-12.38-18.93-1,2.17,11,16.87a2.27,2.27,0,0,1-3.79,2.5l-9.42-14.42-1,2.36,9.29,14.2a1.12,1.12,0,1,1-1.87,1.23Zm1.45,2.21,11-7.19,2,15.12Z" transform="translate(-393.53 -270.46)"/></svg>