<svg id="Livello_1" data-name="Livello 1" xmlns="http://www.w3.org/2000/svg" viewBox="0 0 70 70"><defs><style>.cls-1{fill:#fff;}</style></defs><title>photoshopicon</title><path class="cls-1" d="M413,286.38a8.18,8.18,0,0,0-3.44-.61c-.76,0-1.43,0-2,0a6.54,6.54,0,0,0-1.2,0v10.23c.41,0,.79.06,1.14.06H409a10.38,10.38,0,0,0,3.36-.55,5,5,0,0,0,2.39-1.61,4.87,4.87,0,0,0,.9-3.14,5.17,5.17,0,0,0-.67-2.71A4.2,4.2,0,0,0,413,286.38Zm30.57-23.74H398.34a12.68,12.68,0,0,0-12.4,12.94v44.13a12.67,12.67,0,0,0,12.4,12.93h45.21a12.66,12.66,0,0,0,12.39-12.93V275.58A12.67,12.67,0,0,0,443.55,262.64Zm-24.31,33.81a9.42,9.42,0,0,1-4.33,3.72,15.58,15.58,0,0,1-6.05,1c-.64,0-1.07,0-1.34,0s-.65,0-1.16,0v9.77l-.41.43h-5.1c-.21,0-.32-.13-.32-.4V279.62c0-.21.08-.33.27-.33.45,0,.88,0,1.5,0s1.32,0,2.05-.06,1.5,0,2.33-.06,1.64,0,2.45,0a14.16,14.16,0,0,1,5.54.94,9.58,9.58,0,0,1,3.6,2.49,10.05,10.05,0,0,1,2,3.47,13.17,13.17,0,0,1,.62,4A12,12,0,0,1,419.24,296.45Zm22.18,10.75a6.89,6.89,0,0,1-3,2.51,11.93,11.93,0,0,1-4.89.9,17.38,17.38,0,0,1-3.67-.37,10.31,10.31,0,0,1-2.75-.9.54.54,0,0,1-.3-.53v-4.9a.34.34,0,0,1,.11-.26.21.21,0,0,1,.24,0,11.14,11.14,0,0,0,3.35,1.38,12.09,12.09,0,0,0,3.19.43,5,5,0,0,0,2.24-.4,1.33,1.33,0,0,0,.73-1.19,1.5,1.5,0,0,0-.65-1.12,11.11,11.11,0,0,0-2.65-1.33,16.7,16.7,0,0,1-3.83-2,7.22,7.22,0,0,1-2.05-2.4,6.26,6.26,0,0,1-.62-2.88,6.6,6.6,0,0,1,3.75-6,10.17,10.17,0,0,1,4.78-1,22.32,22.32,0,0,1,3.35.25,9.5,9.5,0,0,1,2.32.65.54.54,0,0,1,.27.25,2.15,2.15,0,0,1,.05.34v4.59a.36.36,0,0,1-.13.29.78.78,0,0,1-.49,0,9.38,9.38,0,0,0-2.59-1,13.43,13.43,0,0,0-3-.37,5.22,5.22,0,0,0-1.62.2,1.38,1.38,0,0,0-.84.56,1.61,1.61,0,0,0-.21.76,1.32,1.32,0,0,0,.27.74,3.09,3.09,0,0,0,.92.76c.62.34,1.27.64,1.91.93a18.93,18.93,0,0,1,4.16,2,5.91,5.91,0,0,1,2.76,5.24A6.75,6.75,0,0,1,441.42,307.2Z" transform="translate(-385.94 -262.64)"/></svg>