<svg id="Livello_1" data-name="Livello 1" xmlns="http://www.w3.org/2000/svg" viewBox="0 0 70 70"><defs><style>.cls-1{fill:#fff;}</style></defs><title>typographyicon</title><path class="cls-1" d="M446.24,263.08h0a11.54,11.54,0,0,0-3.19-.44H398.87a11.54,11.54,0,0,0-3.19.44h0a13.73,13.73,0,0,0-9.71,13.44v42.24c0,7.25,5.18,13.2,11.78,13.82a8.77,8.77,0,0,0,1.15.06H443a8.77,8.77,0,0,0,1.15-.06c6.6-.62,11.77-6.57,11.77-13.82V276.52A13.73,13.73,0,0,0,446.24,263.08Zm-7,23.8h-2a15.92,15.92,0,0,0-1-2.69,23.29,23.29,0,0,0-1.57-3,14.32,14.32,0,0,0-1.93-2.55,3.82,3.82,0,0,0-2-1.25c-.61-.09-1.38-.15-2.31-.19s-1.79-.08-2.58-.08h-1.7v36a4.18,4.18,0,0,0,.41,1.91,2.71,2.71,0,0,0,1.44,1.36,16,16,0,0,0,2.24.6,16.56,16.56,0,0,0,2.63.42v2.25H411.09v-2.25l2.53-.27a9,9,0,0,0,2.34-.47,2.8,2.8,0,0,0,1.43-1.19,3.93,3.93,0,0,0,.47-2.08v-36.3h-1.72c-.62,0-1.37,0-2.28.06s-1.77.1-2.59.21a3.56,3.56,0,0,0-2,1.25,16,16,0,0,0-1.94,2.55,22.18,22.18,0,0,0-1.56,3,19.21,19.21,0,0,0-.95,2.64h-2.06V274.67h36.55Z" transform="translate(-385.94 -262.64)"/></svg>