<svg id="Livello_1" data-name="Livello 1" xmlns="http://www.w3.org/2000/svg" viewBox="0 0 71 70"><defs><style>.cls-1{fill:#fff;}</style></defs><title>webdesignicon</title><path class="cls-1" d="M436.12,277.64l-9.44,20.3,9.91,18a1,1,0,0,1-.34,1.34.84.84,0,0,1-1.21-.34L425.72,300l-.85,1.84L433.16,317a2.1,2.1,0,0,1-.65,2.72A1.81,1.81,0,0,1,430,319l-7.07-12.9-.94,2,7,12.71a1,1,0,0,1-.34,1.32.87.87,0,0,1-1.24-.33L421,310.2l-1.38,3a6.09,6.09,0,0,0-4.2-3.46l2.83-4.52-6.38-11.61a1,1,0,0,1,.32-1.33.73.73,0,0,1,.49-.13.87.87,0,0,1,.74.47l6,10.83,1.08-1.73-5.22-9.51a2.1,2.1,0,0,1,.64-2.71,1.74,1.74,0,0,1,1-.27,1.81,1.81,0,0,1,1.49,1l4.36,7.91,1-1.59-4.43-8.06a1,1,0,0,1,.32-1.33.76.76,0,0,1,.5-.13,1,1,0,0,1,.75.45l4,7.29,10.75-17.05H385.44v41.41A13.58,13.58,0,0,0,399,332.64h43.82a13.58,13.58,0,0,0,13.59-13.59V277.64Zm-27.05,4.63,4.15-2.65c1.38-.89,3.9.91,5.62,4l.69,1.24-9.21,5.88-.68-1.26C407.93,286.41,407.66,283.16,409.07,282.27Zm0,48.56c-3.06.95-8.41.6-9.68.5-.12,0-.19-.15-.11-.28l.14-.2s.05-.07.09-.06c3.9-.26,5.86-5.92,5.86-5.92v0A3.9,3.9,0,0,1,409.5,322a4.25,4.25,0,0,1,3.29,4.22C412.85,328.71,411.12,330.76,409,330.83Zm4-7.8s-1.15-2.23-2.72-2.12l4.51-10c.21-.53,3.27.69,4.11,2.89Zm15.37.76,9.21-5.86,1.06,13.21Zm14.39-61.15H399a13.58,13.58,0,0,0-13.34,11h70.5A13.58,13.58,0,0,0,442.85,262.64Zm-46.12,8.29a2.29,2.29,0,1,1,2.28-2.29A2.29,2.29,0,0,1,396.73,270.93Zm5.71,0a2.29,2.29,0,1,1,2.29-2.29A2.3,2.3,0,0,1,402.44,270.93Zm5.71,0a2.29,2.29,0,1,1,2.29-2.29A2.29,2.29,0,0,1,408.15,270.93Z" transform="translate(-385.44 -262.64)"/></svg>