<svg id="Livello_1" data-name="Livello 1" xmlns="http://www.w3.org/2000/svg" viewBox="0 0 64 64.31"><defs><style>.cls-1{fill:#fff;fill-rule:evenodd;}</style></defs><title>whatsappicon</title><path id="WhatsApp-Logo" class="cls-1" d="M435.61,304c-.8-.39-4.71-2.32-5.44-2.59s-1.26-.39-1.8.4-2.05,2.59-2.52,3.12-.93.6-1.72.2a21.52,21.52,0,0,1-6.4-3.95,23.92,23.92,0,0,1-4.43-5.51c-.47-.8-.05-1.23.34-1.63s.8-.93,1.2-1.39a5.67,5.67,0,0,0,.8-1.33,1.49,1.49,0,0,0-.07-1.4c-.2-.4-1.79-4.31-2.46-5.91s-1.3-1.34-1.79-1.37-1,0-1.52,0a3,3,0,0,0-2.13,1,9,9,0,0,0-2.78,6.64c0,3.92,2.85,7.71,3.25,8.24s5.61,8.58,13.6,12a46.49,46.49,0,0,0,4.54,1.68,10.92,10.92,0,0,0,5,.32c1.53-.23,4.71-1.93,5.38-3.79a6.67,6.67,0,0,0,.46-3.79c-.2-.33-.73-.53-1.52-.93m-14.5,19.84h0a26.45,26.45,0,0,1-13.48-3.7l-1-.57-10,2.63,2.67-9.77-.63-1a26.48,26.48,0,1,1,22.44,12.42m22.54-49a31.87,31.87,0,0,0-50.15,38.45l-4.53,16.51,16.9-4.43a31.78,31.78,0,0,0,15.23,3.88h0a31.88,31.88,0,0,0,22.54-54.41" transform="translate(-388.94 -265.49)"/></svg>